<?xml version="1.0" encoding="utf-8"?>
<svg xmlns="http://www.w3.org/2000/svg" xmlns:xlink="http://www.w3.org/1999/xlink" style="margin: auto; background: none; display: block; z-index: 1; position: relative; shape-rendering: auto;" width="1843" height="851" preserveAspectRatio="xMidYMid" viewBox="0 0 1843 851">
<g transform=""><path d="M-100 511.51C-66.38 505.86 -65.41 507.93 -34.1 507.93S0.31 514.75 31.81 514.75S66.24 514.15 97.71 514.15S131.03 505.05 163.61 505.05S197.96 511.42 229.52 511.42S264.44 498.51 295.42 498.51S328.74 494.12 361.32 494.12S394.78 510.89 427.23 510.89S461.81 498.77 493.13 498.77S526.87 510.73 559.03 510.73S593.11 496.63 624.94 496.63S658 496.59 690.84 496.59S725.72 497.47 756.74 497.47S791.38 511.52 822.65 511.52S855.75 510.58 888.55 510.58S922.16 507.76 954.45 507.76S988.04 497.22 1020.35 497.22S1054.78 514.65 1086.26 514.65S1121.06 494.35 1152.16 494.35S1186.42 514.57 1218.06 514.57S1252.11 506.84 1283.97 506.84S1318.9 500.06 1349.87 500.06S1382.84 496.85 1415.77 496.85S1450.77 501.24 1481.68 501.24S1516.29 514.12 1547.58 514.12S1580.9 496.81 1613.48 496.81S1648.42 505.3 1679.39 505.3S1712.9 497.71 1745.29 497.71S1779.22 500.27 1811.19 500.27S1845.34 509.13 1877.1 509.13S1911.59 500.35 1943 500.35S1977.96 493.76 2008.9 493.76L1943 851 L-100 851 Z" fill="#ff0cbe" stroke-width="0">
  <animate attributeName="d" dur="25s" repeatCount="indefinite" values="M-100 511.51C-66.38 505.86 -65.41 507.93 -34.1 507.93S0.31 514.75 31.81 514.75S66.24 514.15 97.71 514.15S131.03 505.05 163.61 505.05S197.96 511.42 229.52 511.42S264.44 498.51 295.42 498.51S328.74 494.12 361.32 494.12S394.78 510.89 427.23 510.89S461.81 498.77 493.13 498.77S526.87 510.73 559.03 510.73S593.11 496.63 624.94 496.63S658 496.59 690.84 496.59S725.72 497.47 756.74 497.47S791.38 511.52 822.65 511.52S855.75 510.58 888.55 510.58S922.16 507.76 954.45 507.76S988.04 497.22 1020.35 497.22S1054.78 514.65 1086.26 514.65S1121.06 494.35 1152.16 494.35S1186.42 514.57 1218.06 514.57S1252.11 506.84 1283.97 506.84S1318.9 500.06 1349.87 500.06S1382.84 496.85 1415.77 496.85S1450.77 501.24 1481.68 501.24S1516.29 514.12 1547.58 514.12S1580.9 496.81 1613.48 496.81S1648.42 505.3 1679.39 505.3S1712.9 497.71 1745.29 497.71S1779.22 500.27 1811.19 500.27S1845.34 509.13 1877.1 509.13S1911.59 500.35 1943 500.35S1977.96 493.76 2008.9 493.76L1943 851 L-100 851 Z;M-100 495.07C-65.65 498.95 -65.84 513.76 -34.1 513.76S0.95 498.57 31.81 498.57S65.04 504.88 97.71 504.88S131.24 508.83 163.61 508.83S198.3 508.86 229.52 508.86S264.24 512.28 295.42 512.28S329.38 514.8 361.32 514.8S394.99 513.05 427.23 513.05S460.64 501.24 493.13 501.24S527.23 503.71 559.03 503.71S593.37 512.74 624.94 512.74S658.17 500.29 690.84 500.29S723.99 503.82 756.74 503.82S790.85 511.48 822.65 511.48S857.38 510.2 888.55 510.2S922.84 507.39 954.45 507.39S989.23 494.82 1020.35 494.82S1055.07 498.3 1086.26 498.3S1120.22 502.55 1152.16 502.55S1185.59 510.62 1218.06 510.62S1253.03 497.22 1283.97 497.22S1318.52 495.65 1349.87 495.65S1383.48 506.46 1415.77 506.46S1449.14 506.1 1481.68 506.1S1516.31 513.48 1547.58 513.48S1582.27 502.02 1613.48 502.02S1648.47 498.87 1679.39 498.87S1713.88 504.47 1745.29 504.47S1778.56 505.86 1811.19 505.86S1844.4 507.68 1877.1 507.68S1910.21 499.43 1943 499.43S1976.95 511.35 2008.9 511.35L1943 851 L-100 851 Z;M-100 511.51C-66.38 505.86 -65.41 507.93 -34.1 507.93S0.31 514.75 31.81 514.75S66.24 514.15 97.71 514.15S131.03 505.05 163.61 505.05S197.96 511.42 229.52 511.42S264.44 498.51 295.42 498.51S328.74 494.12 361.32 494.12S394.78 510.89 427.23 510.89S461.81 498.77 493.13 498.77S526.87 510.73 559.03 510.73S593.11 496.63 624.94 496.63S658 496.59 690.84 496.59S725.72 497.47 756.74 497.47S791.38 511.52 822.65 511.52S855.75 510.58 888.55 510.58S922.16 507.76 954.45 507.76S988.04 497.22 1020.35 497.22S1054.78 514.65 1086.26 514.65S1121.06 494.35 1152.16 494.35S1186.42 514.57 1218.06 514.57S1252.11 506.84 1283.97 506.84S1318.9 500.06 1349.87 500.06S1382.84 496.85 1415.77 496.85S1450.77 501.24 1481.68 501.24S1516.29 514.12 1547.58 514.12S1580.9 496.81 1613.48 496.81S1648.42 505.3 1679.39 505.3S1712.9 497.71 1745.29 497.71S1779.22 500.27 1811.19 500.27S1845.34 509.13 1877.1 509.13S1911.59 500.35 1943 500.35S1977.96 493.76 2008.9 493.76L1943 851 L-100 851 Z"></animate>
  <animateTransform attributeName="transform" type="translate" dur="25s" begin="0s" repeatCount="indefinite" values="0;10;0" calcMode="spline" keySplines="0.3 0 0.7 1;0.3 0 0.7 1"></animateTransform>
</path><path d="M-100 523.3C-65.92 518.01 -66.14 531.91 -32.35 531.91S2.81 526.1 35.3 526.1S70.9 528.64 102.95 528.64S138.07 533.28 170.6 533.28S205.26 530.86 238.25 530.86S272.18 529.96 305.89 529.96S340.96 537.32 373.54 537.32S409.38 521.06 441.19 521.06S476.44 524.37 508.84 524.37S544.07 529.17 576.49 529.17S610.76 519.26 644.14 519.26S678.09 528.28 711.79 528.28S746.69 533.13 779.44 533.13S814.1 517.07 847.09 517.07S881.07 537.02 914.74 537.02S949.88 523.33 982.38 523.33S1017.64 525.79 1050.03 525.79S1085.75 518.36 1117.68 518.36S1152.64 531.99 1185.33 531.99S1219.75 520.4 1252.98 520.4S1288.37 529.5 1320.63 529.5S1355.19 522.5 1388.28 522.5S1422.44 534.05 1455.93 534.05S1490.19 528.03 1523.58 528.03S1557.92 526.79 1591.23 526.79S1626.63 522.55 1658.87 522.55S1694.51 536.29 1726.52 536.29S1760.95 531.9 1794.17 531.9S1828.96 523.24 1861.82 523.24S1895.86 515.93 1929.47 515.93S1963.3 523.36 1997.12 523.36L1943 851 L-100 851 Z" fill="#f03fd8" stroke-width="0">
  <animate attributeName="d" dur="22.5s" repeatCount="indefinite" values="M-100 523.3C-65.92 518.01 -66.14 531.91 -32.35 531.91S2.81 526.1 35.3 526.1S70.9 528.64 102.95 528.64S138.07 533.28 170.6 533.28S205.26 530.86 238.25 530.86S272.18 529.96 305.89 529.96S340.96 537.32 373.54 537.32S409.38 521.06 441.19 521.06S476.44 524.37 508.84 524.37S544.07 529.17 576.49 529.17S610.76 519.26 644.14 519.26S678.09 528.28 711.79 528.28S746.69 533.13 779.44 533.13S814.1 517.07 847.09 517.07S881.07 537.02 914.74 537.02S949.88 523.33 982.38 523.33S1017.64 525.79 1050.03 525.79S1085.75 518.36 1117.68 518.36S1152.64 531.99 1185.33 531.99S1219.75 520.4 1252.98 520.4S1288.37 529.5 1320.63 529.5S1355.19 522.5 1388.28 522.5S1422.44 534.05 1455.93 534.05S1490.19 528.03 1523.58 528.03S1557.92 526.79 1591.23 526.79S1626.63 522.55 1658.87 522.55S1694.51 536.29 1726.52 536.29S1760.95 531.9 1794.17 531.9S1828.96 523.24 1861.82 523.24S1895.86 515.93 1929.47 515.93S1963.3 523.36 1997.12 523.36L1943 851 L-100 851 Z;M-100 527.61C-64.37 515.42 -64.86 525.65 -32.35 525.65S3.34 535.23 35.3 535.23S71.09 528.21 102.95 528.21S137.15 532.69 170.6 532.69S204.91 524.73 238.25 524.73S272.91 535.31 305.89 535.31S341.2 521.48 373.54 521.48S408.12 534.4 441.19 534.4S476.74 519.61 508.84 519.61S543.74 525.68 576.49 525.68S611.89 526.35 644.14 526.35S679.12 519.96 711.79 519.96S747.7 524.9 779.44 524.9S813.92 515.36 847.09 515.36S881.91 529.41 914.74 529.41S948.62 527.87 982.38 527.87S1017.07 530.1 1050.03 530.1S1083.86 529.59 1117.68 529.59S1152.59 519.25 1185.33 519.25S1219.6 527.83 1252.98 527.83S1287.26 532.02 1320.63 532.02S1354.99 520.72 1388.28 520.72S1423.57 520.12 1455.93 520.12S1491.18 518.6 1523.58 518.6S1558.2 524.63 1591.23 524.63S1625.51 529.87 1658.87 529.87S1692.77 524.55 1726.52 524.55S1761.94 532.78 1794.17 532.78S1828.48 536 1861.82 536S1896.6 527.82 1929.47 527.82S1963.88 538.26 1997.12 538.26L1943 851 L-100 851 Z;M-100 523.3C-65.92 518.01 -66.14 531.91 -32.35 531.91S2.81 526.1 35.3 526.1S70.9 528.64 102.95 528.64S138.07 533.28 170.6 533.28S205.26 530.86 238.25 530.86S272.18 529.96 305.89 529.96S340.96 537.32 373.54 537.32S409.38 521.06 441.19 521.06S476.44 524.37 508.84 524.37S544.07 529.17 576.49 529.17S610.76 519.26 644.14 519.26S678.09 528.28 711.79 528.28S746.69 533.13 779.44 533.13S814.1 517.07 847.09 517.07S881.07 537.02 914.74 537.02S949.88 523.33 982.38 523.33S1017.64 525.79 1050.03 525.79S1085.75 518.36 1117.68 518.36S1152.64 531.99 1185.33 531.99S1219.75 520.4 1252.98 520.4S1288.37 529.5 1320.63 529.5S1355.19 522.5 1388.28 522.5S1422.44 534.05 1455.93 534.05S1490.19 528.03 1523.58 528.03S1557.92 526.79 1591.23 526.79S1626.63 522.55 1658.87 522.55S1694.51 536.29 1726.52 536.29S1760.95 531.9 1794.17 531.9S1828.96 523.24 1861.82 523.24S1895.86 515.93 1929.47 515.93S1963.3 523.36 1997.12 523.36L1943 851 L-100 851 Z"></animate>
  <animateTransform attributeName="transform" type="translate" dur="22.5s" begin="-2.25s" repeatCount="indefinite" values="0;10;0" calcMode="spline" keySplines="0.3 0 0.7 1;0.3 0 0.7 1"></animateTransform>
</path><path d="M-100 547.85C-64.83 555.52 -64.23 556.37 -30.51 556.37S6.04 542.5 38.98 542.5S75.09 557.06 108.47 557.06S145.06 545.79 177.96 545.79S214.2 548.35 247.45 548.35S284.26 548.28 316.94 548.28S353.69 554.36 386.43 554.36S423.18 540.54 455.92 540.54S492.41 553.72 525.41 553.72S560.81 549.93 594.9 549.93S631.56 563.55 664.39 563.55S701.19 555.79 733.88 555.79S769.96 559.79 803.37 559.79S840.09 556.81 872.86 556.81S909.39 557.42 942.35 557.42S979.01 543.31 1011.84 543.31S1047 548.53 1081.33 548.53S1117.24 536.37 1150.82 536.37S1186.18 556.16 1220.31 556.16S1256.36 554.37 1289.8 554.37S1325.87 562.1 1359.29 562.1S1394.78 549.92 1428.78 549.92S1463.74 562.34 1498.27 562.34S1533.24 536.65 1567.76 536.65S1603.82 556.81 1637.24 556.81S1672.46 553.12 1706.73 553.12S1742.88 538.77 1776.22 538.77S1811.4 555.87 1845.71 555.87S1881.78 559.52 1915.2 559.52S1951.61 554.66 1984.69 554.66L1943 851 L-100 851 Z" fill="#dd5bee" stroke-width="0">
  <animate attributeName="d" dur="20s" repeatCount="indefinite" values="M-100 547.85C-64.83 555.52 -64.23 556.37 -30.51 556.37S6.04 542.5 38.98 542.5S75.09 557.06 108.47 557.06S145.06 545.79 177.96 545.79S214.2 548.35 247.45 548.35S284.26 548.28 316.94 548.28S353.69 554.36 386.43 554.36S423.18 540.54 455.92 540.54S492.41 553.72 525.41 553.72S560.81 549.93 594.9 549.93S631.56 563.55 664.39 563.55S701.19 555.79 733.88 555.79S769.96 559.79 803.37 559.79S840.09 556.81 872.86 556.81S909.39 557.42 942.35 557.42S979.01 543.31 1011.84 543.31S1047 548.53 1081.33 548.53S1117.24 536.37 1150.82 536.37S1186.18 556.16 1220.31 556.16S1256.36 554.37 1289.8 554.37S1325.87 562.1 1359.29 562.1S1394.78 549.92 1428.78 549.92S1463.74 562.34 1498.27 562.34S1533.24 536.65 1567.76 536.65S1603.82 556.81 1637.24 556.81S1672.46 553.12 1706.73 553.12S1742.88 538.77 1776.22 538.77S1811.4 555.87 1845.71 555.87S1881.78 559.52 1915.2 559.52S1951.61 554.66 1984.69 554.66L1943 851 L-100 851 Z;M-100 545.62C-64.13 546.2 -63.17 549.96 -30.51 549.96S4.94 538.5 38.98 538.5S74.38 554.09 108.47 554.09S144.33 541.42 177.96 541.42S214.31 565.62 247.45 565.62S283.9 554.56 316.94 554.56S352.49 558.8 386.43 558.8S423.17 552 455.92 552S492.7 561.44 525.41 561.44S561.36 548.45 594.9 548.45S631.27 553.61 664.39 553.61S700.28 543.42 733.88 543.42S770.03 545.67 803.37 545.67S839.61 536.95 872.86 536.95S908.66 547.99 942.35 547.99S978.76 541.11 1011.84 541.11S1048.62 558.29 1081.33 558.29S1117.13 555.61 1150.82 555.61S1185.67 547.8 1220.31 547.8S1256.03 549.28 1289.8 549.28S1325.97 545.58 1359.29 545.58S1394.68 546.64 1428.78 546.64S1464.09 549.59 1498.27 549.59S1533.78 548.35 1567.76 548.35S1603.71 559.37 1637.24 559.37S1673.35 541.04 1706.73 541.04S1741.76 545.3 1776.22 545.3S1811.2 552.38 1845.71 552.38S1881.4 560.38 1915.2 560.38S1952.06 560.57 1984.69 560.57L1943 851 L-100 851 Z;M-100 547.85C-64.83 555.52 -64.23 556.37 -30.51 556.37S6.04 542.5 38.98 542.5S75.09 557.06 108.47 557.06S145.06 545.79 177.96 545.79S214.2 548.35 247.45 548.35S284.26 548.28 316.94 548.28S353.69 554.36 386.43 554.36S423.18 540.54 455.92 540.54S492.41 553.72 525.41 553.72S560.81 549.93 594.9 549.93S631.56 563.55 664.39 563.55S701.19 555.79 733.88 555.79S769.96 559.79 803.37 559.79S840.09 556.81 872.86 556.81S909.39 557.42 942.35 557.42S979.01 543.31 1011.84 543.31S1047 548.53 1081.33 548.53S1117.24 536.37 1150.82 536.37S1186.18 556.16 1220.31 556.16S1256.36 554.37 1289.8 554.37S1325.87 562.1 1359.29 562.1S1394.78 549.92 1428.78 549.92S1463.74 562.34 1498.27 562.34S1533.24 536.65 1567.76 536.65S1603.82 556.81 1637.24 556.81S1672.46 553.12 1706.73 553.12S1742.88 538.77 1776.22 538.77S1811.4 555.87 1845.71 555.87S1881.78 559.52 1915.2 559.52S1951.61 554.66 1984.69 554.66L1943 851 L-100 851 Z"></animate>
  <animateTransform attributeName="transform" type="translate" dur="20s" begin="-4s" repeatCount="indefinite" values="0;10;0" calcMode="spline" keySplines="0.3 0 0.7 1;0.3 0 0.7 1"></animateTransform>
</path><path d="M-100 569.08C-63.62 573.2 -63.21 558.84 -28.57 558.84S7.54 576.19 42.87 576.19S79.89 579.01 114.3 579.01S151.94 570.38 185.73 570.38S221.78 589.68 257.17 589.68S293.37 571.05 328.6 571.05S365.5 588.5 400.03 588.5S436.66 570.44 471.47 570.44S508.05 580.88 542.9 580.88S580.17 573.6 614.34 573.6S651.89 577.63 685.77 577.63S722.04 577.81 757.2 577.81S793.55 576.1 828.64 576.1S864.77 571.89 900.07 571.89S936.68 575.9 971.5 575.9S1008.55 572.4 1042.94 572.4S1079.54 583.28 1114.37 583.28S1152.16 572.23 1185.8 572.23S1222.1 573.96 1257.24 573.96S1294.72 572.86 1328.67 572.86S1365.5 570.54 1400.1 570.54S1436.97 557.84 1471.54 557.84S1507.74 575.12 1542.97 575.12S1579.13 565.26 1614.41 565.26S1651.46 560.58 1685.84 560.58S1723.3 569.51 1757.27 569.51S1793.3 581.3 1828.71 581.3S1865.15 561.92 1900.14 561.92S1936.2 580.59 1971.57 580.59L1943 851 L-100 851 Z" fill="#c770ff" stroke-width="0">
  <animate attributeName="d" dur="17.5s" repeatCount="indefinite" values="M-100 569.08C-63.62 573.2 -63.21 558.84 -28.57 558.84S7.54 576.19 42.87 576.19S79.89 579.01 114.3 579.01S151.94 570.38 185.73 570.38S221.78 589.68 257.17 589.68S293.37 571.05 328.6 571.05S365.5 588.5 400.03 588.5S436.66 570.44 471.47 570.44S508.05 580.88 542.9 580.88S580.17 573.6 614.34 573.6S651.89 577.63 685.77 577.63S722.04 577.81 757.2 577.81S793.55 576.1 828.64 576.1S864.77 571.89 900.07 571.89S936.68 575.9 971.5 575.9S1008.55 572.4 1042.94 572.4S1079.54 583.28 1114.37 583.28S1152.16 572.23 1185.8 572.23S1222.1 573.96 1257.24 573.96S1294.72 572.86 1328.67 572.86S1365.5 570.54 1400.1 570.54S1436.97 557.84 1471.54 557.84S1507.74 575.12 1542.97 575.12S1579.13 565.26 1614.41 565.26S1651.46 560.58 1685.84 560.58S1723.3 569.51 1757.27 569.51S1793.3 581.3 1828.71 581.3S1865.15 561.92 1900.14 561.92S1936.2 580.59 1971.57 580.59L1943 851 L-100 851 Z;M-100 568.65C-63.38 577.57 -62.38 575.02 -28.57 575.02S8.4 562.22 42.87 562.22S79.7 586.01 114.3 586.01S150.91 560.37 185.73 560.37S222.98 584.56 257.17 584.56S294.8 573.82 328.6 573.82S365.91 585.68 400.03 585.68S435.95 576.47 471.47 576.47S507.98 587.91 542.9 587.91S579.96 563.42 614.34 563.42S650.26 570.34 685.77 570.34S723.32 558.77 757.2 558.77S793.18 577.98 828.64 577.98S865.94 577.8 900.07 577.8S936.89 585.51 971.5 585.51S1007.64 565.81 1042.94 565.81S1079.54 570.33 1114.37 570.33S1150.61 564.83 1185.8 564.83S1221.74 586.3 1257.24 586.3S1294.56 568.65 1328.67 568.65S1364.73 587.94 1400.1 587.94S1435.96 563.82 1471.54 563.82S1509.19 591.23 1542.97 591.23S1580.5 559.61 1614.41 559.61S1650.67 559.45 1685.84 559.45S1722.05 560.79 1757.27 560.79S1793.57 591.16 1828.71 591.16S1864.53 576.98 1900.14 576.98S1936.14 577.78 1971.57 577.78L1943 851 L-100 851 Z;M-100 569.08C-63.62 573.2 -63.21 558.84 -28.57 558.84S7.54 576.19 42.87 576.19S79.89 579.01 114.3 579.01S151.94 570.38 185.73 570.38S221.78 589.68 257.17 589.68S293.37 571.05 328.6 571.05S365.5 588.5 400.03 588.5S436.66 570.44 471.47 570.44S508.05 580.88 542.9 580.88S580.17 573.6 614.34 573.6S651.89 577.63 685.77 577.63S722.04 577.81 757.2 577.81S793.55 576.1 828.64 576.1S864.77 571.89 900.07 571.89S936.68 575.9 971.5 575.9S1008.55 572.4 1042.94 572.4S1079.54 583.28 1114.37 583.28S1152.16 572.23 1185.8 572.23S1222.1 573.96 1257.24 573.96S1294.72 572.86 1328.67 572.86S1365.5 570.54 1400.1 570.54S1436.97 557.84 1471.54 557.84S1507.74 575.12 1542.97 575.12S1579.13 565.26 1614.41 565.26S1651.46 560.58 1685.84 560.58S1723.3 569.51 1757.27 569.51S1793.3 581.3 1828.71 581.3S1865.15 561.92 1900.14 561.92S1936.2 580.59 1971.57 580.59L1943 851 L-100 851 Z"></animate>
  <animateTransform attributeName="transform" type="translate" dur="17.5s" begin="-5.25s" repeatCount="indefinite" values="0;10;0" calcMode="spline" keySplines="0.3 0 0.7 1;0.3 0 0.7 1"></animateTransform>
</path><path d="M-100 581.42C-62.19 592.34 -62.01 596.42 -26.51 596.42S10.66 595.82 46.98 595.82S85.32 604.45 120.47 604.45S157.49 584.01 193.96 584.01S231.4 596.37 267.45 596.37S305.22 583.57 340.94 583.57S378.37 616.69 414.42 616.69S452.24 606.44 487.91 606.44S526.51 609.83 561.4 609.83S599.84 586.69 634.89 586.69S673.04 605.23 708.38 605.23S746.3 582.71 781.87 582.71S819.24 580.73 855.36 580.73S892.41 588.97 928.85 588.97S966.57 606.34 1002.34 606.34S1040.01 591.85 1075.83 591.85S1114.05 590.01 1149.32 590.01S1188.08 603.66 1222.81 603.66S1261.56 596.74 1296.29 596.74S1334.39 585.94 1369.78 585.94S1408.64 614.83 1443.27 614.83S1481.99 596.64 1516.76 596.64S1554.52 600.79 1590.25 600.79S1627.97 591.49 1663.74 591.49S1701.04 608.94 1737.23 608.94S1775.06 612.26 1810.72 612.26S1847.5 611.9 1884.21 611.9S1921.51 592.9 1957.7 592.9L1943 851 L-100 851 Z" fill="#ae81ff" stroke-width="0">
  <animate attributeName="d" dur="15s" repeatCount="indefinite" values="M-100 581.42C-62.19 592.34 -62.01 596.42 -26.51 596.42S10.66 595.82 46.98 595.82S85.32 604.45 120.47 604.45S157.49 584.01 193.96 584.01S231.4 596.37 267.45 596.37S305.22 583.57 340.94 583.57S378.37 616.69 414.42 616.69S452.24 606.44 487.91 606.44S526.51 609.83 561.4 609.83S599.84 586.69 634.89 586.69S673.04 605.23 708.38 605.23S746.3 582.71 781.87 582.71S819.24 580.73 855.36 580.73S892.41 588.97 928.85 588.97S966.57 606.34 1002.34 606.34S1040.01 591.85 1075.83 591.85S1114.05 590.01 1149.32 590.01S1188.08 603.66 1222.81 603.66S1261.56 596.74 1296.29 596.74S1334.39 585.94 1369.78 585.94S1408.64 614.83 1443.27 614.83S1481.99 596.64 1516.76 596.64S1554.52 600.79 1590.25 600.79S1627.97 591.49 1663.74 591.49S1701.04 608.94 1737.23 608.94S1775.06 612.26 1810.72 612.26S1847.5 611.9 1884.21 611.9S1921.51 592.9 1957.7 592.9L1943 851 L-100 851 Z;M-100 591.09C-61.8 594.74 -61.18 596.21 -26.51 596.21S10.97 595.81 46.98 595.81S84.12 602.95 120.47 602.95S158.46 581.45 193.96 581.45S232.07 601.48 267.45 601.48S304.46 599.43 340.94 599.43S378.89 582.56 414.42 582.56S451.96 585.84 487.91 585.84S525.26 612.01 561.4 612.01S599.8 595.93 634.89 595.93S673.73 611.37 708.38 611.37S746.75 586.17 781.87 586.17S819.16 595.59 855.36 595.59S892.75 605.3 928.85 605.3S966.77 612.49 1002.34 612.49S1040.56 592.5 1075.83 592.5S1113.62 602.46 1149.32 602.46S1187.26 579.15 1222.81 579.15S1261.32 605.15 1296.29 605.15S1334.01 600.56 1369.78 600.56S1407.8 609.19 1443.27 609.19S1480.08 596.87 1516.76 596.87S1553.82 608.18 1590.25 608.18S1628.38 580.81 1663.74 580.81S1701.43 598.47 1737.23 598.47S1775.93 583.72 1810.72 583.72S1848.64 579.95 1884.21 579.95S1922.47 578.78 1957.7 578.78L1943 851 L-100 851 Z;M-100 581.42C-62.19 592.34 -62.01 596.42 -26.51 596.42S10.66 595.82 46.98 595.82S85.32 604.45 120.47 604.45S157.49 584.01 193.96 584.01S231.4 596.37 267.45 596.37S305.22 583.57 340.94 583.57S378.37 616.69 414.42 616.69S452.24 606.44 487.91 606.44S526.51 609.83 561.4 609.83S599.84 586.69 634.89 586.69S673.04 605.23 708.38 605.23S746.3 582.71 781.87 582.71S819.24 580.73 855.36 580.73S892.41 588.97 928.85 588.97S966.57 606.34 1002.34 606.34S1040.01 591.85 1075.83 591.85S1114.05 590.01 1149.32 590.01S1188.08 603.66 1222.81 603.66S1261.56 596.74 1296.29 596.74S1334.39 585.94 1369.78 585.94S1408.64 614.83 1443.27 614.83S1481.99 596.64 1516.76 596.64S1554.52 600.79 1590.25 600.79S1627.97 591.49 1663.74 591.49S1701.04 608.94 1737.23 608.94S1775.06 612.26 1810.72 612.26S1847.5 611.9 1884.21 611.9S1921.51 592.9 1957.7 592.9L1943 851 L-100 851 Z"></animate>
  <animateTransform attributeName="transform" type="translate" dur="15s" begin="-6s" repeatCount="indefinite" values="0;10;0" calcMode="spline" keySplines="0.3 0 0.7 1;0.3 0 0.7 1"></animateTransform>
</path><path d="M-100 602.43C-60.28 615.22 -61.3 621.39 -24.33 621.39S15.54 619.82 51.33 619.82S89.4 634.4 127 634.4S165.25 609.79 202.67 609.79S241.24 623.44 278.33 623.44S317.71 616.74 354 616.74S392.57 633.11 429.67 633.11S469.35 605.49 505.33 605.49S544.04 636.87 581 636.87S620.34 614.63 656.67 614.63S695.17 635.02 732.33 635.02S771.83 602.67 808 602.67S847.28 602.63 883.67 602.63S922.62 602.44 959.33 602.44S997.51 639.11 1035 639.11S1074.77 640.22 1110.67 640.22S1149.63 627.21 1186.33 627.21S1224.9 600.35 1262 600.35S1300.75 614.89 1337.67 614.89S1376.06 610.37 1413.33 610.37S1451.99 627.71 1489 627.71S1527.86 611.09 1564.67 611.09S1602.65 641.73 1640.33 641.73S1678.8 612.17 1716 612.17S1754.19 628.85 1791.67 628.85S1830.88 620.02 1867.33 620.02S1906 639.66 1943 639.66S1980.89 605.59 2018.67 605.59L1943 851 L-100 851 Z" fill="#9390ff" stroke-width="0">
  <animate attributeName="d" dur="12.5s" repeatCount="indefinite" values="M-100 602.43C-60.28 615.22 -61.3 621.39 -24.33 621.39S15.54 619.82 51.33 619.82S89.4 634.4 127 634.4S165.25 609.79 202.67 609.79S241.24 623.44 278.33 623.44S317.71 616.74 354 616.74S392.57 633.11 429.67 633.11S469.35 605.49 505.33 605.49S544.04 636.87 581 636.87S620.34 614.63 656.67 614.63S695.17 635.02 732.33 635.02S771.83 602.67 808 602.67S847.28 602.63 883.67 602.63S922.62 602.44 959.33 602.44S997.51 639.11 1035 639.11S1074.77 640.22 1110.67 640.22S1149.63 627.21 1186.33 627.21S1224.9 600.35 1262 600.35S1300.75 614.89 1337.67 614.89S1376.06 610.37 1413.33 610.37S1451.99 627.71 1489 627.71S1527.86 611.09 1564.67 611.09S1602.65 641.73 1640.33 641.73S1678.8 612.17 1716 612.17S1754.19 628.85 1791.67 628.85S1830.88 620.02 1867.33 620.02S1906 639.66 1943 639.66S1980.89 605.59 2018.67 605.59L1943 851 L-100 851 Z;M-100 602.86C-60.69 609.24 -61.98 611.32 -24.33 611.32S15.21 622.05 51.33 622.05S91.22 609.29 127 609.29S166.09 602.05 202.67 602.05S242.47 635.01 278.33 635.01S316.36 600.51 354 600.51S392.03 638.67 429.67 638.67S467.54 620.73 505.33 620.73S544.36 613.47 581 613.47S620.32 618.02 656.67 618.02S694.81 625.53 732.33 625.53S771.14 609.56 808 609.56S846.55 625.83 883.67 625.83S923.37 638.98 959.33 638.98S999.04 635.19 1035 635.19S1073.6 618.73 1110.67 618.73S1149.07 637.56 1186.33 637.56S1225.34 613.14 1262 613.14S1300.13 631.57 1337.67 631.57S1377.41 613.78 1413.33 613.78S1452.7 617.26 1489 617.26S1527.56 628.23 1564.67 628.23S1603.12 623.9 1640.33 623.9S1678.4 601.23 1716 601.23S1755.16 633.13 1791.67 633.13S1830.94 613.6 1867.33 613.6S1905.52 625.09 1943 625.09S1981.05 606.51 2018.67 606.51L1943 851 L-100 851 Z;M-100 602.43C-60.28 615.22 -61.3 621.39 -24.33 621.39S15.54 619.82 51.33 619.82S89.4 634.4 127 634.4S165.25 609.79 202.67 609.79S241.24 623.44 278.33 623.44S317.71 616.74 354 616.74S392.57 633.11 429.67 633.11S469.35 605.49 505.33 605.49S544.04 636.87 581 636.87S620.34 614.63 656.67 614.63S695.17 635.02 732.33 635.02S771.83 602.67 808 602.67S847.28 602.63 883.67 602.63S922.62 602.44 959.33 602.44S997.51 639.11 1035 639.11S1074.77 640.22 1110.67 640.22S1149.63 627.21 1186.33 627.21S1224.9 600.35 1262 600.35S1300.75 614.89 1337.67 614.89S1376.06 610.37 1413.33 610.37S1451.99 627.71 1489 627.71S1527.86 611.09 1564.67 611.09S1602.65 641.73 1640.33 641.73S1678.8 612.17 1716 612.17S1754.19 628.85 1791.67 628.85S1830.88 620.02 1867.33 620.02S1906 639.66 1943 639.66S1980.89 605.59 2018.67 605.59L1943 851 L-100 851 Z"></animate>
  <animateTransform attributeName="transform" type="translate" dur="12.5s" begin="-6.25s" repeatCount="indefinite" values="0;10;0" calcMode="spline" keySplines="0.3 0 0.7 1;0.3 0 0.7 1"></animateTransform>
</path><path d="M-100 635.45C-59 623.01 -60.49 647.31 -22.02 647.31S18.24 650.73 55.95 650.73S96.64 621.42 133.93 621.42S174.5 628.35 211.91 628.35S251.16 657.87 289.89 657.87S330.85 629.67 367.86 629.67S407.25 633.76 445.84 633.76S486.91 638.61 523.82 638.61S563.86 660.31 601.79 660.31S642.22 642.02 679.77 642.02S719.89 652.85 757.75 652.85S797.21 642.12 835.73 642.12S875.25 649.64 913.7 649.64S953.09 640.13 991.68 640.13S1031.45 653.85 1069.66 653.85S1109.05 624.73 1147.63 624.73S1188.16 665.15 1225.61 665.15S1266.51 628.22 1303.59 628.22S1342.74 661.93 1381.56 661.93S1421.07 623.93 1459.54 623.93S1499.66 649.05 1537.52 649.05S1577.94 640.21 1615.5 640.21S1656.23 661.94 1693.47 661.94S1734.36 629.49 1771.45 629.49S1812.48 656.72 1849.43 656.72S1889.75 623.68 1927.4 623.68S1968.29 654.27 2005.38 654.27L1943 851 L-100 851 Z" fill="#779cff" stroke-width="0">
  <animate attributeName="d" dur="10s" repeatCount="indefinite" values="M-100 635.45C-59 623.01 -60.49 647.31 -22.02 647.31S18.24 650.73 55.95 650.73S96.64 621.42 133.93 621.42S174.5 628.35 211.91 628.35S251.16 657.87 289.89 657.87S330.85 629.67 367.86 629.67S407.25 633.76 445.84 633.76S486.91 638.61 523.82 638.61S563.86 660.31 601.79 660.31S642.22 642.02 679.77 642.02S719.89 652.85 757.75 652.85S797.21 642.12 835.73 642.12S875.25 649.64 913.7 649.64S953.09 640.13 991.68 640.13S1031.45 653.85 1069.66 653.85S1109.05 624.73 1147.63 624.73S1188.16 665.15 1225.61 665.15S1266.51 628.22 1303.59 628.22S1342.74 661.93 1381.56 661.93S1421.07 623.93 1459.54 623.93S1499.66 649.05 1537.52 649.05S1577.94 640.21 1615.5 640.21S1656.23 661.94 1693.47 661.94S1734.36 629.49 1771.45 629.49S1812.48 656.72 1849.43 656.72S1889.75 623.68 1927.4 623.68S1968.29 654.27 2005.38 654.27L1943 851 L-100 851 Z;M-100 638.98C-60.43 637.97 -60.2 649.25 -22.02 649.25S18.16 655.25 55.95 655.25S95.69 663.26 133.93 663.26S173.82 635.52 211.91 635.52S251.79 656.15 289.89 656.15S330.27 630.49 367.86 630.49S408.93 666.59 445.84 666.59S486.83 621.92 523.82 621.92S564.73 666.51 601.79 666.51S642.68 634.01 679.77 634.01S719.19 651.52 757.75 651.52S797.46 622.29 835.73 622.29S876.38 649.27 913.7 649.27S954.32 627.27 991.68 627.27S1032.58 652.61 1069.66 652.61S1110.65 622.17 1147.63 622.17S1186.68 664.06 1225.61 664.06S1265.19 625.95 1303.59 625.95S1344.32 652.25 1381.56 652.25S1421.44 631.42 1459.54 631.42S1500.47 660.46 1537.52 660.46S1576.98 639.57 1615.5 639.57S1655.27 666.08 1693.47 666.08S1732.5 626.5 1771.45 626.5S1811.71 658.75 1849.43 658.75S1889.74 624.76 1927.4 624.76S1966.83 658.23 2005.38 658.23L1943 851 L-100 851 Z;M-100 635.45C-59 623.01 -60.49 647.31 -22.02 647.31S18.24 650.73 55.95 650.73S96.64 621.42 133.93 621.42S174.5 628.35 211.91 628.35S251.16 657.87 289.89 657.87S330.85 629.67 367.86 629.67S407.25 633.76 445.84 633.76S486.91 638.61 523.82 638.61S563.86 660.31 601.79 660.31S642.22 642.02 679.77 642.02S719.89 652.85 757.75 652.85S797.21 642.12 835.73 642.12S875.25 649.64 913.7 649.64S953.09 640.13 991.68 640.13S1031.45 653.85 1069.66 653.85S1109.05 624.73 1147.63 624.73S1188.16 665.15 1225.61 665.15S1266.51 628.22 1303.59 628.22S1342.74 661.93 1381.56 661.93S1421.07 623.93 1459.54 623.93S1499.66 649.05 1537.52 649.05S1577.94 640.21 1615.5 640.21S1656.23 661.94 1693.47 661.94S1734.36 629.49 1771.45 629.49S1812.48 656.72 1849.43 656.72S1889.75 623.68 1927.4 623.68S1968.29 654.27 2005.38 654.27L1943 851 L-100 851 Z"></animate>
  <animateTransform attributeName="transform" type="translate" dur="10s" begin="-6s" repeatCount="indefinite" values="0;10;0" calcMode="spline" keySplines="0.3 0 0.7 1;0.3 0 0.7 1"></animateTransform>
</path><path d="M-100 647.37C-58.35 642.69 -59.6 676.01 -19.57 676.01S20.94 648.55 60.87 648.55S102.64 692.78 141.3 692.78S183.25 655.18 221.73 655.18S263.63 689 302.17 689S343.84 658.29 382.6 658.29S423.35 680.07 463.03 680.07S503.93 662.5 543.46 662.5S584.95 692.78 623.9 692.78S666.19 648.83 704.33 648.83S744.8 648.13 784.76 648.13S825.3 658.83 865.2 658.83S907.11 688.36 945.63 688.36S987.78 654.52 1026.06 654.52S1068.17 690.49 1106.5 690.49S1147.09 653.19 1186.93 653.19S1228.85 681.02 1267.36 681.02S1307.95 661.12 1347.8 661.12S1388.96 689.13 1428.23 689.13S1468.53 660 1508.66 660S1550.31 644.23 1589.09 644.23S1629.67 643.91 1669.53 643.91S1710.13 688.81 1749.96 688.81S1790.36 663.75 1830.39 663.75S1871.93 679.98 1910.83 679.98S1952.93 654.68 1991.26 654.68L1943 851 L-100 851 Z" fill="#5aa7ff" stroke-width="0">
  <animate attributeName="d" dur="7.5s" repeatCount="indefinite" values="M-100 647.37C-58.35 642.69 -59.6 676.01 -19.57 676.01S20.94 648.55 60.87 648.55S102.64 692.78 141.3 692.78S183.25 655.18 221.73 655.18S263.63 689 302.17 689S343.84 658.29 382.6 658.29S423.35 680.07 463.03 680.07S503.93 662.5 543.46 662.5S584.95 692.78 623.9 692.78S666.19 648.83 704.33 648.83S744.8 648.13 784.76 648.13S825.3 658.83 865.2 658.83S907.11 688.36 945.63 688.36S987.78 654.52 1026.06 654.52S1068.17 690.49 1106.5 690.49S1147.09 653.19 1186.93 653.19S1228.85 681.02 1267.36 681.02S1307.95 661.12 1347.8 661.12S1388.96 689.13 1428.23 689.13S1468.53 660 1508.66 660S1550.31 644.23 1589.09 644.23S1629.67 643.91 1669.53 643.91S1710.13 688.81 1749.96 688.81S1790.36 663.75 1830.39 663.75S1871.93 679.98 1910.83 679.98S1952.93 654.68 1991.26 654.68L1943 851 L-100 851 Z;M-100 682.06C-59.55 688.44 -58.43 689.46 -19.57 689.46S21.02 650.94 60.87 650.94S101.51 682.14 141.3 682.14S183.24 651.23 221.73 651.23S262.44 677.93 302.17 677.93S342.42 651.43 382.6 651.43S424.2 679.71 463.03 679.71S504.29 645.93 543.46 645.93S585.56 677.01 623.9 677.01S665.06 648.03 704.33 648.03S744.75 689.01 784.76 689.01S825.99 644.05 865.2 644.05S907.54 692.11 945.63 692.11S986.28 688.85 1026.06 688.85S1068.17 692.27 1106.5 692.27S1148.32 645.85 1186.93 645.85S1228.56 677.26 1267.36 677.26S1309.41 644.19 1347.8 644.19S1389.44 675.4 1428.23 675.4S1469.07 649.73 1508.66 649.73S1550.99 659.98 1589.09 659.98S1630.21 654.08 1669.53 654.08S1711.4 679.27 1749.96 679.27S1791.67 661.15 1830.39 661.15S1871.58 689.46 1910.83 689.46S1952.96 646.21 1991.26 646.21L1943 851 L-100 851 Z;M-100 647.37C-58.35 642.69 -59.6 676.01 -19.57 676.01S20.94 648.55 60.87 648.55S102.64 692.78 141.3 692.78S183.25 655.18 221.73 655.18S263.63 689 302.17 689S343.84 658.29 382.6 658.29S423.35 680.07 463.03 680.07S503.93 662.5 543.46 662.5S584.95 692.78 623.9 692.78S666.19 648.83 704.33 648.83S744.8 648.13 784.76 648.13S825.3 658.83 865.2 658.83S907.11 688.36 945.63 688.36S987.78 654.52 1026.06 654.52S1068.17 690.49 1106.5 690.49S1147.09 653.19 1186.93 653.19S1228.85 681.02 1267.36 681.02S1307.95 661.12 1347.8 661.12S1388.96 689.13 1428.23 689.13S1468.53 660 1508.66 660S1550.31 644.23 1589.09 644.23S1629.67 643.91 1669.53 643.91S1710.13 688.81 1749.96 688.81S1790.36 663.75 1830.39 663.75S1871.93 679.98 1910.83 679.98S1952.93 654.68 1991.26 654.68L1943 851 L-100 851 Z"></animate>
  <animateTransform attributeName="transform" type="translate" dur="7.5s" begin="-5.25s" repeatCount="indefinite" values="0;10;0" calcMode="spline" keySplines="0.3 0 0.7 1;0.3 0 0.7 1"></animateTransform>
</path><path d="M-100 679.91C-58.25 679.42 -57.76 674.82 -16.95 674.82S25.82 682.42 66.1 682.42S109.61 710.42 149.15 710.42S191.77 684.86 232.2 684.86S274.09 701.37 315.24 701.37S357.87 680.8 398.29 680.8S440.67 716.05 481.34 716.05S523.37 683.2 564.39 683.2S607.16 700.27 647.44 700.27S689 681.13 730.49 681.13S772.22 668.74 813.54 668.74S856.29 683.14 896.59 683.14S939.97 714.78 979.63 714.78S1023.04 683.17 1062.68 683.17S1104.33 718.24 1145.73 718.24S1189.32 677.31 1228.78 677.31S1270.63 683.82 1311.83 683.82S1355.21 676.63 1394.88 676.63S1437.5 708.52 1477.93 708.52S1519.91 673.81 1560.98 673.81S1603.49 711.86 1644.02 711.86S1685.8 679.21 1727.07 679.21S1768.63 702.35 1810.12 702.35S1852.33 667.73 1893.17 667.73S1935.18 708.64 1976.22 708.64L1943 851 L-100 851 Z" fill="#3cb0ff" stroke-width="0">
  <animate attributeName="d" dur="5s" repeatCount="indefinite" values="M-100 679.91C-58.25 679.42 -57.76 674.82 -16.95 674.82S25.82 682.42 66.1 682.42S109.61 710.42 149.15 710.42S191.77 684.86 232.2 684.86S274.09 701.37 315.24 701.37S357.87 680.8 398.29 680.8S440.67 716.05 481.34 716.05S523.37 683.2 564.39 683.2S607.16 700.27 647.44 700.27S689 681.13 730.49 681.13S772.22 668.74 813.54 668.74S856.29 683.14 896.59 683.14S939.97 714.78 979.63 714.78S1023.04 683.17 1062.68 683.17S1104.33 718.24 1145.73 718.24S1189.32 677.31 1228.78 677.31S1270.63 683.82 1311.83 683.82S1355.21 676.63 1394.88 676.63S1437.5 708.52 1477.93 708.52S1519.91 673.81 1560.98 673.81S1603.49 711.86 1644.02 711.86S1685.8 679.21 1727.07 679.21S1768.63 702.35 1810.12 702.35S1852.33 667.73 1893.17 667.73S1935.18 708.64 1976.22 708.64L1943 851 L-100 851 Z;M-100 677.16C-58.23 668.47 -57.2 711.49 -16.95 711.49S25.49 713.23 66.1 713.23S109.14 707.38 149.15 707.38S192 675.35 232.2 675.35S274.32 707.27 315.24 707.27S357.92 682.27 398.29 682.27S439.94 715.75 481.34 715.75S524.56 674.85 564.39 674.85S607.65 714.18 647.44 714.18S690.52 674.95 730.49 674.95S772.42 709.97 813.54 709.97S856.84 697.87 896.59 697.87S939.24 711.39 979.63 711.39S1022.01 665.16 1062.68 665.16S1105.84 711.83 1145.73 711.83S1187.49 664.75 1228.78 664.75S1270.94 717.57 1311.83 717.57S1353.65 674.13 1394.88 674.13S1436.71 713.06 1477.93 713.06S1520.68 665.96 1560.98 665.96S1602.69 700.12 1644.02 700.12S1687.53 678.57 1727.07 678.57S1770.47 703.65 1810.12 703.65S1852.1 664.14 1893.17 664.14S1936.73 711.44 1976.22 711.44L1943 851 L-100 851 Z;M-100 679.91C-58.25 679.42 -57.76 674.82 -16.95 674.82S25.82 682.42 66.1 682.42S109.61 710.42 149.15 710.42S191.77 684.86 232.2 684.86S274.09 701.37 315.24 701.37S357.87 680.8 398.29 680.8S440.67 716.05 481.34 716.05S523.37 683.2 564.39 683.2S607.16 700.27 647.44 700.27S689 681.13 730.49 681.13S772.22 668.74 813.54 668.74S856.29 683.14 896.59 683.14S939.97 714.78 979.63 714.78S1023.04 683.17 1062.68 683.17S1104.33 718.24 1145.73 718.24S1189.32 677.31 1228.78 677.31S1270.63 683.82 1311.83 683.82S1355.21 676.63 1394.88 676.63S1437.5 708.52 1477.93 708.52S1519.91 673.81 1560.98 673.81S1603.49 711.86 1644.02 711.86S1685.8 679.21 1727.07 679.21S1768.63 702.35 1810.12 702.35S1852.33 667.73 1893.17 667.73S1935.18 708.64 1976.22 708.64L1943 851 L-100 851 Z"></animate>
  <animateTransform attributeName="transform" type="translate" dur="5s" begin="-4s" repeatCount="indefinite" values="0;10;0" calcMode="spline" keySplines="0.3 0 0.7 1;0.3 0 0.7 1"></animateTransform>
</path><path d="M-100 688.12C-55.57 689.97 -56.95 734.74 -14.16 734.74S29.86 687.07 71.68 687.07S115.16 724.81 157.52 724.81S200.74 701.41 243.36 701.41S286.82 724.16 329.2 724.16S373.24 687.9 415.04 687.9S459.14 744.22 500.88 744.22S545.59 697.64 586.72 697.64S629.7 742 672.56 742S716.15 690.04 758.4 690.04S803.4 735.5 844.24 735.5S888.34 726.16 930.08 726.16S973.25 734.5 1015.92 734.5S1059.06 692.29 1101.76 692.29S1146.53 729.6 1187.61 729.6S1232.26 701.82 1273.45 701.82S1317.03 731.74 1359.29 731.74S1402.64 689.37 1445.13 689.37S1489.65 724.73 1530.97 724.73S1575.47 702.72 1616.81 702.72S1660.07 733.67 1702.65 733.67S1746.27 698.52 1788.49 698.52S1833.1 732.92 1874.33 732.92S1918.15 686.9 1960.17 686.9L1943 851 L-100 851 Z" fill="#1eb7ff" stroke-width="0">
  <animate attributeName="d" dur="2.5s" repeatCount="indefinite" values="M-100 688.12C-55.57 689.97 -56.95 734.74 -14.16 734.74S29.86 687.07 71.68 687.07S115.16 724.81 157.52 724.81S200.74 701.41 243.36 701.41S286.82 724.16 329.2 724.16S373.24 687.9 415.04 687.9S459.14 744.22 500.88 744.22S545.59 697.64 586.72 697.64S629.7 742 672.56 742S716.15 690.04 758.4 690.04S803.4 735.5 844.24 735.5S888.34 726.16 930.08 726.16S973.25 734.5 1015.92 734.5S1059.06 692.29 1101.76 692.29S1146.53 729.6 1187.61 729.6S1232.26 701.82 1273.45 701.82S1317.03 731.74 1359.29 731.74S1402.64 689.37 1445.13 689.37S1489.65 724.73 1530.97 724.73S1575.47 702.72 1616.81 702.72S1660.07 733.67 1702.65 733.67S1746.27 698.52 1788.49 698.52S1833.1 732.92 1874.33 732.92S1918.15 686.9 1960.17 686.9L1943 851 L-100 851 Z;M-100 704.43C-55.8 698.44 -56.72 697.15 -14.16 697.15S30.13 689.77 71.68 689.77S114.85 702.09 157.52 702.09S202.1 701.2 243.36 701.2S287.06 732.91 329.2 732.91S373.42 690.44 415.04 690.44S457.96 736 500.88 736S544.43 741.85 586.72 741.85S629.71 725.66 672.56 725.66S716.63 704.95 758.4 704.95S801.48 728.76 844.24 728.76S888.48 687.12 930.08 687.12S974.01 694.31 1015.92 694.31S1059.28 702.8 1101.76 702.8S1146.5 737.13 1187.61 737.13S1231.47 705.95 1273.45 705.95S1316.63 731.49 1359.29 731.49S1403.16 704.23 1445.13 704.23S1489.83 736.11 1530.97 736.11S1575.43 689.24 1616.81 689.24S1660.28 705.85 1702.65 705.85S1747.16 691.48 1788.49 691.48S1832.79 738.31 1874.33 738.31S1919.16 695.47 1960.17 695.47L1943 851 L-100 851 Z;M-100 688.12C-55.57 689.97 -56.95 734.74 -14.16 734.74S29.86 687.07 71.68 687.07S115.16 724.81 157.52 724.81S200.74 701.41 243.36 701.41S286.82 724.16 329.2 724.16S373.24 687.9 415.04 687.9S459.14 744.22 500.88 744.22S545.59 697.64 586.72 697.64S629.7 742 672.56 742S716.15 690.04 758.4 690.04S803.4 735.5 844.24 735.5S888.34 726.16 930.08 726.16S973.25 734.5 1015.92 734.5S1059.06 692.29 1101.76 692.29S1146.53 729.6 1187.61 729.6S1232.26 701.82 1273.45 701.82S1317.03 731.74 1359.29 731.74S1402.64 689.37 1445.13 689.37S1489.65 724.73 1530.97 724.73S1575.47 702.72 1616.81 702.72S1660.07 733.67 1702.65 733.67S1746.27 698.52 1788.49 698.52S1833.1 732.92 1874.33 732.92S1918.15 686.9 1960.17 686.9L1943 851 L-100 851 Z"></animate>
  <animateTransform attributeName="transform" type="translate" dur="2.5s" begin="-2.25s" repeatCount="indefinite" values="0;10;0" calcMode="spline" keySplines="0.3 0 0.7 1;0.3 0 0.7 1"></animateTransform>
</path></g>
</svg>