<?xml version="1.0" encoding="utf-8"?>
<svg xmlns="http://www.w3.org/2000/svg" xmlns:xlink="http://www.w3.org/1999/xlink" style="margin: auto; background: rgb(241, 242, 243); display: block; z-index: 1; position: relative; shape-rendering: auto;" width="1440" height="766" preserveAspectRatio="xMidYMid" viewBox="0 0 1440 766">
<g transform=""><path id="path0" d="M 880.6061768974845 401.83236038415885
c 0 18.801424580405165 -4.600348567545944 5.400409187988718 -10.00075775553466 5.400409187988718
S 860.6046613864152 420.63378496456403 860.6046613864152 401.83236038415885
s 4.600348567545944 -5.400409187988718 10.00075775553466 -5.400409187988718
S 880.6061768974845 383.03093580375366 880.6061768974845 401.83236038415885
z" fill="none" stroke="none"></path>
<circle cx="0" cy="0" r="4.1123454721746935" fill="#0abeff">
  <animateMotion begin="-9.110898922881479s" dur="10s" repeatCount="indefinite">
    <mpath xlink:href="#path0"></mpath>
  </animateMotion>
</circle><path id="path1" d="M 1385.1360112658385 454.4739836984251
c 0 34.44159030932252 -8.427197628876785 9.892797216507532 -18.31999484538432 9.892797216507532
S 1348.4960215750698 488.91557400774764 1348.4960215750698 454.4739836984251
s 8.427197628876785 -9.892797216507532 18.31999484538432 -9.892797216507532
S 1385.1360112658385 420.0323933891026 1385.1360112658385 454.4739836984251
z" fill="none" stroke="none"></path>
<circle cx="0" cy="0" r="7.756213545068236" fill="#0abeff">
  <animateMotion begin="-1.5024534341274642s" dur="10s" repeatCount="indefinite">
    <mpath xlink:href="#path1"></mpath>
  </animateMotion>
</circle><path id="path2" d="M 69.36919300705789 671.4142468274285
c 0 34.30933005120049 -8.394836076357565 9.854807567898012 -18.249643644255578 9.854807567898012
S 32.86990571854673 705.723576878629 32.86990571854673 671.4142468274285
s 8.394836076357565 -9.854807567898012 18.249643644255578 -9.854807567898012
S 69.36919300705789 637.104916776228 69.36919300705789 671.4142468274285
z" fill="none" stroke="none"></path>
<circle cx="0" cy="0" r="6.44055042130037" fill="#0aff4b">
  <animateMotion begin="-9.548405550777048s" dur="10s" repeatCount="indefinite">
    <mpath xlink:href="#path2"></mpath>
  </animateMotion>
</circle><path id="path3" d="M 398.2720453447323 269.8057473849238
c 0 36.93123176785922 -9.03636521979534 10.607906997151053 -19.64427221694639 10.607906997151053
S 358.98350091083955 306.736979152783 358.98350091083955 269.8057473849238
s 9.03636521979534 -10.607906997151053 19.64427221694639 -10.607906997151053
S 398.2720453447323 232.87451561706456 398.2720453447323 269.8057473849238
z" fill="none" stroke="none"></path>
<circle cx="0" cy="0" r="5.887647223586704" fill="#0aff4b">
  <animateMotion begin="-2.9457978168353827s" dur="10s" repeatCount="indefinite">
    <mpath xlink:href="#path3"></mpath>
  </animateMotion>
</circle><path id="path4" d="M 1418.088089105362 716.8142367984659
c 0 28.74558474814723 -7.033494140504109 8.256710512765695 -15.290204653269804 8.256710512765695
S 1387.5076797988227 745.5598215466132 1387.5076797988227 716.8142367984659
s 7.033494140504109 -8.256710512765695 15.290204653269804 -8.256710512765695
S 1418.088089105362 688.0686520503186 1418.088089105362 716.8142367984659
z" fill="none" stroke="none"></path>
<circle cx="0" cy="0" r="5.711029557856577" fill="#5271ff">
  <animateMotion begin="-1.2147153355855922s" dur="10s" repeatCount="indefinite">
    <mpath xlink:href="#path4"></mpath>
  </animateMotion>
</circle><path id="path5" d="M 932.3371657838774 37.832983767814284
c 0 19.357938015964013 -4.736516748586938 5.56025879181945 -10.296775540406388 5.56025879181945
S 911.7436147030645 57.19092178377829 911.7436147030645 37.832983767814284
s 4.736516748586938 -5.56025879181945 10.296775540406388 -5.56025879181945
S 932.3371657838774 18.47504575185027 932.3371657838774 37.832983767814284
z" fill="none" stroke="none"></path>
<circle cx="0" cy="0" r="5.746769067690376" fill="#ff0cbe">
  <animateMotion begin="-2.5143765590028733s" dur="10s" repeatCount="indefinite">
    <mpath xlink:href="#path5"></mpath>
  </animateMotion>
</circle><path id="path6" d="M 1326.1160226707605 251.31904523882548
c 0 19.348097675923185 -4.734109005810992 5.557432311169426 -10.291541316980418 5.557432311169426
S 1305.5329400367998 270.66714291474864 1305.5329400367998 251.31904523882548
s 4.734109005810992 -5.557432311169426 10.291541316980418 -5.557432311169426
S 1326.1160226707605 231.9709475629023 1326.1160226707605 251.31904523882548
z" fill="none" stroke="none"></path>
<circle cx="0" cy="0" r="5.198215639119256" fill="#0aff4b">
  <animateMotion begin="-0.3202077088978106s" dur="10s" repeatCount="indefinite">
    <mpath xlink:href="#path6"></mpath>
  </animateMotion>
</circle><path id="path7" d="M 953.7820117941216 711.7747982029632
c 0 25.106346278568893 -6.143042174543451 7.2113973353336185 -13.35443950987707 7.2113973353336185
S 927.0731327743673 736.8811444815321 927.0731327743673 711.7747982029632
s 6.143042174543451 -7.2113973353336185 13.35443950987707 -7.2113973353336185
S 953.7820117941216 686.6684519243943 953.7820117941216 711.7747982029632
z" fill="none" stroke="none"></path>
<circle cx="0" cy="0" r="6.111288596366763" fill="#ff0cbe">
  <animateMotion begin="-7.095680225376952s" dur="10s" repeatCount="indefinite">
    <mpath xlink:href="#path7"></mpath>
  </animateMotion>
</circle><path id="path8" d="M 515.5425432012784 372.1371286787121
c 0 21.75122306484374 -5.32210777118517 6.247691731391287 -11.569799502576457 6.247691731391287
S 492.4029441961254 393.8883517435558 492.4029441961254 372.1371286787121
s 5.32210777118517 -6.247691731391287 11.569799502576457 -6.247691731391287
S 515.5425432012784 350.3859056138684 515.5425432012784 372.1371286787121
z" fill="none" stroke="none"></path>
<circle cx="0" cy="0" r="5.909599304211112" fill="#0aff4b">
  <animateMotion begin="-8.14956541038762s" dur="10s" repeatCount="indefinite">
    <mpath xlink:href="#path8"></mpath>
  </animateMotion>
</circle><path id="path9" d="M 908.5570046435187 681.1359783128806
c 0 27.32891022377746 -6.6868610122008665 7.849793362148844 -14.53665437434971 7.849793362148844
S 879.4836958948192 708.4648885366581 879.4836958948192 681.1359783128806
s 6.6868610122008665 -7.849793362148844 14.53665437434971 -7.849793362148844
S 908.5570046435187 653.8070680891032 908.5570046435187 681.1359783128806
z" fill="none" stroke="none"></path>
<circle cx="0" cy="0" r="4.70884882240158" fill="#0aff4b">
  <animateMotion begin="-3.257219980616246s" dur="10s" repeatCount="indefinite">
    <mpath xlink:href="#path9"></mpath>
  </animateMotion>
</circle><path id="path10" d="M 1416.0639271955845 479.587258710484
c 0 36.78720082280886 -9.001123605580892 10.566536406551483 -19.567660012132375 10.566536406551483
S 1376.9286071713198 516.3744595332928 1376.9286071713198 479.587258710484
s 9.001123605580892 -10.566536406551483 19.567660012132375 -10.566536406551483
S 1416.0639271955845 442.8000578876751 1416.0639271955845 479.587258710484
z" fill="none" stroke="none"></path>
<circle cx="0" cy="0" r="5.561688758649598" fill="#0abeff">
  <animateMotion begin="-4.899133614243936s" dur="10s" repeatCount="indefinite">
    <mpath xlink:href="#path10"></mpath>
  </animateMotion>
</circle><path id="path11" d="M 1092.6746147819156 631.5102623983511
c 0 37.40271310683126 -9.151727675075733 10.743332488132383 -19.895060163208115 10.743332488132383
S 1052.8844944554992 668.9129755051823 1052.8844944554992 631.5102623983511
s 9.151727675075733 -10.743332488132383 19.895060163208115 -10.743332488132383
S 1092.6746147819156 594.1075492915198 1092.6746147819156 631.5102623983511
z" fill="none" stroke="none"></path>
<circle cx="0" cy="0" r="7.165373491927819" fill="#ff0cbe">
  <animateMotion begin="-8.771203213562487s" dur="10s" repeatCount="indefinite">
    <mpath xlink:href="#path11"></mpath>
  </animateMotion>
</circle><path id="path12" d="M 703.0891012374325 734.5897433775956
c 0 20.65610735652509 -5.054153927660394 5.93313721942742 -10.987291147087815 5.93313721942742
S 681.1145189432568 755.2458507341207 681.1145189432568 734.5897433775956
s 5.054153927660394 -5.93313721942742 10.987291147087815 -5.93313721942742
S 703.0891012374325 713.9336360210705 703.0891012374325 734.5897433775956
z" fill="none" stroke="none"></path>
<circle cx="0" cy="0" r="4.83424699361204" fill="#0abeff">
  <animateMotion begin="-6.178293312747913s" dur="10s" repeatCount="indefinite">
    <mpath xlink:href="#path12"></mpath>
  </animateMotion>
</circle><path id="path13" d="M 883.8401668795875 303.8564561543987
c 0 33.91083735438941 -8.29733254415911 9.740346899665044 -18.037679443824153 9.740346899665044
S 847.7648079919393 337.7672935087881 847.7648079919393 303.8564561543987
s 8.29733254415911 -9.740346899665044 18.037679443824153 -9.740346899665044
S 883.8401668795875 269.9456188000093 883.8401668795875 303.8564561543987
z" fill="none" stroke="none"></path>
<circle cx="0" cy="0" r="7.822586890107971" fill="#0aff4b">
  <animateMotion begin="-4.357437571880398s" dur="10s" repeatCount="indefinite">
    <mpath xlink:href="#path13"></mpath>
  </animateMotion>
</circle><path id="path14" d="M 457.33923606052605 103.90622802341227
c 0 36.46069202411694 -8.921233154837122 10.472751964374014 -19.393985119211138 10.472751964374014
S 418.55126582210374 140.36692004752922 418.55126582210374 103.90622802341227
s 8.921233154837122 -10.472751964374014 19.393985119211138 -10.472751964374014
S 457.33923606052605 67.44553599929533 457.33923606052605 103.90622802341227
z" fill="none" stroke="none"></path>
<circle cx="0" cy="0" r="4.891149230047938" fill="#0aff4b">
  <animateMotion begin="-6.108080238533811s" dur="10s" repeatCount="indefinite">
    <mpath xlink:href="#path14"></mpath>
  </animateMotion>
</circle><path id="path15" d="M 525.824242389853 286.98428206814987
c 0 19.129919280491073 -4.6807249303329215 5.4947640486516915 -10.175488978984612 5.4947640486516915
S 505.47326443188376 306.11420134864096 505.47326443188376 286.98428206814987
s 4.6807249303329215 -5.4947640486516915 10.175488978984612 -5.4947640486516915
S 525.824242389853 267.8543627876588 525.824242389853 286.98428206814987
z" fill="none" stroke="none"></path>
<circle cx="0" cy="0" r="5.516282621954938" fill="#0aff4b">
  <animateMotion begin="-2.7522245161197922s" dur="10s" repeatCount="indefinite">
    <mpath xlink:href="#path15"></mpath>
  </animateMotion>
</circle><path id="path16" d="M 1222.5148697592556 235.12182237873898
c 0 22.836465274909212 -5.587645758754381 6.559410238537752 -12.147055997292133 6.559410238537752
S 1198.2207577646711 257.9582876536482 1198.2207577646711 235.12182237873898
s 5.587645758754381 -6.559410238537752 12.147055997292133 -6.559410238537752
S 1222.5148697592556 212.28535710382977 1222.5148697592556 235.12182237873898
z" fill="none" stroke="none"></path>
<circle cx="0" cy="0" r="4.595907544837339" fill="#0aff4b">
  <animateMotion begin="-5.941559087298858s" dur="10s" repeatCount="indefinite">
    <mpath xlink:href="#path16"></mpath>
  </animateMotion>
</circle><path id="path17" d="M 866.8334233709452 600.7044997097728
c 0 25.95790639840001 -6.351402629395746 7.4559943910297894 -13.807397020425537 7.4559943910297894
S 839.218629330094 626.6624061081728 839.218629330094 600.7044997097728
s 6.351402629395746 -7.4559943910297894 13.807397020425537 -7.4559943910297894
S 866.8334233709452 574.7465933113727 866.8334233709452 600.7044997097728
z" fill="none" stroke="none"></path>
<circle cx="0" cy="0" r="6.798824413739932" fill="#0aff4b">
  <animateMotion begin="-8.363564665599641s" dur="10s" repeatCount="indefinite">
    <mpath xlink:href="#path17"></mpath>
  </animateMotion>
</circle><path id="path18" d="M 645.9662218549836 632.9732663153459
c 0 28.01732580859665 -6.85530312338003 8.04752975353308 -14.90283287691311 8.04752975353308
S 616.1605561011575 660.9905921239425 616.1605561011575 632.9732663153459
s 6.85530312338003 -8.04752975353308 14.90283287691311 -8.04752975353308
S 645.9662218549836 604.9559405067492 645.9662218549836 632.9732663153459
z" fill="none" stroke="none"></path>
<circle cx="0" cy="0" r="7.322088775703956" fill="#0abeff">
  <animateMotion begin="-2.70965442266885s" dur="10s" repeatCount="indefinite">
    <mpath xlink:href="#path18"></mpath>
  </animateMotion>
</circle><path id="path19" d="M 798.7589996902084 746.1839504616452
c 0 20.95009360597811 -5.1260867333776226 6.017580078312862 -11.143666811690485 6.017580078312862
S 776.4716660668273 767.1340440676233 776.4716660668273 746.1839504616452
s 5.1260867333776226 -6.017580078312862 11.143666811690485 -6.017580078312862
S 798.7589996902084 725.233856855667 798.7589996902084 746.1839504616452
z" fill="none" stroke="none"></path>
<circle cx="0" cy="0" r="6.64027482751252" fill="#5271ff">
  <animateMotion begin="-5.52489397485211s" dur="10s" repeatCount="indefinite">
    <mpath xlink:href="#path19"></mpath>
  </animateMotion>
</circle><path id="path20" d="M 1030.074244686143 646.4314790390664
c 0 34.21658942516143 -8.372144221050135 9.8281693029719 -18.200313524022036 9.8281693029719
S 993.6736176380989 680.6480684642279 993.6736176380989 646.4314790390664
s 8.372144221050135 -9.8281693029719 18.200313524022036 -9.8281693029719
S 1030.074244686143 612.2148896139049 1030.074244686143 646.4314790390664
z" fill="none" stroke="none"></path>
<circle cx="0" cy="0" r="5.897038798149389" fill="#5271ff">
  <animateMotion begin="-5.542287681497191s" dur="10s" repeatCount="indefinite">
    <mpath xlink:href="#path20"></mpath>
  </animateMotion>
</circle><path id="path21" d="M 766.7446827889974 26.771389691167844
c 0 23.119735734092778 -5.6569566157886575 6.6407751576649465 -12.297731773453604 6.6407751576649465
S 742.1492192420901 49.891125425260626 742.1492192420901 26.771389691167844
s 5.6569566157886575 -6.6407751576649465 12.297731773453604 -6.6407751576649465
S 766.7446827889974 3.651653957075066 766.7446827889974 26.771389691167844
z" fill="none" stroke="none"></path>
<circle cx="0" cy="0" r="4.915494515263917" fill="#5271ff">
  <animateMotion begin="-9.044839622225407s" dur="10s" repeatCount="indefinite">
    <mpath xlink:href="#path21"></mpath>
  </animateMotion>
</circle><path id="path22" d="M 1208.7016439829633 163.83858377452358
c 0 26.11966320284744 -6.39098142197331 7.502456451881712 -13.89343787385502 7.502456451881712
S 1180.9147682352534 189.95824697737103 1180.9147682352534 163.83858377452358
s 6.39098142197331 -7.502456451881712 13.89343787385502 -7.502456451881712
S 1208.7016439829633 137.71892057167614 1208.7016439829633 163.83858377452358
z" fill="none" stroke="none"></path>
<circle cx="0" cy="0" r="5.12089192338852" fill="#0abeff">
  <animateMotion begin="-3.338250767945048s" dur="10s" repeatCount="indefinite">
    <mpath xlink:href="#path22"></mpath>
  </animateMotion>
</circle><path id="path23" d="M 764.5229208111678 498.7405417823596
c 0 34.621090852190456 -8.471117974472133 9.944355883075982 -18.415473857548115 9.944355883075982
S 727.6919730960715 533.3616326345501 727.6919730960715 498.7405417823596
s 8.471117974472133 -9.944355883075982 18.415473857548115 -9.944355883075982
S 764.5229208111678 464.1194509301692 764.5229208111678 498.7405417823596
z" fill="none" stroke="none"></path>
<circle cx="0" cy="0" r="6.592247292971914" fill="#0abeff">
  <animateMotion begin="-7.317029948542839s" dur="10s" repeatCount="indefinite">
    <mpath xlink:href="#path23"></mpath>
  </animateMotion>
</circle><path id="path24" d="M 1438.1967196734086 753.2597580459112
c 0 29.001126237887906 -7.096020249695976 8.330110727903973 -15.42613097759995 8.330110727903973
S 1407.3444577182086 782.2608842837991 1407.3444577182086 753.2597580459112
s 7.096020249695976 -8.330110727903973 15.42613097759995 -8.330110727903973
S 1438.1967196734086 724.2586318080233 1438.1967196734086 753.2597580459112
z" fill="none" stroke="none"></path>
<circle cx="0" cy="0" r="5.3125976598655615" fill="#0aff4b">
  <animateMotion begin="-5.801707003849619s" dur="10s" repeatCount="indefinite">
    <mpath xlink:href="#path24"></mpath>
  </animateMotion>
</circle><path id="path25" d="M 463.0172637952139 436.76465120113795
c 0 34.88907530529847 -8.536688638530475 10.021330140883602 -18.558018779414077 10.021330140883602
S 425.9012262363858 471.65372650643644 425.9012262363858 436.76465120113795
s 8.536688638530475 -10.021330140883602 18.558018779414077 -10.021330140883602
S 463.0172637952139 401.87557589583946 463.0172637952139 436.76465120113795
z" fill="none" stroke="none"></path>
<circle cx="0" cy="0" r="4.134391343135543" fill="#ff0cbe">
  <animateMotion begin="-7.473597991118619s" dur="10s" repeatCount="indefinite">
    <mpath xlink:href="#path25"></mpath>
  </animateMotion>
</circle><path id="path26" d="M 411.50751785535954 603.1601080690319
c 0 25.34352815148112 -6.201076037064528 7.279524043510534 -13.480600080575062 7.279524043510534
S 384.5463176942094 628.503636220513 384.5463176942094 603.1601080690319
s 6.201076037064528 -7.279524043510534 13.480600080575062 -7.279524043510534
S 411.50751785535954 577.8165799175508 411.50751785535954 603.1601080690319
z" fill="none" stroke="none"></path>
<circle cx="0" cy="0" r="5.9778674748460245" fill="#0abeff">
  <animateMotion begin="-9.38269077238861s" dur="10s" repeatCount="indefinite">
    <mpath xlink:href="#path26"></mpath>
  </animateMotion>
</circle><path id="path27" d="M 712.9268121833308 722.0121642273782
c 0 32.44167672513516 -7.937857071043709 9.318353952964355 -17.256211024008064 9.318353952964355
S 678.4143901353146 754.4538409525134 678.4143901353146 722.0121642273782
s 7.937857071043709 -9.318353952964355 17.256211024008064 -9.318353952964355
S 712.9268121833308 689.570487502243 712.9268121833308 722.0121642273782
z" fill="none" stroke="none"></path>
<circle cx="0" cy="0" r="4.035508166332499" fill="#ff0cbe">
  <animateMotion begin="-3.1507800219577775s" dur="10s" repeatCount="indefinite">
    <mpath xlink:href="#path27"></mpath>
  </animateMotion>
</circle><path id="path28" d="M 448.0515999626319 178.97782669393695
c 0 32.0491573031139 -7.841815084804464 9.205609012596547 -17.047424097401013 9.205609012596547
S 413.95675176782987 211.02698399705085 413.95675176782987 178.97782669393695
s 7.841815084804464 -9.205609012596547 17.047424097401013 -9.205609012596547
S 448.0515999626319 146.92866939082305 448.0515999626319 178.97782669393695
z" fill="none" stroke="none"></path>
<circle cx="0" cy="0" r="7.443392963648024" fill="#ff0cbe">
  <animateMotion begin="-4.750977827945784s" dur="10s" repeatCount="indefinite">
    <mpath xlink:href="#path28"></mpath>
  </animateMotion>
</circle><path id="path29" d="M 784.5375196325701 262.6180713562557
c 0 20.929362745585205 -5.1210142888134005 6.011625469476601 -11.13263975829 6.011625469476601
S 762.2722401159901 283.5474341018409 762.2722401159901 262.6180713562557
s 5.1210142888134005 -6.011625469476601 11.13263975829 -6.011625469476601
S 784.5375196325701 241.68870861067052 784.5375196325701 262.6180713562557
z" fill="none" stroke="none"></path>
<circle cx="0" cy="0" r="6.380641551717587" fill="#0aff4b">
  <animateMotion begin="-7.186559929898397s" dur="10s" repeatCount="indefinite">
    <mpath xlink:href="#path29"></mpath>
  </animateMotion>
</circle><path id="path30" d="M 465.22066122756996 580.3812969824548
c 0 34.919505496848664 -8.544134323697014 10.030070727818234 -18.574205051515246 10.030070727818234
S 428.07225112453943 615.3008024793035 428.07225112453943 580.3812969824548
s 8.544134323697014 -10.030070727818234 18.574205051515246 -10.030070727818234
S 465.22066122756996 545.4617914856062 465.22066122756996 580.3812969824548
z" fill="none" stroke="none"></path>
<circle cx="0" cy="0" r="4.56412675210744" fill="#0aff4b">
  <animateMotion begin="-8.670606986510005s" dur="10s" repeatCount="indefinite">
    <mpath xlink:href="#path30"></mpath>
  </animateMotion>
</circle><path id="path31" d="M 883.9861683779209 611.3474566207061
c 0 22.34994727283048 -5.468604119947883 6.419665706025776 -11.888269825973659 6.419665706025776
S 860.2096287259735 633.6974038935366 860.2096287259735 611.3474566207061
s 5.468604119947883 -6.419665706025776 11.888269825973659 -6.419665706025776
S 883.9861683779209 588.9975093478756 883.9861683779209 611.3474566207061
z" fill="none" stroke="none"></path>
<circle cx="0" cy="0" r="4.252181201371776" fill="#ff0cbe">
  <animateMotion begin="-6.497665570635358s" dur="10s" repeatCount="indefinite">
    <mpath xlink:href="#path31"></mpath>
  </animateMotion>
</circle><path id="path32" d="M 852.4626358050178 447.8447986072965
c 0 30.490814216306948 -7.460518372075104 8.757999828088167 -16.21851820016327 8.757999828088167
S 820.0255994046912 478.33561282360347 820.0255994046912 447.8447986072965
s 7.460518372075104 -8.757999828088167 16.21851820016327 -8.757999828088167
S 852.4626358050178 417.3539843909896 852.4626358050178 447.8447986072965
z" fill="none" stroke="none"></path>
<circle cx="0" cy="0" r="5.3714296687323495" fill="#0abeff">
  <animateMotion begin="-8.547007869443226s" dur="10s" repeatCount="indefinite">
    <mpath xlink:href="#path32"></mpath>
  </animateMotion>
</circle><path id="path33" d="M 1389.8750352134805 395.78913681856136
c 0 30.87180152719911 -7.553738671548718 8.867432353557192 -16.42117102510591 8.867432353557192
S 1357.0326931632687 426.6609383457605 1357.0326931632687 395.78913681856136
s 7.553738671548718 -8.867432353557192 16.42117102510591 -8.867432353557192
S 1389.8750352134805 364.91733529136224 1389.8750352134805 395.78913681856136
z" fill="none" stroke="none"></path>
<circle cx="0" cy="0" r="4.673562450573726" fill="#0aff4b">
  <animateMotion begin="-5.926543357892022s" dur="10s" repeatCount="indefinite">
    <mpath xlink:href="#path33"></mpath>
  </animateMotion>
</circle><path id="path34" d="M 1400.5441291146612 451.6347922456994
c 0 22.208702019191023 -5.434044111078654 6.3790952608314635 -11.813139371910118 6.3790952608314635
S 1376.9178503708408 473.8434942648904 1376.9178503708408 451.6347922456994
s 5.434044111078654 -6.3790952608314635 11.813139371910118 -6.3790952608314635
S 1400.5441291146612 429.42609022650834 1400.5441291146612 451.6347922456994
z" fill="none" stroke="none"></path>
<circle cx="0" cy="0" r="4.6943750725372775" fill="#0abeff">
  <animateMotion begin="-7.71432953853969s" dur="10s" repeatCount="indefinite">
    <mpath xlink:href="#path34"></mpath>
  </animateMotion>
</circle><path id="path35" d="M 1283.0074391789556 548.899778976993
c 0 23.792013033058755 -5.821449997450546 6.833876083963685 -12.65532608141423 6.833876083963685
S 1257.6967870161272 572.6917920100518 1257.6967870161272 548.899778976993
s 5.821449997450546 -6.833876083963685 12.65532608141423 -6.833876083963685
S 1283.0074391789556 525.1077659439343 1283.0074391789556 548.899778976993
z" fill="none" stroke="none"></path>
<circle cx="0" cy="0" r="6.815896023172899" fill="#0aff4b">
  <animateMotion begin="-6.819394771734131s" dur="10s" repeatCount="indefinite">
    <mpath xlink:href="#path35"></mpath>
  </animateMotion>
</circle><path id="path36" d="M 696.0988358856717 597.3555749026001
c 0 30.976158190139177 -7.579272748651074 8.897407139720828 -16.4766798883719 8.897407139720828
S 663.1454761089279 628.3317330927392 663.1454761089279 597.3555749026001
s 7.579272748651074 -8.897407139720828 16.4766798883719 -8.897407139720828
S 696.0988358856717 566.379416712461 696.0988358856717 597.3555749026001
z" fill="none" stroke="none"></path>
<circle cx="0" cy="0" r="7.2483440436417865" fill="#0abeff">
  <animateMotion begin="-0.8066602289227864s" dur="10s" repeatCount="indefinite">
    <mpath xlink:href="#path36"></mpath>
  </animateMotion>
</circle><path id="path37" d="M 64.23294093529479 611.5533999127721
c 0 23.31351043726947 -5.704369575076572 6.696433849002934 -12.400803424079506 6.696433849002934
S 39.43133408713578 634.8669103500415 39.43133408713578 611.5533999127721
s 5.704369575076572 -6.696433849002934 12.400803424079506 -6.696433849002934
S 64.23294093529479 588.2398894755027 64.23294093529479 611.5533999127721
z" fill="none" stroke="none"></path>
<circle cx="0" cy="0" r="6.06184305261944" fill="#5271ff">
  <animateMotion begin="-1.0948215130933292s" dur="10s" repeatCount="indefinite">
    <mpath xlink:href="#path37"></mpath>
  </animateMotion>
</circle><path id="path38" d="M 816.6052782134745 21.29047121838058
c 0 23.23883940686868 -5.686099003808294 6.674985787079302 -12.361084790887595 6.674985787079302
S 791.8831086316993 44.529310625249266 791.8831086316993 21.29047121838058
s 5.686099003808294 -6.674985787079302 12.361084790887595 -6.674985787079302
S 816.6052782134745 -1.9483681884881001 816.6052782134745 21.29047121838058
z" fill="none" stroke="none"></path>
<circle cx="0" cy="0" r="4.9952014725461895" fill="#5271ff">
  <animateMotion begin="-5.415183306631038s" dur="10s" repeatCount="indefinite">
    <mpath xlink:href="#path38"></mpath>
  </animateMotion>
</circle><path id="path39" d="M 107.82623846024002 505.625632687814
c 0 34.238907986426156 -8.37760514561491 9.834579953547939 -18.21218509916285 9.834579953547939
S 71.40186826191432 539.8645406742402 71.40186826191432 505.625632687814
s 8.37760514561491 -9.834579953547939 18.21218509916285 -9.834579953547939
S 107.82623846024002 471.38672470138783 107.82623846024002 505.625632687814
z" fill="none" stroke="none"></path>
<circle cx="0" cy="0" r="6.933290617343495" fill="#0aff4b">
  <animateMotion begin="-3.9137074507603975s" dur="10s" repeatCount="indefinite">
    <mpath xlink:href="#path39"></mpath>
  </animateMotion>
</circle><path id="path40" d="M 1344.4696925118249 532.0416219911268
c 0 26.831960675674544 -6.56526697383526 7.707052534502263 -14.272319508337523 7.707052534502263
S 1315.92505349515 558.8735826668013 1315.92505349515 532.0416219911268
s 6.56526697383526 -7.707052534502263 14.272319508337523 -7.707052534502263
S 1344.4696925118249 505.20966131545225 1344.4696925118249 532.0416219911268
z" fill="none" stroke="none"></path>
<circle cx="0" cy="0" r="4.817576633950084" fill="#0abeff">
  <animateMotion begin="-4.2411687403872484s" dur="10s" repeatCount="indefinite">
    <mpath xlink:href="#path40"></mpath>
  </animateMotion>
</circle><path id="path41" d="M 742.613892214627 251.8166250356435
c 0 30.91720555743382 -7.5648481683082744 8.880473936709715 -16.44532210501799 8.880473936709715
S 709.7232480045909 282.73383059307736 709.7232480045909 251.8166250356435
s 7.5648481683082744 -8.880473936709715 16.44532210501799 -8.880473936709715
S 742.613892214627 220.8994194782097 742.613892214627 251.8166250356435
z" fill="none" stroke="none"></path>
<circle cx="0" cy="0" r="6.586538116059583" fill="#ff0cbe">
  <animateMotion begin="-6.798829419783747s" dur="10s" repeatCount="indefinite">
    <mpath xlink:href="#path41"></mpath>
  </animateMotion>
</circle><path id="path42" d="M 149.02196216072616 682.8997303237486
c 0 30.01187394211467 -7.343330858176993 8.620431876990384 -15.963762735167377 8.620431876990384
S 117.09443669039142 712.9116042658633 117.09443669039142 682.8997303237486
s 7.343330858176993 -8.620431876990384 15.963762735167377 -8.620431876990384
S 149.02196216072616 652.8878563816339 149.02196216072616 682.8997303237486
z" fill="none" stroke="none"></path>
<circle cx="0" cy="0" r="5.438703054024143" fill="#5271ff">
  <animateMotion begin="-5.073473987112029s" dur="10s" repeatCount="indefinite">
    <mpath xlink:href="#path42"></mpath>
  </animateMotion>
</circle><path id="path43" d="M 1004.4494694215251 427.4742693207164
c 0 25.507402146521205 -6.241172865638166 7.326594233575239 -13.567767099213405 7.326594233575239
S 977.3139352230984 452.9816714672376 977.3139352230984 427.4742693207164
s 6.241172865638166 -7.326594233575239 13.567767099213405 -7.326594233575239
S 1004.4494694215251 401.9668671741952 1004.4494694215251 427.4742693207164
z" fill="none" stroke="none"></path>
<circle cx="0" cy="0" r="6.571525518061899" fill="#0abeff">
  <animateMotion begin="-8.75715598304257s" dur="10s" repeatCount="indefinite">
    <mpath xlink:href="#path43"></mpath>
  </animateMotion>
</circle><path id="path44" d="M 1222.209980784909 387.9708214704165
c 0 22.00350933439275 -5.38383739033014 6.320156936474514 -11.703994326804654 6.320156936474514
S 1198.8019921312998 409.97433080480926 1198.8019921312998 387.9708214704165
s 5.38383739033014 -6.320156936474514 11.703994326804654 -6.320156936474514
S 1222.209980784909 365.9673121360238 1222.209980784909 387.9708214704165
z" fill="none" stroke="none"></path>
<circle cx="0" cy="0" r="5.237338232961586" fill="#ff0cbe">
  <animateMotion begin="-0.579852278461892s" dur="10s" repeatCount="indefinite">
    <mpath xlink:href="#path44"></mpath>
  </animateMotion>
</circle><path id="path45" d="M 1138.6014579054965 732.8720552430037
c 0 35.32467845488338 -8.643272387896998 10.14645019448778 -18.789722582384776 10.14645019448778
S 1101.0220127407272 768.1967336978871 1101.0220127407272 732.8720552430037
s 8.643272387896998 -10.14645019448778 18.789722582384776 -10.14645019448778
S 1138.6014579054965 697.5473767881203 1138.6014579054965 732.8720552430037
z" fill="none" stroke="none"></path>
<circle cx="0" cy="0" r="5.3322431162539825" fill="#5271ff">
  <animateMotion begin="-5.3643104078290405s" dur="10s" repeatCount="indefinite">
    <mpath xlink:href="#path45"></mpath>
  </animateMotion>
</circle><path id="path46" d="M 366.33578266344995 681.9148845696121
c 0 20.057322276694943 -4.90764268472323 5.761145760327271 -10.6687884450505 5.761145760327271
S 344.99820577334896 701.972206846307 344.99820577334896 681.9148845696121
s 4.90764268472323 -5.761145760327271 10.6687884450505 -5.761145760327271
S 366.33578266344995 661.8575622929172 366.33578266344995 681.9148845696121
z" fill="none" stroke="none"></path>
<circle cx="0" cy="0" r="4.574044276860299" fill="#0aff4b">
  <animateMotion begin="-9.20191673426513s" dur="10s" repeatCount="indefinite">
    <mpath xlink:href="#path46"></mpath>
  </animateMotion>
</circle><path id="path47" d="M 614.100178664344 253.44028358125212
c 0 35.003503005802926 -8.564686905675183 10.054197671879566 -18.61888457755475 10.054197671879566
S 576.8624095092346 288.44378658705506 576.8624095092346 253.44028358125212
s 8.564686905675183 -10.054197671879566 18.61888457755475 -10.054197671879566
S 614.100178664344 218.43678057544918 614.100178664344 253.44028358125212
z" fill="none" stroke="none"></path>
<circle cx="0" cy="0" r="5.467851576572453" fill="#ff0cbe">
  <animateMotion begin="-6.496651898834889s" dur="10s" repeatCount="indefinite">
    <mpath xlink:href="#path47"></mpath>
  </animateMotion>
</circle><path id="path48" d="M 808.0154446456967 740.8852858907471
c 0 20.755595258735983 -5.07849671224391 5.961713531764591 -11.040210244008502 5.961713531764591
S 785.9350241576798 761.6408811494831 785.9350241576798 740.8852858907471
s 5.07849671224391 -5.961713531764591 11.040210244008502 -5.961713531764591
S 808.0154446456967 720.1296906320111 808.0154446456967 740.8852858907471
z" fill="none" stroke="none"></path>
<circle cx="0" cy="0" r="7.242413999032315" fill="#0abeff">
  <animateMotion begin="-9.585540896957056s" dur="10s" repeatCount="indefinite">
    <mpath xlink:href="#path48"></mpath>
  </animateMotion>
</circle><path id="path49" d="M 902.3614376219607 133.07571091098302
c 0 23.513260513173357 -5.753244593648799 6.753808870805113 -12.507053464453913 6.753808870805113
S 877.347330693053 156.58897142415637 877.347330693053 133.07571091098302
s 5.753244593648799 -6.753808870805113 12.507053464453913 -6.753808870805113
S 902.3614376219607 109.56245039780967 902.3614376219607 133.07571091098302
z" fill="none" stroke="none"></path>
<circle cx="0" cy="0" r="6.18788188992064" fill="#5271ff">
  <animateMotion begin="-4.087982018421412s" dur="10s" repeatCount="indefinite">
    <mpath xlink:href="#path49"></mpath>
  </animateMotion>
</circle><path id="path50" d="M 1229.9897434502877 615.1377629915232
c 0 23.569328288178355 -5.766963304554277 6.769913444476761 -12.536876749031038 6.769913444476761
S 1204.9159899522256 638.7070912797016 1204.9159899522256 615.1377629915232
s 5.766963304554277 -6.769913444476761 12.536876749031038 -6.769913444476761
S 1229.9897434502877 591.5684347033449 1229.9897434502877 615.1377629915232
z" fill="none" stroke="none"></path>
<circle cx="0" cy="0" r="6.119767757085499" fill="#ff0cbe">
  <animateMotion begin="-1.843732860104741s" dur="10s" repeatCount="indefinite">
    <mpath xlink:href="#path50"></mpath>
  </animateMotion>
</circle><path id="path51" d="M 853.8890326809836 353.99719000211456
c 0 30.167811575288624 -7.381485810974875 8.665222473753115 -16.04670828472799 8.665222473753115
S 821.7956161115277 384.1650015774032 821.7956161115277 353.99719000211456
s 7.381485810974875 -8.665222473753115 16.04670828472799 -8.665222473753115
S 853.8890326809836 323.82937842682594 853.8890326809836 353.99719000211456
z" fill="none" stroke="none"></path>
<circle cx="0" cy="0" r="4.493788847966495" fill="#ff0cbe">
  <animateMotion begin="-0.858838515595155s" dur="10s" repeatCount="indefinite">
    <mpath xlink:href="#path51"></mpath>
  </animateMotion>
</circle><path id="path52" d="M 876.0142215419849 412.7729659568533
c 0 22.38633824491148 -5.477508293967702 6.430118432049042 -11.907626726016744 6.430118432049042
S 852.1989680899514 435.15930420176477 852.1989680899514 412.7729659568533
s 5.477508293967702 -6.430118432049042 11.907626726016744 -6.430118432049042
S 876.0142215419849 390.3866277119418 876.0142215419849 412.7729659568533
z" fill="none" stroke="none"></path>
<circle cx="0" cy="0" r="5.099798617988226" fill="#0abeff">
  <animateMotion begin="-1.4058770991159641s" dur="10s" repeatCount="indefinite">
    <mpath xlink:href="#path52"></mpath>
  </animateMotion>
</circle><path id="path53" d="M 1250.2971712512397 214.68823094051203
c 0 26.95459446133334 -6.5952731128794335 7.74227713251064 -14.337550245390073 7.74227713251064
S 1221.6220707604596 241.64282540184536 1221.6220707604596 214.68823094051203
s 6.5952731128794335 -7.74227713251064 14.337550245390073 -7.74227713251064
S 1250.2971712512397 187.7336364791787 1250.2971712512397 214.68823094051203
z" fill="none" stroke="none"></path>
<circle cx="0" cy="0" r="5.172702850770371" fill="#0aff4b">
  <animateMotion begin="-1.9068165602516896s" dur="10s" repeatCount="indefinite">
    <mpath xlink:href="#path53"></mpath>
  </animateMotion>
</circle><path id="path54" d="M 119.86723802331991 149.08552511464896
c 0 25.573034283917117 -6.257231792873336 7.3454460177208745 -13.60267781059421 7.3454460177208745
S 92.66188240213148 174.65855939856607 92.66188240213148 149.08552511464896
s 6.257231792873336 -7.3454460177208745 13.60267781059421 -7.3454460177208745
S 119.86723802331991 123.51249083073185 119.86723802331991 149.08552511464896
z" fill="none" stroke="none"></path>
<circle cx="0" cy="0" r="5.2038739392563205" fill="#ff0cbe">
  <animateMotion begin="-4.904847588461745s" dur="10s" repeatCount="indefinite">
    <mpath xlink:href="#path54"></mpath>
  </animateMotion>
</circle><path id="path55" d="M 401.49058472565275 319.94329195249907
c 0 30.496354693858386 -7.46187402083769 8.759591241852942 -16.221465262690632 8.759591241852942
S 369.0476542002715 350.43964664635746 369.0476542002715 319.94329195249907
s 7.46187402083769 -8.759591241852942 16.221465262690632 -8.759591241852942
S 401.49058472565275 289.4469372586407 401.49058472565275 319.94329195249907
z" fill="none" stroke="none"></path>
<circle cx="0" cy="0" r="4.621481617794886" fill="#ff0cbe">
  <animateMotion begin="-9.980608006887516s" dur="10s" repeatCount="indefinite">
    <mpath xlink:href="#path55"></mpath>
  </animateMotion>
</circle><path id="path56" d="M 1094.3271267417374 426.25182304423305
c 0 19.91341201741608 -4.872430600006061 5.719809834789724 -10.592240434795785 5.719809834789724
S 1073.142645872146 446.1652350616491 1073.142645872146 426.25182304423305
s 4.872430600006061 -5.719809834789724 10.592240434795785 -5.719809834789724
S 1094.3271267417374 406.33841102681697 1094.3271267417374 426.25182304423305
z" fill="none" stroke="none"></path>
<circle cx="0" cy="0" r="4.983761106905511" fill="#ff0cbe">
  <animateMotion begin="-4.286381164629319s" dur="10s" repeatCount="indefinite">
    <mpath xlink:href="#path56"></mpath>
  </animateMotion>
</circle><path id="path57" d="M 260.7006069481265 408.0144945651065
c 0 31.220810050299377 -7.639134374009421 8.9676794825328 -16.60681385654222 8.9676794825328
S 227.48697923504204 439.2353046154059 227.48697923504204 408.0144945651065
s 7.639134374009421 -8.9676794825328 16.60681385654222 -8.9676794825328
S 260.7006069481265 376.79368451480707 260.7006069481265 408.0144945651065
z" fill="none" stroke="none"></path>
<circle cx="0" cy="0" r="7.943676328854029" fill="#5271ff">
  <animateMotion begin="-3.2991659201634738s" dur="10s" repeatCount="indefinite">
    <mpath xlink:href="#path57"></mpath>
  </animateMotion>
</circle><path id="path58" d="M 881.0686811290333 651.1282677575581
c 0 27.562982598687668 -6.744134040104429 7.917026916644331 -14.661160956748759 7.917026916644331
S 851.7463592155358 678.6912503562457 851.7463592155358 651.1282677575581
s 6.744134040104429 -7.917026916644331 14.661160956748759 -7.917026916644331
S 881.0686811290333 623.5652851588704 881.0686811290333 651.1282677575581
z" fill="none" stroke="none"></path>
<circle cx="0" cy="0" r="4.952715040582086" fill="#5271ff">
  <animateMotion begin="-6.818807043351103s" dur="10s" repeatCount="indefinite">
    <mpath xlink:href="#path58"></mpath>
  </animateMotion>
</circle><path id="path59" d="M 1325.287320979016 697.3851130211299
c 0 33.70583839643329 -8.247173224659209 9.681464220252117 -17.928637444911327 9.681464220252117
S 1289.4300460891932 731.0909514175631 1289.4300460891932 697.3851130211299
s 8.247173224659209 -9.681464220252117 17.928637444911327 -9.681464220252117
S 1325.287320979016 663.6792746246966 1325.287320979016 697.3851130211299
z" fill="none" stroke="none"></path>
<circle cx="0" cy="0" r="6.382138735521288" fill="#0aff4b">
  <animateMotion begin="-3.3620993307488622s" dur="10s" repeatCount="indefinite">
    <mpath xlink:href="#path59"></mpath>
  </animateMotion>
</circle><path id="path60" d="M 752.9282928574189 267.2909921280227
c 0 36.25467406469456 -8.870824505191221 10.413576593050566 -19.284401098241787 10.413576593050566
S 714.3594906609353 303.54566619271725 714.3594906609353 267.2909921280227
s 8.870824505191221 -10.413576593050566 19.284401098241787 -10.413576593050566
S 752.9282928574189 231.03631806332814 752.9282928574189 267.2909921280227
z" fill="none" stroke="none"></path>
<circle cx="0" cy="0" r="5.803005224260411" fill="#0abeff">
  <animateMotion begin="-6.049346030076266s" dur="10s" repeatCount="indefinite">
    <mpath xlink:href="#path60"></mpath>
  </animateMotion>
</circle><path id="path61" d="M 985.5135687708141 240.2157002360029
c 0 21.913299216505944 -5.361764701911028 6.294245519634686 -11.656010221545714 6.294245519634686
S 962.2015483277228 262.1289994525088 962.2015483277228 240.2157002360029
s 5.361764701911028 -6.294245519634686 11.656010221545714 -6.294245519634686
S 985.5135687708141 218.30240101949695 985.5135687708141 240.2157002360029
z" fill="none" stroke="none"></path>
<circle cx="0" cy="0" r="7.205934744418589" fill="#0abeff">
  <animateMotion begin="-4.182288096544022s" dur="10s" repeatCount="indefinite">
    <mpath xlink:href="#path61"></mpath>
  </animateMotion>
</circle><path id="path62" d="M 1381.1777368644202 380.12872043957987
c 0 27.403362820221535 -6.705078136862715 7.871178682404058 -14.576256819266773 7.871178682404058
S 1352.0252232258867 407.5320832598014 1352.0252232258867 380.12872043957987
s 6.705078136862715 -7.871178682404058 14.576256819266773 -7.871178682404058
S 1381.1777368644202 352.7253576193583 1381.1777368644202 380.12872043957987
z" fill="none" stroke="none"></path>
<circle cx="0" cy="0" r="6.31312415038949" fill="#0aff4b">
  <animateMotion begin="-5.485700371768216s" dur="10s" repeatCount="indefinite">
    <mpath xlink:href="#path62"></mpath>
  </animateMotion>
</circle><path id="path63" d="M 1203.6937469610307 592.8575052029935
c 0 22.04670009851343 -5.394405343253285 6.332562794253858 -11.726968137507143 6.332562794253858
S 1180.2398106860164 614.9042053015069 1180.2398106860164 592.8575052029935
s 5.394405343253285 -6.332562794253858 11.726968137507143 -6.332562794253858
S 1203.6937469610307 570.8108051044801 1203.6937469610307 592.8575052029935
z" fill="none" stroke="none"></path>
<circle cx="0" cy="0" r="7.9273643565919745" fill="#0abeff">
  <animateMotion begin="-6.783914262847015s" dur="10s" repeatCount="indefinite">
    <mpath xlink:href="#path63"></mpath>
  </animateMotion>
</circle><path id="path64" d="M 221.6865404086444 606.1085561143041
c 0 23.744970266667867 -5.809939533333627 6.8203638000003455 -12.630303333333972 6.8203638000003455
S 196.42593374197642 629.853526380972 196.42593374197642 606.1085561143041
s 5.809939533333627 -6.8203638000003455 12.630303333333972 -6.8203638000003455
S 221.6865404086444 582.3635858476362 221.6865404086444 606.1085561143041
z" fill="none" stroke="none"></path>
<circle cx="0" cy="0" r="6.710778175397066" fill="#5271ff">
  <animateMotion begin="-8.72588061165006s" dur="10s" repeatCount="indefinite">
    <mpath xlink:href="#path64"></mpath>
  </animateMotion>
</circle><path id="path65" d="M 1234.4395704766116 678.2274802947886
c 0 32.22257683993292 -7.884247524664437 9.255421007214775 -17.13966853187921 9.255421007214775
S 1200.1602334128534 710.4500571347215 1200.1602334128534 678.2274802947886
s 7.884247524664437 -9.255421007214775 17.13966853187921 -9.255421007214775
S 1234.4395704766116 646.0049034548557 1234.4395704766116 678.2274802947886
z" fill="none" stroke="none"></path>
<circle cx="0" cy="0" r="5.926570415377758" fill="#0abeff">
  <animateMotion begin="-8.428981205710368s" dur="10s" repeatCount="indefinite">
    <mpath xlink:href="#path65"></mpath>
  </animateMotion>
</circle><path id="path66" d="M 279.2904881788752 384.6393887027878
c 0 35.916149679895504 -8.78799407061273 10.316340865501902 -19.104334936114633 10.316340865501902
S 241.0818183066459 420.5555383826833 241.0818183066459 384.6393887027878
s 8.78799407061273 -10.316340865501902 19.104334936114633 -10.316340865501902
S 279.2904881788752 348.7232390228923 279.2904881788752 384.6393887027878
z" fill="none" stroke="none"></path>
<circle cx="0" cy="0" r="6.045666864689761" fill="#ff0cbe">
  <animateMotion begin="-4.429719282641676s" dur="10s" repeatCount="indefinite">
    <mpath xlink:href="#path66"></mpath>
  </animateMotion>
</circle><path id="path67" d="M 191.4338277857999 39.46222124575516
c 0 36.82152226936798 -9.009521406334718 10.576394694392931 -19.58591610072765 10.576394694392931
S 152.26199558434462 76.28374351512315 152.26199558434462 39.46222124575516
s 9.009521406334718 -10.576394694392931 19.58591610072765 -10.576394694392931
S 191.4338277857999 2.6406989763871778 191.4338277857999 39.46222124575516
z" fill="none" stroke="none"></path>
<circle cx="0" cy="0" r="5.105772271267976" fill="#0abeff">
  <animateMotion begin="-2.07997696136905s" dur="10s" repeatCount="indefinite">
    <mpath xlink:href="#path67"></mpath>
  </animateMotion>
</circle><path id="path68" d="M 315.06771682188673 208.9670785785613
c 0 35.587808517352215 -8.707655275522349 10.222030106047978 -18.929685381570327 10.222030106047978
S 277.2083460587461 244.55488709591353 277.2083460587461 208.9670785785613
s 8.707655275522349 -10.222030106047978 18.929685381570327 -10.222030106047978
S 315.06771682188673 173.3792700612091 315.06771682188673 208.9670785785613
z" fill="none" stroke="none"></path>
<circle cx="0" cy="0" r="7.6780186913722375" fill="#0aff4b">
  <animateMotion begin="-2.688936235617281s" dur="10s" repeatCount="indefinite">
    <mpath xlink:href="#path68"></mpath>
  </animateMotion>
</circle><path id="path69" d="M 777.3436239023808 269.83537691892724
c 0 37.292047159898665 -9.12464983699648 10.711545460821958 -19.83619529781844 10.711545460821958
S 737.6712333067439 307.1274240788259 737.6712333067439 269.83537691892724
s 9.12464983699648 -10.711545460821958 19.83619529781844 -10.711545460821958
S 777.3436239023808 232.54332975902858 777.3436239023808 269.83537691892724
z" fill="none" stroke="none"></path>
<circle cx="0" cy="0" r="6.812849501244104" fill="#0abeff">
  <animateMotion begin="-2.4406360171162533s" dur="10s" repeatCount="indefinite">
    <mpath xlink:href="#path69"></mpath>
  </animateMotion>
</circle><path id="path70" d="M 185.9356518208104 564.4718914064356
c 0 23.671824829307514 -5.792042245468859 6.79935394033301 -12.59139618580187 6.79935394033301
S 160.75285944920665 588.1437162357431 160.75285944920665 564.4718914064356
s 5.792042245468859 -6.79935394033301 12.59139618580187 -6.79935394033301
S 185.9356518208104 540.8000665771281 185.9356518208104 564.4718914064356
z" fill="none" stroke="none"></path>
<circle cx="0" cy="0" r="6.8427148528481325" fill="#5271ff">
  <animateMotion begin="-0.6815894754360707s" dur="10s" repeatCount="indefinite">
    <mpath xlink:href="#path70"></mpath>
  </animateMotion>
</circle><path id="path71" d="M 545.3211771395763 653.8112876180588
c 0 37.11759438007971 -9.081964582359927 10.661436683639916 -19.743401265999843 10.661436683639916
S 505.8343746075766 690.9288819981385 505.8343746075766 653.8112876180588
s 9.081964582359927 -10.661436683639916 19.743401265999843 -10.661436683639916
S 545.3211771395763 616.6936932379791 545.3211771395763 653.8112876180588
z" fill="none" stroke="none"></path>
<circle cx="0" cy="0" r="5.813941374583137" fill="#ff0cbe">
  <animateMotion begin="-6.619817240694646s" dur="10s" repeatCount="indefinite">
    <mpath xlink:href="#path71"></mpath>
  </animateMotion>
</circle><path id="path72" d="M 413.5837742901317 469.77319283808157
c 0 21.644950620173525 -5.296104938978628 6.2171666674966515 -11.513271606475278 6.2171666674966515
S 390.5572310771812 491.4181434582551 390.5572310771812 469.77319283808157
s 5.296104938978628 -6.2171666674966515 11.513271606475278 -6.2171666674966515
S 413.5837742901317 448.12824221790805 413.5837742901317 469.77319283808157
z" fill="none" stroke="none"></path>
<circle cx="0" cy="0" r="4.023801225272391" fill="#0abeff">
  <animateMotion begin="-3.164537602076989s" dur="10s" repeatCount="indefinite">
    <mpath xlink:href="#path72"></mpath>
  </animateMotion>
</circle><path id="path73" d="M 1323.6640326539446 667.280195229264
c 0 29.651005412737803 -7.255033239286908 8.51677815046724 -15.771811389754149 8.51677815046724
S 1292.120409874436 696.9312006420018 1292.120409874436 667.280195229264
s 7.255033239286908 -8.51677815046724 15.771811389754149 -8.51677815046724
S 1323.6640326539446 637.6291898165262 1323.6640326539446 667.280195229264
z" fill="none" stroke="none"></path>
<circle cx="0" cy="0" r="7.575976161539347" fill="#0aff4b">
  <animateMotion begin="-3.3846609290263285s" dur="10s" repeatCount="indefinite">
    <mpath xlink:href="#path73"></mpath>
  </animateMotion>
</circle><path id="path74" d="M 167.45613585000342 475.307204000964
c 0 30.60132478789282 -7.487558192782284 8.78974222630964 -16.277300419091926 8.78974222630964
S 134.9015350118196 505.90852878885687 134.9015350118196 475.307204000964
s 7.487558192782284 -8.78974222630964 16.277300419091926 -8.78974222630964
S 167.45613585000342 444.70587921307117 167.45613585000342 475.307204000964
z" fill="none" stroke="none"></path>
<circle cx="0" cy="0" r="5.6404316122296825" fill="#ff0cbe">
  <animateMotion begin="-7.600365019408606s" dur="10s" repeatCount="indefinite">
    <mpath xlink:href="#path74"></mpath>
  </animateMotion>
</circle><path id="path75" d="M 1202.1148555391965 721.8160192748762
c 0 22.220104271234067 -5.43683402381259 6.382370375779998 -11.81920439959259 6.382370375779998
S 1178.4764467400114 744.0361235461103 1178.4764467400114 721.8160192748762
s 5.43683402381259 -6.382370375779998 11.81920439959259 -6.382370375779998
S 1202.1148555391965 699.5959150036422 1202.1148555391965 721.8160192748762
z" fill="none" stroke="none"></path>
<circle cx="0" cy="0" r="4.274922645316794" fill="#0aff4b">
  <animateMotion begin="-8.808277584112457s" dur="10s" repeatCount="indefinite">
    <mpath xlink:href="#path75"></mpath>
  </animateMotion>
</circle></g>
</svg>