<?xml version="1.0" encoding="utf-8"?>
<svg xmlns="http://www.w3.org/2000/svg" xmlns:xlink="http://www.w3.org/1999/xlink" style="margin: auto; background: rgb(241, 242, 243); display: block; z-index: 1; position: relative; shape-rendering: auto;" width="1440" height="709" preserveAspectRatio="xMidYMid" viewBox="0 0 1440 709">
<g transform=""><defs>
  <path id="path-i00s6lh8nkf-1" d="M-35 -35L35 -35L35 35L-35 35Z" fill="none" stroke="inherit" stroke-width="4.333333333333334" transform="scale(0.3)"></path>
  <path id="path-i00s6lh8nkf-2" d="M0 -37A37 37 0 0 1 0 37A37 37 0 0 1 0 -37" fill="none" stroke="inherit" stroke-width="4.333333333333334" transform="scale(0.3)"></path>
  <path id="path-i00s6lh8nkf-3" d="M0 -34.641L40 34.641L-40 34.641Z" fill="none" stroke="inherit" stroke-width="4.333333333333334" transform="scale(0.3)"></path>
</defs><path id="path0" d="M 58.853932625790115 485.2122978573498
c 0 42.79855998362071 -10.471988081098683 12.293203399550631 -22.765191480649314 12.293203399550631
S 13.323549664491487 528.0108578409705 13.323549664491487 485.2122978573498
s 10.471988081098683 -12.293203399550631 22.765191480649314 -12.293203399550631
S 58.853932625790115 442.41373787372913 58.853932625790115 485.2122978573498
z" fill="none" stroke="none"></path>
<use xlink:href="#path-i00s6lh8nkf-3" x="0" y="0" stroke="#0abeff">
  <animateMotion begin="-2.832598408739285s" dur="11.913282979664094s" keyPoints="0;1" keyTimes="0;1" repeatCount="indefinite" calcMode="linear">
    <mpath xlink:href="#path0"></mpath>
  </animateMotion>
</use><path id="path1" d="M 82.81005931630602 158.98769042106048
c 0 27.50652055948224 -6.730318860298845 7.900809096872559 -14.631127957171405 7.900809096872559
S 53.54780340196322 186.49421098054273 53.54780340196322 158.98769042106048
s 6.730318860298845 -7.900809096872559 14.631127957171405 -7.900809096872559
S 82.81005931630602 131.48116986157822 82.81005931630602 158.98769042106048
z" fill="none" stroke="none"></path>
<use xlink:href="#path-i00s6lh8nkf-2" x="0" y="0" stroke="#0aff4b">
  <animateMotion begin="-1.1839666762808843s" dur="15.238117333357257s" keyPoints="0;1" keyTimes="0;1" repeatCount="indefinite" calcMode="linear">
    <mpath xlink:href="#path1"></mpath>
  </animateMotion>
</use><path id="path2" d="M 101.11119080174436 679.1992361730992
c 0 29.891321219139847 -7.313833915321451 8.585805031029532 -15.899638946350983 8.585805031029532
S 69.31191290904238 709.090557392239 69.31191290904238 679.1992361730992
s 7.313833915321451 -8.585805031029532 15.899638946350983 -8.585805031029532
S 101.11119080174436 649.3079149539593 101.11119080174436 679.1992361730992
z" fill="none" stroke="none"></path>
<use xlink:href="#path-i00s6lh8nkf-3" x="0" y="0" stroke="#ff0cbe">
  <animateMotion begin="-0.7314566843267689s" dur="14.89678625645226s" keyPoints="1;0" keyTimes="0;1" repeatCount="indefinite" calcMode="linear">
    <mpath xlink:href="#path2"></mpath>
  </animateMotion>
</use><path id="path3" d="M 125.14716820392655 534.5259709268531
c 0 27.067080035197545 -6.622796178824931 7.7745868186205715 -14.397382997445503 7.7745868186205715
S 96.35240220903555 561.5930509620507 96.35240220903555 534.5259709268531
s 6.622796178824931 -7.7745868186205715 14.397382997445503 -7.7745868186205715
S 125.14716820392655 507.4588908916556 125.14716820392655 534.5259709268531
z" fill="none" stroke="none"></path>
<use xlink:href="#path-i00s6lh8nkf-2" x="0" y="0" stroke="#0abeff">
  <animateMotion begin="-3.299873559432517s" dur="11.665213744721676s" keyPoints="0;1" keyTimes="0;1" repeatCount="indefinite" calcMode="linear">
    <mpath xlink:href="#path3"></mpath>
  </animateMotion>
</use><path id="path4" d="M 132.70158224509828 317.5086918042092
c 0 57.340981757398815 -14.030240217235878 16.470281994146468 -30.500522211382346 16.470281994146468
S 71.70053782233357 374.84967356160803 71.70053782233357 317.5086918042092
s 14.030240217235878 -16.470281994146468 30.500522211382346 -16.470281994146468
S 132.70158224509828 260.1677100468104 132.70158224509828 317.5086918042092
z" fill="none" stroke="none"></path>
<use xlink:href="#path-i00s6lh8nkf-3" x="0" y="0" stroke="#0abeff">
  <animateMotion begin="-3.7176668924301493s" dur="16.092307776844756s" keyPoints="1;0" keyTimes="0;1" repeatCount="indefinite" calcMode="linear">
    <mpath xlink:href="#path4"></mpath>
  </animateMotion>
</use><path id="path5" d="M 173.98957760653008 78.83018636386318
c 0 46.94155450445579 -11.485699506409393 13.483212464045812 -24.968911970455206 13.483212464045812
S 124.05175366561967 125.77174086831897 124.05175366561967 78.83018636386318
s 11.485699506409393 -13.483212464045812 24.968911970455206 -13.483212464045812
S 173.98957760653008 31.88863185940739 173.98957760653008 78.83018636386318
z" fill="none" stroke="none"></path>
<use xlink:href="#path-i00s6lh8nkf-3" x="0" y="0" stroke="#0abeff">
  <animateMotion begin="-2.674651810023051s" dur="16.80489032445872s" keyPoints="0;1" keyTimes="0;1" repeatCount="indefinite" calcMode="linear">
    <mpath xlink:href="#path5"></mpath>
  </animateMotion>
</use><path id="path6" d="M 180.28335740442574 313.6407175992471
c 0 38.58820317025854 -9.441794392722832 11.083845591457239 -20.52563998418007 11.083845591457239
S 139.23207743606562 352.22892076950563 139.23207743606562 313.6407175992471
s 9.441794392722832 -11.083845591457239 20.52563998418007 -11.083845591457239
S 180.28335740442574 275.0525144289886 180.28335740442574 313.6407175992471
z" fill="none" stroke="none"></path>
<use xlink:href="#path-i00s6lh8nkf-1" x="0" y="0" stroke="#ff0cbe">
  <animateMotion begin="-4.75558580041368s" dur="13.066290356172267s" keyPoints="0;1" keyTimes="0;1" repeatCount="indefinite" calcMode="linear">
    <mpath xlink:href="#path6"></mpath>
  </animateMotion>
</use><path id="path7" d="M 204.5989031126199 240.08324624422522
c 0 48.951772227350894 -11.97756128967096 14.060615427005043 -26.038176716676006 14.060615427005043
S 152.52254967926785 289.0350184715761 152.52254967926785 240.08324624422522
s 11.97756128967096 -14.060615427005043 26.038176716676006 -14.060615427005043
S 204.5989031126199 191.13147401687434 204.5989031126199 240.08324624422522
z" fill="none" stroke="none"></path>
<use xlink:href="#path-i00s6lh8nkf-1" x="0" y="0" stroke="#ff0cbe">
  <animateMotion begin="-3.093008276613851s" dur="14.811295950841233s" keyPoints="1;0" keyTimes="0;1" repeatCount="indefinite" calcMode="linear">
    <mpath xlink:href="#path7"></mpath>
  </animateMotion>
</use><path id="path8" d="M 237.31699214802973 74.94403377376645
c 0 59.118101423124074 -14.465067369487803 16.98073125983351 -31.445798629321313 16.98073125983351
S 174.42539488938712 134.06213519689052 174.42539488938712 74.94403377376645
s 14.465067369487803 -16.98073125983351 31.445798629321313 -16.98073125983351
S 237.31699214802973 15.825932350642375 237.31699214802973 74.94403377376645
z" fill="none" stroke="none"></path>
<use xlink:href="#path-i00s6lh8nkf-1" x="0" y="0" stroke="#0aff4b">
  <animateMotion begin="-4.47620664525774s" dur="12.462426503606657s" keyPoints="0;1" keyTimes="0;1" repeatCount="indefinite" calcMode="linear">
    <mpath xlink:href="#path8"></mpath>
  </animateMotion>
</use><path id="path9" d="M 252.070417815702 456.6718933377585
c 0 55.71543590666088 -13.632500275034044 16.003369888083444 -29.635870163117488 16.003369888083444
S 192.79867748946702 512.3873292444193 192.79867748946702 456.6718933377585
s 13.632500275034044 -16.003369888083444 29.635870163117488 -16.003369888083444
S 252.070417815702 400.9564574310976 252.070417815702 456.6718933377585
z" fill="none" stroke="none"></path>
<use xlink:href="#path-i00s6lh8nkf-2" x="0" y="0" stroke="#ff0cbe">
  <animateMotion begin="-0.83390941974396s" dur="15.21465698816116s" keyPoints="1;0" keyTimes="0;1" repeatCount="indefinite" calcMode="linear">
    <mpath xlink:href="#path9"></mpath>
  </animateMotion>
</use><path id="path10" d="M 251.5836319657794 346.3202665374795
c 0 40.82236529168636 -9.988451082008362 11.725573009314168 -21.71402409132253 11.725573009314168
S 208.15558378313435 387.14263182916585 208.15558378313435 346.3202665374795
s 9.988451082008362 -11.725573009314168 21.71402409132253 -11.725573009314168
S 251.5836319657794 305.4979012457931 251.5836319657794 346.3202665374795
z" fill="none" stroke="none"></path>
<use xlink:href="#path-i00s6lh8nkf-3" x="0" y="0" stroke="#0abeff">
  <animateMotion begin="-0.8710899865123223s" dur="19.452445231133414s" keyPoints="1;0" keyTimes="0;1" repeatCount="indefinite" calcMode="linear">
    <mpath xlink:href="#path10"></mpath>
  </animateMotion>
</use><path id="path11" d="M 275.65516257898946 633.7871223051565
c 0 18.932991034635016 -4.632540359538354 5.438199552501547 -10.070739912039901 5.438199552501547
S 255.51368275490964 652.7201133397915 255.51368275490964 633.7871223051565
s 4.632540359538354 -5.438199552501547 10.070739912039901 -5.438199552501547
S 275.65516257898946 614.8541312705214 275.65516257898946 633.7871223051565
z" fill="none" stroke="none"></path>
<use xlink:href="#path-i00s6lh8nkf-1" x="0" y="0" stroke="#0abeff">
  <animateMotion begin="-3.7789825618290074s" dur="12.943573334675474s" keyPoints="1;0" keyTimes="0;1" repeatCount="indefinite" calcMode="linear">
    <mpath xlink:href="#path11"></mpath>
  </animateMotion>
</use><path id="path12" d="M 304.1465592170697 202.50512259739196
c 0 56.186540016309166 -13.747770429522454 16.138687025961143 -29.8864574554836 16.138687025961143
S 244.3736443061025 258.6916626137011 244.3736443061025 202.50512259739196
s 13.747770429522454 -16.138687025961143 29.8864574554836 -16.138687025961143
S 304.1465592170697 146.3185825810828 304.1465592170697 202.50512259739196
z" fill="none" stroke="none"></path>
<use xlink:href="#path-i00s6lh8nkf-1" x="0" y="0" stroke="#0abeff">
  <animateMotion begin="-3.0214614809834295s" dur="10.808773115959468s" keyPoints="0;1" keyTimes="0;1" repeatCount="indefinite" calcMode="linear">
    <mpath xlink:href="#path12"></mpath>
  </animateMotion>
</use><path id="path13" d="M 324.92828413494163 337.7036450613431
c 0 62.26686859382224 -15.235510400616077 17.88516438333192 -33.120674783948 17.88516438333192
S 258.6869345670456 399.9705136551653 258.6869345670456 337.7036450613431
s 15.235510400616077 -17.88516438333192 33.120674783948 -17.88516438333192
S 324.92828413494163 275.4367764675209 324.92828413494163 337.7036450613431
z" fill="none" stroke="none"></path>
<use xlink:href="#path-i00s6lh8nkf-3" x="0" y="0" stroke="#0aff4b">
  <animateMotion begin="-1.1628586010382103s" dur="19.01772533700323s" keyPoints="1;0" keyTimes="0;1" repeatCount="indefinite" calcMode="linear">
    <mpath xlink:href="#path13"></mpath>
  </animateMotion>
</use><path id="path14" d="M 351.6260133618796 196.69182304137792
c 0 48.856831253385025 -11.954331051360164 14.03334514724889 -25.98767619860905 14.03334514724889
S 299.6506609646615 245.54865429476294 299.6506609646615 196.69182304137792
s 11.954331051360164 -14.03334514724889 25.98767619860905 -14.03334514724889
S 351.6260133618796 147.8349917879929 351.6260133618796 196.69182304137792
z" fill="none" stroke="none"></path>
<use xlink:href="#path-i00s6lh8nkf-2" x="0" y="0" stroke="#0aff4b">
  <animateMotion begin="-3.3522934533905993s" dur="15.475869670127437s" keyPoints="1;0" keyTimes="0;1" repeatCount="indefinite" calcMode="linear">
    <mpath xlink:href="#path14"></mpath>
  </animateMotion>
</use><path id="path15" d="M 364.96069427829354 46.47190935777232
c 0 41.59004328732626 -10.17628718732451 11.946076263380949 -22.122363450705457 11.946076263380949
S 320.71596737688265 88.06195264509859 320.71596737688265 46.47190935777232
s 10.17628718732451 -11.946076263380949 22.122363450705457 -11.946076263380949
S 364.96069427829354 4.881866070446058 364.96069427829354 46.47190935777232
z" fill="none" stroke="none"></path>
<use xlink:href="#path-i00s6lh8nkf-2" x="0" y="0" stroke="#0aff4b">
  <animateMotion begin="-3.62381646195292s" dur="19.726956226856508s" keyPoints="0;1" keyTimes="0;1" repeatCount="indefinite" calcMode="linear">
    <mpath xlink:href="#path15"></mpath>
  </animateMotion>
</use><path id="path16" d="M 381.42851054797774 66.28801022998488
c 0 43.490372799842945 -10.641261429748804 12.49191559144425 -23.133177021193056 12.49191559144425
S 335.16215650559167 109.77838302982782 335.16215650559167 66.28801022998488
s 10.641261429748804 -12.49191559144425 23.133177021193056 -12.49191559144425
S 381.42851054797774 22.797637430141933 381.42851054797774 66.28801022998488
z" fill="none" stroke="none"></path>
<use xlink:href="#path-i00s6lh8nkf-2" x="0" y="0" stroke="#0abeff">
  <animateMotion begin="-4.972748389711098s" dur="10.761597586854725s" keyPoints="0;1" keyTimes="0;1" repeatCount="indefinite" calcMode="linear">
    <mpath xlink:href="#path16"></mpath>
  </animateMotion>
</use><path id="path17" d="M 421.19036629645046 603.5629000379826
c 0 63.62041762555115 -15.56669792965613 18.273949743509373 -33.840647673165506 18.273949743509373
S 353.50907095011945 667.1833176635337 353.50907095011945 603.5629000379826
s 15.56669792965613 -18.273949743509373 33.840647673165506 -18.273949743509373
S 421.19036629645046 539.9424824124314 421.19036629645046 603.5629000379826
z" fill="none" stroke="none"></path>
<use xlink:href="#path-i00s6lh8nkf-3" x="0" y="0" stroke="#0abeff">
  <animateMotion begin="-1.3350477815275352s" dur="17.866648917642582s" keyPoints="1;0" keyTimes="0;1" repeatCount="indefinite" calcMode="linear">
    <mpath xlink:href="#path17"></mpath>
  </animateMotion>
</use><path id="path18" d="M 425.7099113002447 190.5652912074619
c 0 43.547704564821096 -10.65528941479665 12.508383226065634 -23.163672640862284 12.508383226065634
S 379.38256601852015 234.112995772283 379.38256601852015 190.5652912074619
s 10.65528941479665 -12.508383226065634 23.163672640862284 -12.508383226065634
S 425.7099113002447 147.01758664264082 425.7099113002447 190.5652912074619
z" fill="none" stroke="none"></path>
<use xlink:href="#path-i00s6lh8nkf-1" x="0" y="0" stroke="#ff0cbe">
  <animateMotion begin="-0.23303410691721704s" dur="14.322143385494186s" keyPoints="1;0" keyTimes="0;1" repeatCount="indefinite" calcMode="linear">
    <mpath xlink:href="#path18"></mpath>
  </animateMotion>
</use><path id="path19" d="M 437.54370527466466 374.3441656871615
c 0 20.175447142197164 -4.936545577346114 5.795075242971526 -10.73162082031764 5.795075242971526
S 416.0804636340294 394.51961282935866 416.0804636340294 374.3441656871615
s 4.936545577346114 -5.795075242971526 10.73162082031764 -5.795075242971526
S 437.54370527466466 354.1687185449643 437.54370527466466 374.3441656871615
z" fill="none" stroke="none"></path>
<use xlink:href="#path-i00s6lh8nkf-2" x="0" y="0" stroke="#ff0cbe">
  <animateMotion begin="-2.472487291168947s" dur="10.464240883252824s" keyPoints="1;0" keyTimes="0;1" repeatCount="indefinite" calcMode="linear">
    <mpath xlink:href="#path19"></mpath>
  </animateMotion>
</use><path id="path20" d="M 461.72682918822414 109.6509328451179
c 0 28.44905474230801 -6.960938926309406 8.171537000450174 -15.132475926759579 8.171537000450174
S 431.461877334705 138.09998758742591 431.461877334705 109.6509328451179
s 6.960938926309406 -8.171537000450174 15.132475926759579 -8.171537000450174
S 461.72682918822414 81.20187810280989 461.72682918822414 109.6509328451179
z" fill="none" stroke="none"></path>
<use xlink:href="#path-i00s6lh8nkf-1" x="0" y="0" stroke="#0aff4b">
  <animateMotion begin="-3.9975262751093443s" dur="18.283653805552472s" keyPoints="0;1" keyTimes="0;1" repeatCount="indefinite" calcMode="linear">
    <mpath xlink:href="#path20"></mpath>
  </animateMotion>
</use><path id="path21" d="M 512.0681745372063 57.880173489753766
c 0 59.86329596231296 -14.64740220354466 17.194776499813297 -31.84217870335796 17.194776499813297
S 448.38381713049046 117.74346945206673 448.38381713049046 57.880173489753766
s 14.64740220354466 -17.194776499813297 31.84217870335796 -17.194776499813297
S 512.0681745372063 -1.9831224725591952 512.0681745372063 57.880173489753766
z" fill="none" stroke="none"></path>
<use xlink:href="#path-i00s6lh8nkf-3" x="0" y="0" stroke="#0abeff">
  <animateMotion begin="-1.2594266054831893s" dur="11.59223522293316s" keyPoints="1;0" keyTimes="0;1" repeatCount="indefinite" calcMode="linear">
    <mpath xlink:href="#path21"></mpath>
  </animateMotion>
</use><path id="path22" d="M 518.6865507885963 125.49358585960428
c 0 62.991755382544966 -15.412876317005681 18.093376546050152 -33.506252863055835 18.093376546050152
S 451.67404506248454 188.48534124214925 451.67404506248454 125.49358585960428
s 15.412876317005681 -18.093376546050152 33.506252863055835 -18.093376546050152
S 518.6865507885963 62.501830477059315 518.6865507885963 125.49358585960428
z" fill="none" stroke="none"></path>
<use xlink:href="#path-i00s6lh8nkf-3" x="0" y="0" stroke="#0aff4b">
  <animateMotion begin="-3.0404764480836644s" dur="13.695604778071985s" keyPoints="1;0" keyTimes="0;1" repeatCount="indefinite" calcMode="linear">
    <mpath xlink:href="#path22"></mpath>
  </animateMotion>
</use><path id="path23" d="M 537.8252683656362 211.88110992658673
c 0 35.08094249617133 -8.583634866084473 10.07644092975134 -18.660075795835812 10.07644092975134
S 500.5051167739646 246.96205242275806 500.5051167739646 211.88110992658673
s 8.583634866084473 -10.07644092975134 18.660075795835812 -10.07644092975134
S 537.8252683656362 176.8001674304154 537.8252683656362 211.88110992658673
z" fill="none" stroke="none"></path>
<use xlink:href="#path-i00s6lh8nkf-1" x="0" y="0" stroke="#0aff4b">
  <animateMotion begin="-4.374521172570756s" dur="13.002364829083458s" keyPoints="1;0" keyTimes="0;1" repeatCount="indefinite" calcMode="linear">
    <mpath xlink:href="#path23"></mpath>
  </animateMotion>
</use><path id="path24" d="M 559.4225209115376 376.84102803759237
c 0 58.135421869270935 -14.224624499927993 16.69847223904591 -30.9230967389739 16.69847223904591
S 497.5763274335898 434.9764499068633 497.5763274335898 376.84102803759237
s 14.224624499927993 -16.69847223904591 30.9230967389739 -16.69847223904591
S 559.4225209115376 318.7056061683214 559.4225209115376 376.84102803759237
z" fill="none" stroke="none"></path>
<use xlink:href="#path-i00s6lh8nkf-2" x="0" y="0" stroke="#ff0cbe">
  <animateMotion begin="-2.5635854918068537s" dur="12.151248512287967s" keyPoints="0;1" keyTimes="0;1" repeatCount="indefinite" calcMode="linear">
    <mpath xlink:href="#path24"></mpath>
  </animateMotion>
</use><path id="path25" d="M 573.9070407674384 89.75448024928761
c 0 58.83788108536116 -14.396502818758579 16.90024243941225 -31.29674525817083 16.90024243941225
S 511.3135502510967 148.59236133464879 511.3135502510967 89.75448024928761
s 14.396502818758579 -16.90024243941225 31.29674525817083 -16.90024243941225
S 573.9070407674384 30.91659916392645 573.9070407674384 89.75448024928761
z" fill="none" stroke="none"></path>
<use xlink:href="#path-i00s6lh8nkf-2" x="0" y="0" stroke="#0aff4b">
  <animateMotion begin="-2.596752166703258s" dur="16.20580898654159s" keyPoints="0;1" keyTimes="0;1" repeatCount="indefinite" calcMode="linear">
    <mpath xlink:href="#path25"></mpath>
  </animateMotion>
</use><path id="path26" d="M 582.0749894885587 569.404363159856
c 0 19.371873555806793 -4.739926508335704 5.564261553263654 -10.304188061599358 5.564261553263654
S 561.46661336536 588.7762367156628 561.46661336536 569.404363159856
s 4.739926508335704 -5.564261553263654 10.304188061599358 -5.564261553263654
S 582.0749894885587 550.0324896040491 582.0749894885587 569.404363159856
z" fill="none" stroke="none"></path>
<use xlink:href="#path-i00s6lh8nkf-2" x="0" y="0" stroke="#0abeff">
  <animateMotion begin="-0.011251533924234725s" dur="18.742546854070948s" keyPoints="1;0" keyTimes="0;1" repeatCount="indefinite" calcMode="linear">
    <mpath xlink:href="#path26"></mpath>
  </animateMotion>
</use><path id="path27" d="M 618.706398049128 301.482033247996
c 0 27.62145260158332 -6.758440530174641 7.933821491944146 -14.692262022118786 7.933821491944146
S 589.3218740048903 329.10348584957933 589.3218740048903 301.482033247996
s 6.758440530174641 -7.933821491944146 14.692262022118786 -7.933821491944146
S 618.706398049128 273.8605806464127 618.706398049128 301.482033247996
z" fill="none" stroke="none"></path>
<use xlink:href="#path-i00s6lh8nkf-3" x="0" y="0" stroke="#ff0cbe">
  <animateMotion begin="-4.220997123110234s" dur="16.607066458844525s" keyPoints="0;1" keyTimes="0;1" repeatCount="indefinite" calcMode="linear">
    <mpath xlink:href="#path27"></mpath>
  </animateMotion>
</use><path id="path28" d="M 624.4546899621843 559.628779372571
c 0 22.46867915805295 -5.49765553867253 6.453769545398187 -11.951425084070717 6.453769545398187
S 600.5518397940428 582.097458530624 600.5518397940428 559.628779372571
s 5.49765553867253 -6.453769545398187 11.951425084070717 -6.453769545398187
S 624.4546899621843 537.160100214518 624.4546899621843 559.628779372571
z" fill="none" stroke="none"></path>
<use xlink:href="#path-i00s6lh8nkf-2" x="0" y="0" stroke="#ff0cbe">
  <animateMotion begin="-3.988911968592986s" dur="16.07134887577343s" keyPoints="1;0" keyTimes="0;1" repeatCount="indefinite" calcMode="linear">
    <mpath xlink:href="#path28"></mpath>
  </animateMotion>
</use><path id="path29" d="M 666.7464819448821 577.3207629673684
c 0 61.21109908281774 -14.977183818136254 17.58191143868169 -32.55909525681795 17.58191143868169
S 601.6282914312462 638.5318620501862 601.6282914312462 577.3207629673684
s 14.977183818136254 -17.58191143868169 32.55909525681795 -17.58191143868169
S 666.7464819448821 516.1096638845506 666.7464819448821 577.3207629673684
z" fill="none" stroke="none"></path>
<use xlink:href="#path-i00s6lh8nkf-3" x="0" y="0" stroke="#0aff4b">
  <animateMotion begin="-4.201975324513393s" dur="13.037249667814345s" keyPoints="1;0" keyTimes="0;1" repeatCount="indefinite" calcMode="linear">
    <mpath xlink:href="#path29"></mpath>
  </animateMotion>
</use><path id="path30" d="M 684.9104241139416 328.80567432642795
c 0 54.675922084984684 -13.378151148453696 15.704786130793472 -29.08293727924717 15.704786130793472
S 626.7445495554473 383.4815964114126 626.7445495554473 328.80567432642795
s 13.378151148453696 -15.704786130793472 29.08293727924717 -15.704786130793472
S 684.9104241139416 274.12975224144327 684.9104241139416 328.80567432642795
z" fill="none" stroke="none"></path>
<use xlink:href="#path-i00s6lh8nkf-1" x="0" y="0" stroke="#0aff4b">
  <animateMotion begin="-0.9146020278170452s" dur="12.699335965349142s" keyPoints="0;1" keyTimes="0;1" repeatCount="indefinite" calcMode="linear">
    <mpath xlink:href="#path30"></mpath>
  </animateMotion>
</use><path id="path31" d="M 722.7318205087562 262.4407570175277
c 0 64.50067886863042 -15.782080999771269 18.526790738861926 -34.308871738633194 18.526790738861926
S 654.1140770314897 326.9414358861581 654.1140770314897 262.4407570175277
s 15.782080999771269 -18.526790738861926 34.308871738633194 -18.526790738861926
S 722.7318205087562 197.94007814889727 722.7318205087562 262.4407570175277
z" fill="none" stroke="none"></path>
<use xlink:href="#path-i00s6lh8nkf-3" x="0" y="0" stroke="#ff0cbe">
  <animateMotion begin="-0.7666962246099862s" dur="11.988139056279387s" keyPoints="1;0" keyTimes="0;1" repeatCount="indefinite" calcMode="linear">
    <mpath xlink:href="#path31"></mpath>
  </animateMotion>
</use><path id="path32" d="M 741.7467442150885 526.2132845367058
c 0 64.6852092716128 -15.827232055820152 18.57979415248453 -34.407026208304686 18.57979415248453
S 672.932691798479 590.8984938083187 672.932691798479 526.2132845367058
s 15.827232055820152 -18.57979415248453 34.407026208304686 -18.57979415248453
S 741.7467442150885 461.52807526509304 741.7467442150885 526.2132845367058
z" fill="none" stroke="none"></path>
<use xlink:href="#path-i00s6lh8nkf-1" x="0" y="0" stroke="#0aff4b">
  <animateMotion begin="-0.7257515921864299s" dur="16.893229834296093s" keyPoints="1;0" keyTimes="0;1" repeatCount="indefinite" calcMode="linear">
    <mpath xlink:href="#path32"></mpath>
  </animateMotion>
</use><path id="path33" d="M 742.3125012840101 402.4811238829274
c 0 23.44124100244644 -5.735622798470937 6.733122415596317 -12.468745214067255 6.733122415596317
S 717.3750108558756 425.92236488537384 717.3750108558756 402.4811238829274
s 5.735622798470937 -6.733122415596317 12.468745214067255 -6.733122415596317
S 742.3125012840101 379.039882880481 742.3125012840101 402.4811238829274
z" fill="none" stroke="none"></path>
<use xlink:href="#path-i00s6lh8nkf-1" x="0" y="0" stroke="#ff0cbe">
  <animateMotion begin="-1.6316584104773513s" dur="18.60591975472833s" keyPoints="1;0" keyTimes="0;1" repeatCount="indefinite" calcMode="linear">
    <mpath xlink:href="#path33"></mpath>
  </animateMotion>
</use><path id="path34" d="M 762.5700697943446 549.3296608796958
c 0 45.53726170066426 -11.142095948034871 13.079851765084417 -24.221947713119288 13.079851765084417
S 714.1261743681059 594.8669225803601 714.1261743681059 549.3296608796958
s 11.142095948034871 -13.079851765084417 24.221947713119288 -13.079851765084417
S 762.5700697943446 503.7923991790315 762.5700697943446 549.3296608796958
z" fill="none" stroke="none"></path>
<use xlink:href="#path-i00s6lh8nkf-2" x="0" y="0" stroke="#0abeff">
  <animateMotion begin="-4.30806996393618s" dur="12.2200934901708s" keyPoints="0;1" keyTimes="0;1" repeatCount="indefinite" calcMode="linear">
    <mpath xlink:href="#path34"></mpath>
  </animateMotion>
</use><path id="path35" d="M 791.8645083724753 663.2158113828705
c 0 38.08497106913797 -9.318663133938013 10.939300200709843 -20.257963334647858 10.939300200709843
S 751.3485817031794 701.3007824520084 751.3485817031794 663.2158113828705
s 9.318663133938013 -10.939300200709843 20.257963334647858 -10.939300200709843
S 791.8645083724753 625.1308403137325 791.8645083724753 663.2158113828705
z" fill="none" stroke="none"></path>
<use xlink:href="#path-i00s6lh8nkf-2" x="0" y="0" stroke="#0abeff">
  <animateMotion begin="-1.9785057335317358s" dur="17.054644094765806s" keyPoints="0;1" keyTimes="0;1" repeatCount="indefinite" calcMode="linear">
    <mpath xlink:href="#path35"></mpath>
  </animateMotion>
</use><path id="path36" d="M 807.9762490302626 124.93920686378257
c 0 56.89899291775671 -13.922094011791534 16.343327752972673 -30.265421764764206 16.343327752972673
S 747.4454055007341 181.8381997815393 747.4454055007341 124.93920686378257
s 13.922094011791534 -16.343327752972673 30.265421764764206 -16.343327752972673
S 807.9762490302626 68.04021394602586 807.9762490302626 124.93920686378257
z" fill="none" stroke="none"></path>
<use xlink:href="#path-i00s6lh8nkf-2" x="0" y="0" stroke="#0aff4b">
  <animateMotion begin="-1.0740969473129658s" dur="16.76113548513606s" keyPoints="0;1" keyTimes="0;1" repeatCount="indefinite" calcMode="linear">
    <mpath xlink:href="#path36"></mpath>
  </animateMotion>
</use><path id="path37" d="M 827.3404100147139 293.2229622231047
c 0 31.63185838894488 -7.739710031337577 9.085746558526722 -16.8254565898643 9.085746558526722
S 793.6894968349853 324.85482061204954 793.6894968349853 293.2229622231047
s 7.739710031337577 -9.085746558526722 16.8254565898643 -9.085746558526722
S 827.3404100147139 261.5911038341598 827.3404100147139 293.2229622231047
z" fill="none" stroke="none"></path>
<use xlink:href="#path-i00s6lh8nkf-1" x="0" y="0" stroke="#ff0cbe">
  <animateMotion begin="-2.461971432508788s" dur="18.503399444642753s" keyPoints="0;1" keyTimes="0;1" repeatCount="indefinite" calcMode="linear">
    <mpath xlink:href="#path37"></mpath>
  </animateMotion>
</use><path id="path38" d="M 843.740822719646 601.0037751743951
c 0 41.12471070389518 -10.062429214782863 11.81241690431032 -21.874846119093185 11.81241690431032
S 799.9911304814597 642.1284858782902 799.9911304814597 601.0037751743951
s 10.062429214782863 -11.81241690431032 21.874846119093185 -11.81241690431032
S 843.740822719646 559.8790644704999 843.740822719646 601.0037751743951
z" fill="none" stroke="none"></path>
<use xlink:href="#path-i00s6lh8nkf-2" x="0" y="0" stroke="#0aff4b">
  <animateMotion begin="-4.517685301566148s" dur="14.299874881586128s" keyPoints="1;0" keyTimes="0;1" repeatCount="indefinite" calcMode="linear">
    <mpath xlink:href="#path38"></mpath>
  </animateMotion>
</use><path id="path39" d="M 865.7805271437634 640.5559512224047
c 0 48.39916215554623 -11.842348186995352 13.90188700212498 -25.74423518912033 13.90188700212498
S 814.2920567655227 688.955113377951 814.2920567655227 640.5559512224047
s 11.842348186995352 -13.90188700212498 25.74423518912033 -13.90188700212498
S 865.7805271437634 592.1567890668584 865.7805271437634 640.5559512224047
z" fill="none" stroke="none"></path>
<use xlink:href="#path-i00s6lh8nkf-1" x="0" y="0" stroke="#0abeff">
  <animateMotion begin="-2.3063636688296754s" dur="17.541256923097333s" keyPoints="0;1" keyTimes="0;1" repeatCount="indefinite" calcMode="linear">
    <mpath xlink:href="#path39"></mpath>
  </animateMotion>
</use><path id="path40" d="M 901.8769263125585 212.52360913968866
c 0 65.70487483851163 -16.07672469452944 18.87267681531717 -34.94940150984661 18.87267681531717
S 831.9781232928653 278.2284839782003 831.9781232928653 212.52360913968866
s 16.07672469452944 -18.87267681531717 34.94940150984661 -18.87267681531717
S 901.8769263125585 146.81873430117702 901.8769263125585 212.52360913968866
z" fill="none" stroke="none"></path>
<use xlink:href="#path-i00s6lh8nkf-3" x="0" y="0" stroke="#ff0cbe">
  <animateMotion begin="-0.5991974510436149s" dur="18.02713120202405s" keyPoints="0;1" keyTimes="0;1" repeatCount="indefinite" calcMode="linear">
    <mpath xlink:href="#path40"></mpath>
  </animateMotion>
</use><path id="path41" d="M 915.752416823274 365.68117417221794
c 0 59.26109601199249 -14.50005540718965 17.02180417365742 -31.52185958084707 17.02180417365742
S 852.7086976615799 424.94227018421043 852.7086976615799 365.68117417221794
s 14.50005540718965 -17.02180417365742 31.52185958084707 -17.02180417365742
S 915.752416823274 306.42007816022544 915.752416823274 365.68117417221794
z" fill="none" stroke="none"></path>
<use xlink:href="#path-i00s6lh8nkf-2" x="0" y="0" stroke="#ff0cbe">
  <animateMotion begin="-2.1950477409267566s" dur="12.096365982878757s" keyPoints="0;1" keyTimes="0;1" repeatCount="indefinite" calcMode="linear">
    <mpath xlink:href="#path41"></mpath>
  </animateMotion>
</use><path id="path42" d="M 944.7877856103464 331.8282269124007
c 0 64.62899522807403 -15.813477555805347 18.563647565510628 -34.37712512131598 18.563647565510628
S 876.0335353677144 396.4572221404747 876.0335353677144 331.8282269124007
s 15.813477555805347 -18.563647565510628 34.37712512131598 -18.563647565510628
S 944.7877856103464 267.19923168432666 944.7877856103464 331.8282269124007
z" fill="none" stroke="none"></path>
<use xlink:href="#path-i00s6lh8nkf-2" x="0" y="0" stroke="#ff0cbe">
  <animateMotion begin="-0.6209722165903053s" dur="15.506330992317787s" keyPoints="1;0" keyTimes="0;1" repeatCount="indefinite" calcMode="linear">
    <mpath xlink:href="#path42"></mpath>
  </animateMotion>
</use><path id="path43" d="M 942.8145425304185 31.27241429103859
c 0 37.818836708586076 -9.253545152100846 10.862857352466213 -20.11640250456706 10.862857352466213
S 902.5817375212844 69.09125099962466 902.5817375212844 31.27241429103859
s 9.253545152100846 -10.862857352466213 20.11640250456706 -10.862857352466213
S 942.8145425304185 -6.546422417547486 942.8145425304185 31.27241429103859
z" fill="none" stroke="none"></path>
<use xlink:href="#path-i00s6lh8nkf-2" x="0" y="0" stroke="#0abeff">
  <animateMotion begin="-1.7757905703296284s" dur="14.622008251411426s" keyPoints="0;1" keyTimes="0;1" repeatCount="indefinite" calcMode="linear">
    <mpath xlink:href="#path43"></mpath>
  </animateMotion>
</use><path id="path44" d="M 968.800492725599 675.8047423781109
c 0 37.88317998700813 -9.269288720225392 10.881338932438505 -20.150627652663896 10.881338932438505
S 928.4992374202714 713.687922365119 928.4992374202714 675.8047423781109
s 9.269288720225392 -10.881338932438505 20.150627652663896 -10.881338932438505
S 968.800492725599 637.9215623911027 968.800492725599 675.8047423781109
z" fill="none" stroke="none"></path>
<use xlink:href="#path-i00s6lh8nkf-1" x="0" y="0" stroke="#0abeff">
  <animateMotion begin="-1.937052309370807s" dur="12.93712934973609s" keyPoints="0;1" keyTimes="0;1" repeatCount="indefinite" calcMode="linear">
    <mpath xlink:href="#path44"></mpath>
  </animateMotion>
</use><path id="path45" d="M 985.2899692265538 54.52785356247987
c 0 37.07431715186282 -9.071375473328136 10.649005990428682 -19.720381463756816 10.649005990428682
S 945.8492062990402 91.60217071434269 945.8492062990402 54.52785356247987
s 9.071375473328136 -10.649005990428682 19.720381463756816 -10.649005990428682
S 985.2899692265538 17.453536410617048 985.2899692265538 54.52785356247987
z" fill="none" stroke="none"></path>
<use xlink:href="#path-i00s6lh8nkf-3" x="0" y="0" stroke="#0abeff">
  <animateMotion begin="-1.1760203632017163s" dur="11.350292717482823s" keyPoints="0;1" keyTimes="0;1" repeatCount="indefinite" calcMode="linear">
    <mpath xlink:href="#path45"></mpath>
  </animateMotion>
</use><path id="path46" d="M 1020.5188321776668 564.5892642046251
c 0 38.08580968373318 -9.318868326870884 10.93954107937017 -20.258409406241054 10.93954107937017
S 980.0020133651847 602.6750738883583 980.0020133651847 564.5892642046251
s 9.318868326870884 -10.93954107937017 20.258409406241054 -10.93954107937017
S 1020.5188321776668 526.503454520892 1020.5188321776668 564.5892642046251
z" fill="none" stroke="none"></path>
<use xlink:href="#path-i00s6lh8nkf-1" x="0" y="0" stroke="#0aff4b">
  <animateMotion begin="-3.758643576758879s" dur="10.806002211792054s" keyPoints="0;1" keyTimes="0;1" repeatCount="indefinite" calcMode="linear">
    <mpath xlink:href="#path46"></mpath>
  </animateMotion>
</use><path id="path47" d="M 1043.706144817028 657.662545633815
c 0 54.93917654076345 -13.44256447273999 15.780401772346949 -29.222966245086937 15.780401772346949
S 985.260212326854 712.6017221745784 985.260212326854 657.662545633815
s 13.44256447273999 -15.780401772346949 29.222966245086937 -15.780401772346949
S 1043.706144817028 602.7233690930515 1043.706144817028 657.662545633815
z" fill="none" stroke="none"></path>
<use xlink:href="#path-i00s6lh8nkf-2" x="0" y="0" stroke="#0abeff">
  <animateMotion begin="-2.7712221003910265s" dur="18.23679338563856s" keyPoints="1;0" keyTimes="0;1" repeatCount="indefinite" calcMode="linear">
    <mpath xlink:href="#path47"></mpath>
  </animateMotion>
</use><path id="path48" d="M 1042.86602655773 592.5042670806489
c 0 24.686193005017344 -6.040238713993605 7.090715012079451 -13.130953726073056 7.090715012079451
S 1016.6041191055839 617.1904600856662 1016.6041191055839 592.5042670806489
s 6.040238713993605 -7.090715012079451 13.130953726073056 -7.090715012079451
S 1042.86602655773 567.8180740756316 1042.86602655773 592.5042670806489
z" fill="none" stroke="none"></path>
<use xlink:href="#path-i00s6lh8nkf-1" x="0" y="0" stroke="#ff0cbe">
  <animateMotion begin="-3.4643673389587737s" dur="17.714472417489407s" keyPoints="0;1" keyTimes="0;1" repeatCount="indefinite" calcMode="linear">
    <mpath xlink:href="#path48"></mpath>
  </animateMotion>
</use><path id="path49" d="M 1070.9736415513576 536.0123963326799
c 0 47.53515284557702 -11.630941653705014 13.65371411521893 -25.284655768923944 13.65371411521893
S 1020.4043300135096 583.547549178257 1020.4043300135096 536.0123963326799
s 11.630941653705014 -13.65371411521893 25.284655768923944 -13.65371411521893
S 1070.9736415513576 488.4772434871029 1070.9736415513576 536.0123963326799
z" fill="none" stroke="none"></path>
<use xlink:href="#path-i00s6lh8nkf-1" x="0" y="0" stroke="#0abeff">
  <animateMotion begin="-1.645529154001768s" dur="14.608052291720881s" keyPoints="0;1" keyTimes="0;1" repeatCount="indefinite" calcMode="linear">
    <mpath xlink:href="#path49"></mpath>
  </animateMotion>
</use><path id="path50" d="M 1095.6188939466874 142.43243670496153
c 0 46.22776133786609 -11.311047986924681 13.27818676725941 -24.58923475418409 13.27818676725941
S 1046.440424438319 188.66019804282763 1046.440424438319 142.43243670496153
s 11.311047986924681 -13.27818676725941 24.58923475418409 -13.27818676725941
S 1095.6188939466874 96.20467536709543 1095.6188939466874 142.43243670496153
z" fill="none" stroke="none"></path>
<use xlink:href="#path-i00s6lh8nkf-1" x="0" y="0" stroke="#0aff4b">
  <animateMotion begin="-2.833902297678077s" dur="11.421379179103745s" keyPoints="0;1" keyTimes="0;1" repeatCount="indefinite" calcMode="linear">
    <mpath xlink:href="#path50"></mpath>
  </animateMotion>
</use><path id="path51" d="M 1110.8060410405735 244.05320515234618
c 0 32.566711076034096 -7.968450582433873 9.35426807503107 -17.322718657464943 9.35426807503107
S 1076.1606037256436 276.61991622838025 1076.1606037256436 244.05320515234618
s 7.968450582433873 -9.35426807503107 17.322718657464943 -9.35426807503107
S 1110.8060410405735 211.48649407631208 1110.8060410405735 244.05320515234618
z" fill="none" stroke="none"></path>
<use xlink:href="#path-i00s6lh8nkf-2" x="0" y="0" stroke="#ff0cbe">
  <animateMotion begin="-3.895489823641818s" dur="14.438698434743715s" keyPoints="1;0" keyTimes="0;1" repeatCount="indefinite" calcMode="linear">
    <mpath xlink:href="#path51"></mpath>
  </animateMotion>
</use><path id="path52" d="M 1128.8199003271889 401.189997842232
c 0 41.21193639301821 -10.083771670632114 11.837471091611615 -21.92124276224373 11.837471091611615
S 1084.9774148027013 442.4019342352502 1084.9774148027013 401.189997842232
s 10.083771670632114 -11.837471091611615 21.92124276224373 -11.837471091611615
S 1128.8199003271889 359.9780614492138 1128.8199003271889 401.189997842232
z" fill="none" stroke="none"></path>
<use xlink:href="#path-i00s6lh8nkf-2" x="0" y="0" stroke="#0aff4b">
  <animateMotion begin="-4.907428055845636s" dur="15.252929379976631s" keyPoints="1;0" keyTimes="0;1" repeatCount="indefinite" calcMode="linear">
    <mpath xlink:href="#path52"></mpath>
  </animateMotion>
</use><path id="path53" d="M 1145.9227548533759 310.2496498778775
c 0 31.832443738610927 -7.788789425404801 9.143361499388245 -16.932150924793046 9.143361499388245
S 1112.05845300379 342.08209361648846 1112.05845300379 310.2496498778775
s 7.788789425404801 -9.143361499388245 16.932150924793046 -9.143361499388245
S 1145.9227548533759 278.41720613926657 1145.9227548533759 310.2496498778775
z" fill="none" stroke="none"></path>
<use xlink:href="#path-i00s6lh8nkf-3" x="0" y="0" stroke="#0aff4b">
  <animateMotion begin="-1.6922991193692982s" dur="13.237280909110043s" keyPoints="1;0" keyTimes="0;1" repeatCount="indefinite" calcMode="linear">
    <mpath xlink:href="#path53"></mpath>
  </animateMotion>
</use><path id="path54" d="M 1163.4741030357873 285.1597752939905
c 0 19.722454940662416 -4.825707059949314 5.66496046167963 -10.490667521628945 5.66496046167963
S 1142.4927679925295 304.8822302346529 1142.4927679925295 285.1597752939905
s 4.825707059949314 -5.66496046167963 10.490667521628945 -5.66496046167963
S 1163.4741030357873 265.43732035332806 1163.4741030357873 285.1597752939905
z" fill="none" stroke="none"></path>
<use xlink:href="#path-i00s6lh8nkf-1" x="0" y="0" stroke="#ff0cbe">
  <animateMotion begin="-3.0407319436163127s" dur="10.600639266175575s" keyPoints="0;1" keyTimes="0;1" repeatCount="indefinite" calcMode="linear">
    <mpath xlink:href="#path54"></mpath>
  </animateMotion>
</use><path id="path55" d="M 1199.4261380155967 522.5861662639471
c 0 46.21858992801787 -11.308803918557564 13.275552426132794 -24.584356344690356 13.275552426132794
S 1150.257425326216 568.804756191965 1150.257425326216 522.5861662639471
s 11.308803918557564 -13.275552426132794 24.584356344690356 -13.275552426132794
S 1199.4261380155967 476.36757633592924 1199.4261380155967 522.5861662639471
z" fill="none" stroke="none"></path>
<use xlink:href="#path-i00s6lh8nkf-1" x="0" y="0" stroke="#0aff4b">
  <animateMotion begin="-2.6221090336606947s" dur="18.797417587439543s" keyPoints="0;1" keyTimes="0;1" repeatCount="indefinite" calcMode="linear">
    <mpath xlink:href="#path55"></mpath>
  </animateMotion>
</use><path id="path56" d="M 1220.5563795667729 579.9552994945558
c 0 28.554282050817488 -6.986686033710661 8.201761865660343 -15.188447899371003 8.201761865660343
S 1190.1794837680307 608.5095815453733 1190.1794837680307 579.9552994945558
s 6.986686033710661 -8.201761865660343 15.188447899371003 -8.201761865660343
S 1220.5563795667729 551.4010174437383 1220.5563795667729 579.9552994945558
z" fill="none" stroke="none"></path>
<use xlink:href="#path-i00s6lh8nkf-2" x="0" y="0" stroke="#0abeff">
  <animateMotion begin="-2.5352465490704237s" dur="14.330132091005376s" keyPoints="1;0" keyTimes="0;1" repeatCount="indefinite" calcMode="linear">
    <mpath xlink:href="#path56"></mpath>
  </animateMotion>
</use><path id="path57" d="M 1224.0581941489934 98.88837313458343
c 0 28.388927639990317 -6.946226975742311 8.154266449784453 -15.100493425526764 8.154266449784453
S 1193.8572072979398 127.27730077457375 1193.8572072979398 98.88837313458343
s 6.946226975742311 -8.154266449784453 15.100493425526764 -8.154266449784453
S 1224.0581941489934 70.49944549459312 1224.0581941489934 98.88837313458343
z" fill="none" stroke="none"></path>
<use xlink:href="#path-i00s6lh8nkf-2" x="0" y="0" stroke="#0abeff">
  <animateMotion begin="-4.128476138666175s" dur="17.41007713804643s" keyPoints="0;1" keyTimes="0;1" repeatCount="indefinite" calcMode="linear">
    <mpath xlink:href="#path57"></mpath>
  </animateMotion>
</use><path id="path58" d="M 1262.6070336123064 86.92917622782676
c 0 32.01949294337701 -7.834556784017778 9.197088398629566 -17.031645182647345 9.197088398629566
S 1228.543743247012 118.94866917120376 1228.543743247012 86.92917622782676
s 7.834556784017778 -9.197088398629566 17.031645182647345 -9.197088398629566
S 1262.6070336123064 54.90968328444975 1262.6070336123064 86.92917622782676
z" fill="none" stroke="none"></path>
<use xlink:href="#path-i00s6lh8nkf-2" x="0" y="0" stroke="#0aff4b">
  <animateMotion begin="-1.9003685187546449s" dur="16.329140955818026s" keyPoints="0;1" keyTimes="0;1" repeatCount="indefinite" calcMode="linear">
    <mpath xlink:href="#path58"></mpath>
  </animateMotion>
</use><path id="path59" d="M 1290.6587645466227 364.3494857253612
c 0 37.41844172330596 -9.155576166340818 10.74785028222618 -19.903426448567 10.74785028222618
S 1250.8519116494888 401.76792744866714 1250.8519116494888 364.3494857253612
s 9.155576166340818 -10.74785028222618 19.903426448567 -10.74785028222618
S 1290.6587645466227 326.9310440020553 1290.6587645466227 364.3494857253612
z" fill="none" stroke="none"></path>
<use xlink:href="#path-i00s6lh8nkf-3" x="0" y="0" stroke="#0aff4b">
  <animateMotion begin="-3.899553273579196s" dur="18.80218805226785s" keyPoints="1;0" keyTimes="0;1" repeatCount="indefinite" calcMode="linear">
    <mpath xlink:href="#path59"></mpath>
  </animateMotion>
</use><path id="path60" d="M 1312.2034689304796 321.65496311876774
c 0 47.15954931514218 -11.539038662215638 13.54582799477488 -25.08486665699052 13.54582799477488
S 1262.0337356164987 368.8145124339099 1262.0337356164987 321.65496311876774
s 11.539038662215638 -13.54582799477488 25.08486665699052 -13.54582799477488
S 1312.2034689304796 274.4954138036256 1312.2034689304796 321.65496311876774
z" fill="none" stroke="none"></path>
<use xlink:href="#path-i00s6lh8nkf-2" x="0" y="0" stroke="#ff0cbe">
  <animateMotion begin="-4.959637526874092s" dur="13.387953931567996s" keyPoints="1;0" keyTimes="0;1" repeatCount="indefinite" calcMode="linear">
    <mpath xlink:href="#path60"></mpath>
  </animateMotion>
</use><path id="path61" d="M 1304.6618646623645 614.6536296310336
c 0 26.65528480468205 -6.522037771358374 7.656305209855483 -14.178342981213856 7.656305209855483
S 1276.305178699937 641.3089144357157 1276.305178699937 614.6536296310336
s 6.522037771358374 -7.656305209855483 14.178342981213856 -7.656305209855483
S 1304.6618646623645 587.9983448263515 1304.6618646623645 614.6536296310336
z" fill="none" stroke="none"></path>
<use xlink:href="#path-i00s6lh8nkf-2" x="0" y="0" stroke="#0aff4b">
  <animateMotion begin="-2.552527713363033s" dur="17.132717514991565s" keyPoints="0;1" keyTimes="0;1" repeatCount="indefinite" calcMode="linear">
    <mpath xlink:href="#path61"></mpath>
  </animateMotion>
</use><path id="path62" d="M 1364.58006750747 110.97673675850162
c 0 52.30690059254909 -12.798496953496054 15.024322510625804 -27.822819464121856 15.024322510625804
S 1308.934428579226 163.28363735105071 1308.934428579226 110.97673675850162
s 12.798496953496054 -15.024322510625804 27.822819464121856 -15.024322510625804
S 1364.58006750747 58.669836165952525 1364.58006750747 110.97673675850162
z" fill="none" stroke="none"></path>
<use xlink:href="#path-i00s6lh8nkf-3" x="0" y="0" stroke="#0aff4b">
  <animateMotion begin="-2.9964193923474944s" dur="12.431695376733046s" keyPoints="1;0" keyTimes="0;1" repeatCount="indefinite" calcMode="linear">
    <mpath xlink:href="#path62"></mpath>
  </animateMotion>
</use><path id="path63" d="M 1366.5424875407587 132.41920285852692
c 0 21.26125689974852 -5.20222243291719 6.106956769076703 -11.309179201993892 6.106956769076703
S 1343.924129136771 153.68045975827545 1343.924129136771 132.41920285852692
s 5.20222243291719 -6.106956769076703 11.309179201993892 -6.106956769076703
S 1366.5424875407587 111.1579459587784 1366.5424875407587 132.41920285852692
z" fill="none" stroke="none"></path>
<use xlink:href="#path-i00s6lh8nkf-2" x="0" y="0" stroke="#ff0cbe">
  <animateMotion begin="-2.9693592290895268s" dur="18.922400969642904s" keyPoints="0;1" keyTimes="0;1" repeatCount="indefinite" calcMode="linear">
    <mpath xlink:href="#path63"></mpath>
  </animateMotion>
</use><path id="path64" d="M 1388.8250824606437 628.9610625486202
c 0 49.78715022351162 -12.181962288731565 14.300564425902273 -26.48252671463384 14.300564425902273
S 1335.860029031376 678.7482127721319 1335.860029031376 628.9610625486202
s 12.181962288731565 -14.300564425902273 26.48252671463384 -14.300564425902273
S 1388.8250824606437 579.1739123251086 1388.8250824606437 628.9610625486202
z" fill="none" stroke="none"></path>
<use xlink:href="#path-i00s6lh8nkf-2" x="0" y="0" stroke="#0aff4b">
  <animateMotion begin="-1.8505398791115513s" dur="14.533359601121173s" keyPoints="1;0" keyTimes="0;1" repeatCount="indefinite" calcMode="linear">
    <mpath xlink:href="#path64"></mpath>
  </animateMotion>
</use><path id="path65" d="M 1399.876164497736 635.5069338551626
c 0 43.37269012620379 -10.61246673300731 12.45811312135641 -23.07057985436372 12.45811312135641
S 1353.7350047890084 678.8796239813664 1353.7350047890084 635.5069338551626
s 10.61246673300731 -12.45811312135641 23.07057985436372 -12.45811312135641
S 1399.876164497736 592.1342437289588 1399.876164497736 635.5069338551626
z" fill="none" stroke="none"></path>
<use xlink:href="#path-i00s6lh8nkf-2" x="0" y="0" stroke="#0aff4b">
  <animateMotion begin="-3.476934091036914s" dur="12.756924451267786s" keyPoints="1;0" keyTimes="0;1" repeatCount="indefinite" calcMode="linear">
    <mpath xlink:href="#path65"></mpath>
  </animateMotion>
</use><path id="path66" d="M 1437.6116041890866 325.90801445387183
c 0 51.00264550365423 -12.479370708340927 14.649696048921959 -27.129066757262883 14.649696048921959
S 1383.3534706745606 376.91065995752604 1383.3534706745606 325.90801445387183
s 12.479370708340927 -14.649696048921959 27.129066757262883 -14.649696048921959
S 1437.6116041890866 274.9053689502176 1437.6116041890866 325.90801445387183
z" fill="none" stroke="none"></path>
<use xlink:href="#path-i00s6lh8nkf-2" x="0" y="0" stroke="#0aff4b">
  <animateMotion begin="-2.09966240694645s" dur="18.033998433291075s" keyPoints="1;0" keyTimes="0;1" repeatCount="indefinite" calcMode="linear">
    <mpath xlink:href="#path66"></mpath>
  </animateMotion>
</use></g>
</svg>