<?xml version="1.0" encoding="utf-8"?>
<svg xmlns="http://www.w3.org/2000/svg" style="margin: auto; background: rgb(0, 0, 0); display: block; shape-rendering: auto;" width="1383" height="1280" preserveAspectRatio="xMidYMid">
<style type="text/css">
  text {
    text-anchor: middle; font-size: 80px; opacity: 0;
  }
</style>
<g style="transform-origin:691.5px 640px;transform:scale(1)">
<g transform="translate(691.5,640)">
  <g transform="translate(97,-24)"><g class="path" style="transform: matrix(3, 0, 0, 3, 0, 0); opacity: 0; transform-origin: -234.6px 2.32918px; animation: 1s linear 0.623333s 1 normal forwards running vortex-alt-in-41836796-0226-4b65-987c-27d3348f3055;"><path d="M30.96-29.44L30.96-29.44L30.96-29.44Q29.68-28.80 28.16-28.52L28.16-28.52L28.16-28.52Q26.64-28.24 24.88-28.24L24.88-28.24L24.88-28.24Q24.88-33.60 23.40-36.32L23.40-36.32L23.40-36.32Q21.92-39.04 19.04-39.04L19.04-39.04L19.04-39.04Q14.64-39.04 11.44-32.12L11.44-32.12L11.44-32.12Q8.24-25.20 8.24-16.32L8.24-16.32L8.24-16.32Q8.24-9.84 10.44-6.08L10.44-6.08L10.44-6.08Q12.64-2.32 16.64-2.32L16.64-2.32L16.64-2.32Q19.68-2.32 22.28-4.84L22.28-4.84L22.28-4.84Q24.88-7.36 26.88-12.08L26.88-12.08L26.88-12.08Q28.08-11.68 29.04-11.04L29.04-11.04L29.04-11.04Q30-10.40 30.72-9.52L30.72-9.52L30.72-9.52Q29.44-4.72 25.16-1.36L25.16-1.36L25.16-1.36Q20.88 2 15.60 2L15.60 2L15.60 2Q9.12 2 5.64-2.68L5.64-2.68L5.64-2.68Q2.16-7.36 2.16-15.84L2.16-15.84L2.16-15.84Q2.16-27.60 6.96-35.44L6.96-35.44L6.96-35.44Q11.76-43.28 19.12-43.28L19.12-43.28L19.12-43.28Q24.72-43.28 27.84-39.60L27.84-39.60L27.84-39.60Q30.96-35.92 30.96-29.44" fill="#ff0cbe" stroke="none" stroke-width="none" transform="translate(-251.16000366210938,22.969180094401036)" style="fill: rgb(10, 190, 255);"></path></g><g class="path" style="transform: matrix(3, 0, 0, 3, 0, 0); opacity: 0; transform-origin: -198.36px -5.95082px; animation: 1s linear 0.586667s 1 normal forwards running vortex-alt-in-41836796-0226-4b65-987c-27d3348f3055;"><path d="M67.20-26.08L67.20-26.08L67.20-26.08Q67.20-19.60 65.24-10.92L65.24-10.92L65.24-10.92Q63.28-2.24 61.20 2.56L61.20 2.56L61.20 2.56Q59.84 2.40 58.52 2L58.52 2L58.52 2Q57.20 1.60 56 0.96L56 0.96L56 0.96Q58.40-5.52 59.72-12.64L59.72-12.64L59.72-12.64Q61.04-19.76 61.04-26L61.04-26L61.04-26Q61.04-32.24 59.80-34.76L59.80-34.76L59.80-34.76Q58.56-37.28 55.44-37.28L55.44-37.28L55.44-37.28Q52.16-37.28 48.96-33.64L48.96-33.64L48.96-33.64Q45.76-30 44-23.84L44-23.84L44-23.60L44-23.60Q44-19.12 44.40-12.48L44.40-12.48L44.40-12.48Q44.80-5.84 45.20-2.80L45.20-2.80L45.20-2.80Q44.32-2.56 42.72-2.36L42.72-2.36L42.72-2.36Q41.12-2.16 39.68-2.16L39.68-2.16L39.68-2.16Q39.04-10.56 38.72-17.96L38.72-17.96L38.72-17.96Q38.40-25.36 38.40-31.60L38.40-31.60L38.40-31.60Q38.40-38.08 38.88-46.60L38.88-46.60L38.88-46.60Q39.36-55.12 40-59.28L40-59.28L40-59.28Q41.04-59.84 42.16-60.12L42.16-60.12L42.16-60.12Q43.28-60.40 44.40-60.40L44.40-60.40L44.40-60.40Q45.20-60.40 46.24-60.12L46.24-60.12L46.24-60.12Q47.28-59.84 47.60-59.76L47.60-59.76L47.60-59.76Q46.32-53.68 45.44-46.60L45.44-46.60L45.44-46.60Q44.56-39.52 44.24-32.48L44.24-32.48L44.24-32.48Q46.72-37.12 49.92-39.60L49.92-39.60L49.92-39.60Q53.12-42.08 56.56-42.08L56.56-42.08L56.56-42.08Q62.16-42.08 64.68-38.28L64.68-38.28L64.68-38.28Q67.20-34.48 67.20-26.08" fill="#ff0cbe" stroke="none" stroke-width="none" transform="translate(-251.16000366210938,22.969180094401036)" style="fill: rgb(255, 12, 190);"></path></g><g class="path" style="transform: matrix(3, 0, 0, 3, 0, 0); opacity: 0; transform-origin: -164.766px 0.229179px; animation: 1s linear 0.55s 1 normal forwards running vortex-alt-in-41836796-0226-4b65-987c-27d3348f3055;"><path d="M83.12 0.16L83.12 0.16L83.12 0.16Q82.48 0.40 81.60 0.56L81.60 0.56L81.60 0.56Q80.72 0.72 79.84 0.72L79.84 0.72L79.84 0.72Q79.20 0.80 78.68 0.72L78.68 0.72L78.68 0.72Q78.16 0.64 77.68 0.48L77.68 0.48L77.68 0.48Q75.68-9.68 75-20.80L75-20.80L75-20.80Q74.32-31.92 74.88-43.20L74.88-43.20L74.88-43.20Q75.44-43.44 76.24-43.56L76.24-43.56L76.24-43.56Q77.04-43.68 78.64-43.68L78.64-43.68L78.64-43.68Q79.44-43.68 80.20-43.56L80.20-43.56L80.20-43.56Q80.96-43.44 81.76-43.20L81.76-43.20L81.76-43.20Q81.28-39.76 81.04-37.36L81.04-37.36L81.04-37.36Q80.80-34.96 80.72-32.80L80.72-32.80L80.72-32.80Q82.56-39.04 85.60-42.64L85.60-42.64L85.60-42.64Q88.64-46.24 91.92-46.24L91.92-46.24L91.92-46.24Q95.12-46.24 96.64-43.88L96.64-43.88L96.64-43.88Q98.16-41.52 98.16-36.64L98.16-36.64L98.16-36.64Q98.16-35.68 98.08-34.56L98.08-34.56L98.08-34.56Q98-33.44 97.92-32.16L97.92-32.16L97.92-32.16Q96.96-31.92 95.64-31.80L95.64-31.80L95.64-31.80Q94.32-31.68 92.80-31.76L92.80-31.76L92.80-31.76Q92.96-32.96 93.04-34.04L93.04-34.04L93.04-34.04Q93.12-35.12 93.12-36.16L93.12-36.16L93.12-36.16Q93.12-38.72 92.48-39.96L92.48-39.96L92.48-39.96Q91.84-41.20 90.56-41.20L90.56-41.20L90.56-41.20Q87.84-41.20 85.12-35.48L85.12-35.48L85.12-35.48Q82.40-29.76 80.80-20.64L80.80-20.64L80.80-20.64Q81.04-16.08 81.60-10.92L81.60-10.92L81.60-10.92Q82.16-5.76 83.12 0.16" fill="#ff0cbe" stroke="none" stroke-width="none" transform="translate(-251.16000366210938,22.969180094401036)" style="fill: rgb(82, 113, 255);"></path></g><g class="path" style="transform: matrix(3, 0, 0, 3, 0, 0); opacity: 0; transform-origin: -141.36px -31.3002px; animation: 1s linear 0.513333s 1 normal forwards running vortex-alt-in-41836796-0226-4b65-987c-27d3348f3055;"><path d="M110.40-59.28L110.40-59.28L110.40-59.28Q111.52-59.20 112.36-59L112.36-59L112.36-59Q113.20-58.80 113.92-58.40L113.92-58.40L113.92-58.40Q113.12-56.64 112.28-54.20L112.28-54.20L112.28-54.20Q111.44-51.76 110.96-49.44L110.96-49.44L110.96-49.44Q110.08-49.28 108.72-49.24L108.72-49.24L108.72-49.24Q107.36-49.20 105.92-49.28L105.92-49.28L105.92-49.28Q105.76-50 105.72-50.60L105.72-50.60L105.72-50.60Q105.68-51.20 105.68-51.84L105.68-51.84L105.68-51.84Q105.68-53.52 106.04-55.44L106.04-55.44L106.04-55.44Q106.40-57.36 107.04-58.72L107.04-58.72L107.04-58.72Q107.92-59.12 108.64-59.24L108.64-59.24L108.64-59.24Q109.36-59.36 110.40-59.28" fill="#ff0cbe" stroke="none" stroke-width="none" transform="translate(-251.16000366210938,22.969180094401036)" style="fill: rgb(10, 255, 75);"></path></g><g class="path" style="transform: matrix(3, 0, 0, 3, 0, 0); opacity: 0; transform-origin: -144.713px 2.84918px; animation: 1s linear 0.476667s 1 normal forwards running vortex-alt-in-41836796-0226-4b65-987c-27d3348f3055;"><path d="M104.24-39.84L104.24-39.84L104.24-39.84Q105.20-40.40 106.20-40.68L106.20-40.68L106.20-40.68Q107.20-40.96 108.32-40.96L108.32-40.96L108.32-40.96Q108.96-40.96 109.48-40.88L109.48-40.88L109.48-40.88Q110-40.80 110.56-40.64L110.56-40.64L110.56-40.64Q108.96-32.24 108.32-20.96L108.32-20.96L108.32-20.96Q107.68-9.68 108.32 0.08L108.32 0.08L108.32 0.08Q107.76 0.40 106.88 0.56L106.88 0.56L106.88 0.56Q106 0.72 105.12 0.72L105.12 0.72L105.12 0.72Q104.72 0.72 104.36 0.68L104.36 0.68L104.36 0.68Q104 0.64 103.52 0.56L103.52 0.56L103.52 0.56Q102.16-9.60 102.36-20.44L102.36-20.44L102.36-20.44Q102.56-31.28 104.24-39.84" fill="#ff0cbe" stroke="none" stroke-width="none" transform="translate(-251.16000366210938,22.969180094401036)" style="fill: rgb(10, 190, 255);"></path></g><g class="path" style="transform: matrix(3, 0, 0, 3, 0, 0); opacity: 0; transform-origin: -123.4px 2.24918px; animation: 1s linear 0.44s 1 normal forwards running vortex-alt-in-41836796-0226-4b65-987c-27d3348f3055;"><path d="M131.04-23.04L131.04-23.04L131.04-23.04Q136.80-18.88 138.60-15.96L138.60-15.96L138.60-15.96Q140.40-13.04 140.40-9.52L140.40-9.52L140.40-9.52Q140.40-4 136.88-0.40L136.88-0.40L136.88-0.40Q133.36 3.20 127.92 3.20L127.92 3.20L127.92 3.20Q122.24 3.20 118.68-0.88L118.68-0.88L118.68-0.88Q115.12-4.96 115.12-11.68L115.12-11.68L115.12-11.68Q116.32-12.08 117.64-12.28L117.64-12.28L117.64-12.28Q118.96-12.48 120.24-12.40L120.24-12.40L120.24-12.40Q120.08-7.04 122.12-4L122.12-4L122.12-4Q124.16-0.96 128.00-0.96L128.00-0.96L128.00-0.96Q130.88-0.96 132.60-2.92L132.60-2.92L132.60-2.92Q134.32-4.88 134.32-8.24L134.32-8.24L134.32-8.24Q134.32-10.96 132.80-13.32L132.80-13.32L132.80-13.32Q131.28-15.68 126.24-19.36L126.24-19.36L126.24-19.36Q120.32-23.68 118.48-26.76L118.48-26.76L118.48-26.76Q116.64-29.84 116.64-33.60L116.64-33.60L116.64-33.60Q116.64-38.64 119.68-41.64L119.68-41.64L119.68-41.64Q122.72-44.64 127.92-44.64L127.92-44.64L127.92-44.64Q132.88-44.64 135.72-41.76L135.72-41.76L135.72-41.76Q138.56-38.88 139.68-32.56L139.68-32.56L139.68-32.56Q138.48-32 137.24-31.72L137.24-31.72L137.24-31.72Q136-31.44 134.64-31.28L134.64-31.28L134.64-31.28Q134-36 132.36-38.16L132.36-38.16L132.36-38.16Q130.72-40.32 127.84-40.32L127.84-40.32L127.84-40.32Q125.44-40.32 124.04-38.72L124.04-38.72L124.04-38.72Q122.64-37.12 122.64-34.40L122.64-34.40L122.64-34.40Q122.64-31.60 124.24-29.20L124.24-29.20L124.24-29.20Q125.84-26.80 131.04-23.04" fill="#ff0cbe" stroke="none" stroke-width="none" transform="translate(-251.16000366210938,22.969180094401036)" style="fill: rgb(255, 12, 190);"></path></g><g class="path" style="transform: matrix(3, 0, 0, 3, 0, 0); opacity: 0; transform-origin: -91.4px 2.32918px; animation: 1s linear 0.403333s 1 normal forwards running vortex-alt-in-41836796-0226-4b65-987c-27d3348f3055;"><path d="M174.16-29.44L174.16-29.44L174.16-29.44Q172.88-28.80 171.36-28.52L171.36-28.52L171.36-28.52Q169.84-28.24 168.08-28.24L168.08-28.24L168.08-28.24Q168.08-33.60 166.60-36.32L166.60-36.32L166.60-36.32Q165.12-39.04 162.24-39.04L162.24-39.04L162.24-39.04Q157.84-39.04 154.64-32.12L154.64-32.12L154.64-32.12Q151.44-25.20 151.44-16.32L151.44-16.32L151.44-16.32Q151.44-9.84 153.64-6.08L153.64-6.08L153.64-6.08Q155.84-2.32 159.84-2.32L159.84-2.32L159.84-2.32Q162.88-2.32 165.48-4.84L165.48-4.84L165.48-4.84Q168.08-7.36 170.08-12.08L170.08-12.08L170.08-12.08Q171.28-11.68 172.24-11.04L172.24-11.04L172.24-11.04Q173.20-10.40 173.92-9.52L173.92-9.52L173.92-9.52Q172.64-4.72 168.36-1.36L168.36-1.36L168.36-1.36Q164.08 2 158.80 2L158.80 2L158.80 2Q152.32 2 148.84-2.68L148.84-2.68L148.84-2.68Q145.36-7.36 145.36-15.84L145.36-15.84L145.36-15.84Q145.36-27.60 150.16-35.44L150.16-35.44L150.16-35.44Q154.96-43.28 162.32-43.28L162.32-43.28L162.32-43.28Q167.92-43.28 171.04-39.60L171.04-39.60L171.04-39.60Q174.16-35.92 174.16-29.44" fill="#ff0cbe" stroke="none" stroke-width="none" transform="translate(-251.16000366210938,22.969180094401036)" style="fill: rgb(82, 113, 255);"></path></g><g class="path" style="transform: matrix(3, 0, 0, 3, 0, 0); opacity: 0; transform-origin: -56.44px 1.92918px; animation: 1s linear 0.366667s 1 normal forwards running vortex-alt-in-41836796-0226-4b65-987c-27d3348f3055;"><path d="M179.52-19.36L179.52-19.36L179.52-19.36Q179.52-29.76 184.28-36.32L184.28-36.32L184.28-36.32Q189.04-42.88 196.56-42.88L196.56-42.88L196.56-42.88Q202.72-42.88 206.32-38.20L206.32-38.20L206.32-38.20Q209.92-33.52 209.92-25.60L209.92-25.60L209.92-25.60Q209.92-14 205.40-6.60L205.40-6.60L205.40-6.60Q200.88 0.80 193.44 0.80L193.44 0.80L193.44 0.80Q187.04 0.80 183.28-4.76L183.28-4.76L183.28-4.76Q179.52-10.32 179.52-19.36zM203.52-22.24L203.52-22.24L203.52-22.24Q203.52-30.40 201.44-34.40L201.44-34.40L201.44-34.40Q199.36-38.40 195.12-38.40L195.12-38.40L195.12-38.40Q191.28-38.40 188.44-33.12L188.44-33.12L188.44-33.12Q185.60-27.84 185.60-20.16L185.60-20.16L185.60-20.16Q185.60-13.12 188-8.36L188-8.36L188-8.36Q190.40-3.60 194.48-3.60L194.48-3.60L194.48-3.60Q198.08-3.60 200.80-9.08L200.80-9.08L200.80-9.08Q203.52-14.56 203.52-22.24" fill="#ff0cbe" stroke="none" stroke-width="none" transform="translate(-251.16000366210938,22.969180094401036)" style="fill: rgb(10, 255, 75);"></path></g><g class="path" style="transform: matrix(3, 0, 0, 3, 0, 0); opacity: 0; transform-origin: -20.08px 3.20918px; animation: 1s linear 0.33s 1 normal forwards running vortex-alt-in-41836796-0226-4b65-987c-27d3348f3055;"><path d="M223.12-13.36L223.12-13.36L223.12-13.36Q223.12-9.60 223.28-4.84L223.28-4.84L223.28-4.84Q223.44-0.08 223.68 2.08L223.68 2.08L223.68 2.08Q222.64 2.40 221.20 2.64L221.20 2.64L221.20 2.64Q219.76 2.88 218.40 2.88L218.40 2.88L218.40 2.88Q217.84-5.52 217.44-18.88L217.44-18.88L217.44-18.88Q217.04-32.24 217.04-41.52L217.04-41.52L217.04-41.52Q217.84-41.92 218.96-42.16L218.96-42.16L218.96-42.16Q220.08-42.40 221.28-42.40L221.28-42.40L221.28-42.40Q222.08-42.40 222.84-42.32L222.84-42.32L222.84-42.32Q223.60-42.24 224.40-42.08L224.40-42.08L224.40-42.08Q224.24-40.64 224.04-37.48L224.04-37.48L224.04-37.48Q223.84-34.32 223.76-33.36L223.76-33.36L223.76-33.36Q226.40-37.76 229.36-39.92L229.36-39.92L229.36-39.92Q232.32-42.08 235.60-42.08L235.60-42.08L235.60-42.08Q240.56-42.08 242.84-38.44L242.84-38.44L242.84-38.44Q245.12-34.80 245.12-27.04L245.12-27.04L245.12-27.04Q245.12-20.80 244.12-13.04L244.12-13.04L244.12-13.04Q243.12-5.28 242.00-0.88L242.00-0.88L242.00-0.88Q240.72-0.96 239.16-1.24L239.16-1.24L239.16-1.24Q237.60-1.52 236.32-1.92L236.32-1.92L236.32-1.92Q237.76-9.76 238.40-15.84L238.40-15.84L238.40-15.84Q239.04-21.92 239.04-27.28L239.04-27.28L239.04-27.28Q239.04-32.32 237.80-34.56L237.80-34.56L237.80-34.56Q236.56-36.80 233.76-36.80L233.76-36.80L233.76-36.80Q230.96-36.80 228.20-34L228.20-34L228.20-34Q225.44-31.20 223.44-26.32L223.44-26.32L223.44-26.32Q223.28-20.56 223.20-17.92L223.20-17.92L223.20-17.92Q223.12-15.28 223.12-13.36" fill="#ff0cbe" stroke="none" stroke-width="none" transform="translate(-251.16000366210938,22.969180094401036)" style="fill: rgb(10, 190, 255);"></path></g><g class="path" style="transform: matrix(3, 0, 0, 3, 0, 0); opacity: 0; transform-origin: 16.8px 3.20918px; animation: 1s linear 0.293333s 1 normal forwards running vortex-alt-in-41836796-0226-4b65-987c-27d3348f3055;"><path d="M260-13.36L260-13.36L260-13.36Q260-9.60 260.16-4.84L260.16-4.84L260.16-4.84Q260.32-0.08 260.56 2.08L260.56 2.08L260.56 2.08Q259.52 2.40 258.08 2.64L258.08 2.64L258.08 2.64Q256.64 2.88 255.28 2.88L255.28 2.88L255.28 2.88Q254.72-5.52 254.32-18.88L254.32-18.88L254.32-18.88Q253.92-32.24 253.92-41.52L253.92-41.52L253.92-41.52Q254.72-41.92 255.84-42.16L255.84-42.16L255.84-42.16Q256.96-42.40 258.16-42.40L258.16-42.40L258.16-42.40Q258.96-42.40 259.72-42.32L259.72-42.32L259.72-42.32Q260.48-42.24 261.28-42.08L261.28-42.08L261.28-42.08Q261.12-40.64 260.92-37.48L260.92-37.48L260.92-37.48Q260.72-34.32 260.64-33.36L260.64-33.36L260.64-33.36Q263.28-37.76 266.24-39.92L266.24-39.92L266.24-39.92Q269.20-42.08 272.48-42.08L272.48-42.08L272.48-42.08Q277.44-42.08 279.72-38.44L279.72-38.44L279.72-38.44Q282-34.80 282-27.04L282-27.04L282-27.04Q282-20.80 281-13.04L281-13.04L281-13.04Q280-5.28 278.88-0.88L278.88-0.88L278.88-0.88Q277.60-0.96 276.04-1.24L276.04-1.24L276.04-1.24Q274.48-1.52 273.20-1.92L273.20-1.92L273.20-1.92Q274.64-9.76 275.28-15.84L275.28-15.84L275.28-15.84Q275.92-21.92 275.92-27.28L275.92-27.28L275.92-27.28Q275.92-32.32 274.68-34.56L274.68-34.56L274.68-34.56Q273.44-36.80 270.64-36.80L270.64-36.80L270.64-36.80Q267.84-36.80 265.08-34L265.08-34L265.08-34Q262.32-31.20 260.32-26.32L260.32-26.32L260.32-26.32Q260.16-20.56 260.08-17.92L260.08-17.92L260.08-17.92Q260-15.28 260-13.36" fill="#ff0cbe" stroke="none" stroke-width="none" transform="translate(-251.16000366210938,22.969180094401036)" style="fill: rgb(255, 12, 190);"></path></g><g class="path" style="transform: matrix(3, 0, 0, 3, 0, 0); opacity: 0; transform-origin: 52.96px 2.20918px; animation: 1s linear 0.256667s 1 normal forwards running vortex-alt-in-41836796-0226-4b65-987c-27d3348f3055;"><path d="M296.32-25.04L296.32-25.04L296.32-25.04Q298.64-24.24 301.32-23.80L301.32-23.80L301.32-23.80Q304-23.36 306.96-23.36L306.96-23.36L306.96-23.36Q307.76-23.36 308.84-23.44L308.84-23.44L308.84-23.44Q309.92-23.52 310.40-23.68L310.40-23.68L310.40-23.68Q311.04-26 311.32-27.96L311.32-27.96L311.32-27.96Q311.60-29.92 311.60-31.52L311.60-31.52L311.60-31.52Q311.60-35.04 310.44-36.56L310.44-36.56L310.44-36.56Q309.28-38.08 306.72-38.08L306.72-38.08L306.72-38.08Q303.36-38.08 300.56-34.48L300.56-34.48L300.56-34.48Q297.76-30.88 296.32-25.04zM314.16-13.60L314.16-13.60L314.16-13.60Q315.44-13.36 316.76-12.64L316.76-12.64L316.76-12.64Q318.08-11.92 319.04-10.96L319.04-10.96L319.04-10.96Q317.52-6.40 312.84-2.76L312.84-2.76L312.84-2.76Q308.16 0.88 303.12 0.88L303.12 0.88L303.12 0.88Q296.64 0.88 292.92-4.16L292.92-4.16L292.92-4.16Q289.20-9.20 289.20-17.68L289.20-17.68L289.20-17.68Q289.20-27.20 294.52-34.80L294.52-34.80L294.52-34.80Q299.84-42.40 307.20-42.40L307.20-42.40L307.20-42.40Q311.92-42.40 314.68-39.40L314.68-39.40L314.68-39.40Q317.44-36.40 317.44-31.28L317.44-31.28L317.44-31.28Q317.44-28.56 316.92-25.80L316.92-25.80L316.92-25.80Q316.40-23.04 315.52-20.56L315.52-20.56L315.52-20.56Q313.92-20 311.64-19.72L311.64-19.72L311.64-19.72Q309.36-19.44 306-19.44L306-19.44L306-19.44Q303.44-19.44 300.76-19.88L300.76-19.88L300.76-19.88Q298.08-20.32 295.60-21.20L295.60-21.20L295.60-21.20Q295.44-20.24 295.40-19.32L295.40-19.32L295.40-19.32Q295.36-18.40 295.36-17.52L295.36-17.52L295.36-17.52Q295.36-11.20 297.56-7.32L297.56-7.32L297.56-7.32Q299.76-3.44 303.44-3.44L303.44-3.44L303.44-3.44Q306.64-3.44 309.84-6.44L309.84-6.44L309.84-6.44Q313.04-9.44 314.16-13.60" fill="#ff0cbe" stroke="none" stroke-width="none" transform="translate(-251.16000366210938,22.969180094401036)" style="fill: rgb(82, 113, 255);"></path></g><g class="path" style="transform: matrix(3, 0, 0, 3, 0, 0); opacity: 0; transform-origin: 78.3615px -4.27082px; animation: 1s linear 0.22s 1 normal forwards running vortex-alt-in-41836796-0226-4b65-987c-27d3348f3055;"><path d="M332.64 4.24L332.64 4.24L332.64 4.24Q331.84 4.48 330.12 4.68L330.12 4.68L330.12 4.68Q328.40 4.88 327.20 4.88L327.20 4.88L327.20 4.88Q325.92-12.96 325.72-27.88L325.72-27.88L325.72-27.88Q325.52-42.80 326.40-58.40L326.40-58.40L326.40-58.40Q327.20-58.80 328.20-59.08L328.20-59.08L328.20-59.08Q329.20-59.36 330.16-59.36L330.16-59.36L330.16-59.36Q330.96-59.36 331.72-59.24L331.72-59.24L331.72-59.24Q332.48-59.12 333.36-58.88L333.36-58.88L333.36-58.88Q332.08-46.48 331.88-29.56L331.88-29.56L331.88-29.56Q331.68-12.64 332.64 4.24" fill="#ff0cbe" stroke="none" stroke-width="none" transform="translate(-251.16000366210938,22.969180094401036)" style="fill: rgb(10, 255, 75);"></path></g><g class="path" style="transform: matrix(3, 0, 0, 3, 0, 0); opacity: 0; transform-origin: 94.2815px -4.27082px; animation: 1s linear 0.183333s 1 normal forwards running vortex-alt-in-41836796-0226-4b65-987c-27d3348f3055;"><path d="M348.56 4.24L348.56 4.24L348.56 4.24Q347.76 4.48 346.04 4.68L346.04 4.68L346.04 4.68Q344.32 4.88 343.12 4.88L343.12 4.88L343.12 4.88Q341.84-12.96 341.64-27.88L341.64-27.88L341.64-27.88Q341.44-42.80 342.32-58.40L342.32-58.40L342.32-58.40Q343.12-58.80 344.12-59.08L344.12-59.08L344.12-59.08Q345.12-59.36 346.08-59.36L346.08-59.36L346.08-59.36Q346.88-59.36 347.64-59.24L347.64-59.24L347.64-59.24Q348.40-59.12 349.28-58.88L349.28-58.88L349.28-58.88Q348.00-46.48 347.80-29.56L347.80-29.56L347.80-29.56Q347.60-12.64 348.56 4.24" fill="#ff0cbe" stroke="none" stroke-width="none" transform="translate(-251.16000366210938,22.969180094401036)" style="fill: rgb(10, 190, 255);"></path></g><g class="path" style="transform: matrix(3, 0, 0, 3, 0, 0); opacity: 0; transform-origin: 119.44px 10.5692px; animation: 1s linear 0.146667s 1 normal forwards running vortex-alt-in-41836796-0226-4b65-987c-27d3348f3055;"><path d="M384.48-15.52L384.48-15.52L384.48-15.52Q384.48 0.56 380.44 9.12L380.44 9.12L380.44 9.12Q376.40 17.68 369.28 17.68L369.28 17.68L369.28 17.68Q364.48 17.68 361.36 14.32L361.36 14.32L361.36 14.32Q358.24 10.96 357.20 4.88L357.20 4.88L357.20 4.88Q358.56 4 359.96 3.36L359.96 3.36L359.96 3.36Q361.36 2.72 362.88 2.40L362.88 2.40L362.88 2.40Q363.76 8.24 365.32 10.76L365.32 10.76L365.32 10.76Q366.88 13.28 369.68 13.28L369.68 13.28L369.68 13.28Q373.28 13.28 375.48 7.92L375.48 7.92L375.48 7.92Q377.68 2.56 378.16-7.68L378.16-7.68L378.16-7.68Q376.24-4.56 373.84-3L373.84-3L373.84-3Q371.44-1.44 368.64-1.44L368.64-1.44L368.64-1.44Q363.36-1.44 360.04-6.48L360.04-6.48L360.04-6.48Q356.72-11.52 356.72-19.76L356.72-19.76L356.72-19.76Q356.72-25.20 357.48-29.96L357.48-29.96L357.48-29.96Q358.24-34.72 360.72-42.48L360.72-42.48L360.72-42.48Q362.08-42.40 363.64-42.12L363.64-42.12L363.64-42.12Q365.20-41.84 366.40-41.44L366.40-41.44L366.40-41.44Q364.40-34 363.68-29.52L363.68-29.52L363.68-29.52Q362.96-25.04 362.96-19.92L362.96-19.92L362.96-19.92Q362.96-14 364.96-10.32L364.96-10.32L364.96-10.32Q366.96-6.64 370.32-6.64L370.32-6.64L370.32-6.64Q372.72-6.64 374.72-8.80L374.72-8.80L374.72-8.80Q376.72-10.96 378.32-15.44L378.32-15.44L378.32-15.44Q378.24-22.64 377.48-28.56L377.48-28.56L377.48-28.56Q376.72-34.48 375.04-39.76L375.04-39.76L375.04-39.76Q376.24-40.72 378.12-41.12L378.12-41.12L378.12-41.12Q380.00-41.52 381.76-41.20L381.76-41.20L381.76-41.20Q382.96-36.24 383.72-29.08L383.72-29.08L383.72-29.08Q384.48-21.92 384.48-15.52" fill="#ff0cbe" stroke="none" stroke-width="none" transform="translate(-251.16000366210938,22.969180094401036)" style="fill: rgb(255, 12, 190);"></path></g><g class="path" style="transform: matrix(3, 0, 0, 3, 0, 0); opacity: 0; transform-origin: 143.28px 19.867px; animation: 1s linear 0.11s 1 normal forwards running vortex-alt-in-41836796-0226-4b65-987c-27d3348f3055;"><path d="M390.64-6.08L390.64-6.08L390.64-6.08Q392.72-6.56 394.56-6.60L394.56-6.60L394.56-6.60Q396.40-6.64 398.24-6.32L398.24-6.32L398.24-6.32Q398.16-3.76 398.04-2.44L398.04-2.44L398.04-2.44Q397.92-1.12 397.68 0.16L397.68 0.16L397.68 0.16Q395.68 0.40 394.12 0.40L394.12 0.40L394.12 0.40Q392.56 0.40 390.88 0.16L390.88 0.16L390.88 0.16Q390.88-0.32 390.84-0.84L390.84-0.84L390.84-0.84Q390.80-1.36 390.80-2.32L390.80-2.32L390.80-2.32Q390.72-3.76 390.68-4.56L390.68-4.56L390.68-4.56Q390.64-5.36 390.64-6.08" fill="#ff0cbe" stroke="none" stroke-width="none" transform="translate(-251.16000366210938,22.969180094401036)" style="fill: rgb(82, 113, 255);"></path></g><g class="path" style="transform: matrix(3, 0, 0, 3, 0, 0); opacity: 0; transform-origin: 166.72px -4.43082px; animation: 1s linear 0.0733333s 1 normal forwards running vortex-alt-in-41836796-0226-4b65-987c-27d3348f3055;"><path d="M432.00 2.64L432.00 2.64L432.00 2.64Q431.04 2.96 429.72 3.16L429.72 3.16L429.72 3.16Q428.40 3.36 427.44 3.36L427.44 3.36L427.44 3.36Q427.20 0.80 427.04-1.80L427.04-1.80L427.04-1.80Q426.88-4.40 426.80-6.96L426.80-6.96L426.80-6.96Q425.28-2.16 422.80 0.12L422.80 0.12L422.80 0.12Q420.32 2.40 416.56 2.40L416.56 2.40L416.56 2.40Q410.40 2.40 406.80-3.36L406.80-3.36L406.80-3.36Q403.20-9.12 403.20-18.64L403.20-18.64L403.20-18.64Q403.20-29.12 407.96-35.40L407.96-35.40L407.96-35.40Q412.72-41.68 420.64-41.68L420.64-41.68L420.64-41.68Q421.92-41.68 423.28-41.52L423.28-41.52L423.28-41.52Q424.64-41.36 425.76-41.04L425.76-41.04L425.76-41.04Q425.68-48.56 425.64-51.68L425.64-51.68L425.64-51.68Q425.60-54.80 425.60-57.28L425.60-57.28L425.60-57.28Q426.32-57.68 427.44-57.92L427.44-57.92L427.44-57.92Q428.56-58.16 429.60-58.16L429.60-58.16L429.60-58.16Q430.24-58.16 430.96-58.04L430.96-58.04L430.96-58.04Q431.68-57.92 432.56-57.76L432.56-57.76L432.56-57.76Q432.16-52.80 431.96-43.56L431.96-43.56L431.96-43.56Q431.76-34.32 431.76-9.76L431.76-9.76L431.76-9.76Q431.76-6.16 431.80-3.48L431.80-3.48L431.80-3.48Q431.84-0.80 432.00 2.64zM409.28-19.52L409.28-19.52L409.28-19.52Q409.28-11.28 411.44-6.76L411.44-6.76L411.44-6.76Q413.60-2.24 417.44-2.24L417.44-2.24L417.44-2.24Q420.96-2.24 423.24-6.20L423.24-6.20L423.24-6.20Q425.52-10.16 426.32-17.84L426.32-17.84L426.32-17.84Q426.16-22.32 426.04-27.12L426.04-27.12L426.04-27.12Q425.92-31.92 425.84-36.80L425.84-36.80L425.84-36.80Q424.88-37.12 423.76-37.24L423.76-37.24L423.76-37.24Q422.64-37.36 421.36-37.36L421.36-37.36L421.36-37.36Q415.92-37.36 412.60-32.60L412.60-32.60L412.60-32.60Q409.28-27.84 409.28-19.52" fill="#ff0cbe" stroke="none" stroke-width="none" transform="translate(-251.16000366210938,22.969180094401036)" style="fill: rgb(10, 255, 75);"></path></g><g class="path" style="transform: matrix(3, 0, 0, 3, 0, 0); opacity: 0; transform-origin: 203.36px 2.20918px; animation: 1s linear 0.0366667s 1 normal forwards running vortex-alt-in-41836796-0226-4b65-987c-27d3348f3055;"><path d="M446.72-25.04L446.72-25.04L446.72-25.04Q449.04-24.24 451.72-23.80L451.72-23.80L451.72-23.80Q454.40-23.36 457.36-23.36L457.36-23.36L457.36-23.36Q458.16-23.36 459.24-23.44L459.24-23.44L459.24-23.44Q460.32-23.52 460.80-23.68L460.80-23.68L460.80-23.68Q461.44-26 461.72-27.96L461.72-27.96L461.72-27.96Q462.00-29.92 462.00-31.52L462.00-31.52L462.00-31.52Q462.00-35.04 460.84-36.56L460.84-36.56L460.84-36.56Q459.68-38.08 457.12-38.08L457.12-38.08L457.12-38.08Q453.76-38.08 450.96-34.48L450.96-34.48L450.96-34.48Q448.16-30.88 446.72-25.04zM464.56-13.60L464.56-13.60L464.56-13.60Q465.84-13.36 467.16-12.64L467.16-12.64L467.16-12.64Q468.48-11.92 469.44-10.96L469.44-10.96L469.44-10.96Q467.92-6.40 463.24-2.76L463.24-2.76L463.24-2.76Q458.56 0.88 453.52 0.88L453.52 0.88L453.52 0.88Q447.04 0.88 443.32-4.16L443.32-4.16L443.32-4.16Q439.60-9.20 439.60-17.68L439.60-17.68L439.60-17.68Q439.60-27.20 444.92-34.80L444.92-34.80L444.92-34.80Q450.24-42.40 457.60-42.40L457.60-42.40L457.60-42.40Q462.32-42.40 465.08-39.40L465.08-39.40L465.08-39.40Q467.84-36.40 467.84-31.28L467.84-31.28L467.84-31.28Q467.84-28.56 467.32-25.80L467.32-25.80L467.32-25.80Q466.80-23.04 465.92-20.56L465.92-20.56L465.92-20.56Q464.32-20 462.04-19.72L462.04-19.72L462.04-19.72Q459.76-19.44 456.40-19.44L456.40-19.44L456.40-19.44Q453.84-19.44 451.16-19.88L451.16-19.88L451.16-19.88Q448.48-20.32 446.00-21.20L446.00-21.20L446.00-21.20Q445.84-20.24 445.80-19.32L445.80-19.32L445.80-19.32Q445.76-18.40 445.76-17.52L445.76-17.52L445.76-17.52Q445.76-11.20 447.96-7.32L447.96-7.32L447.96-7.32Q450.16-3.44 453.84-3.44L453.84-3.44L453.84-3.44Q457.04-3.44 460.24-6.44L460.24-6.44L460.24-6.44Q463.44-9.44 464.56-13.60" fill="#ff0cbe" stroke="none" stroke-width="none" transform="translate(-251.16000366210938,22.969180094401036)" style="fill: rgb(10, 190, 255);"></path></g><g class="path" style="transform: matrix(3, 0, 0, 3, 0, 0); opacity: 0; transform-origin: 237.28px -0.110819px; animation: 1s linear 0s 1 normal forwards running vortex-alt-in-41836796-0226-4b65-987c-27d3348f3055;"><path d="M504.48-40.88L504.48-40.88L504.48-40.88Q501.60-28.88 498.48-20.48L498.48-20.48L498.48-20.48Q495.36-12.08 489.76-1.12L489.76-1.12L489.76-1.12Q489.20-0.88 488.20-0.80L488.20-0.80L488.20-0.80Q487.20-0.72 484.96-0.72L484.96-0.72L484.96-0.72Q482.72-12.64 479.60-23.28L479.60-23.28L479.60-23.28Q476.48-33.92 472.40-43.60L472.40-43.60L472.40-43.60Q473.76-44.40 475.44-44.84L475.44-44.84L475.44-44.84Q477.12-45.28 478.96-45.44L478.96-45.44L478.96-45.44Q481.84-37.44 484.08-28.88L484.08-28.88L484.08-28.88Q486.32-20.32 488.64-8.48L488.64-8.48L488.64-8.48Q492.56-17.52 495.20-26.32L495.20-26.32L495.20-26.32Q497.84-35.12 498.88-42.72L498.88-42.72L498.88-42.72Q500.24-42.56 501.72-42.08L501.72-42.08L501.72-42.08Q503.20-41.60 504.48-40.88" fill="#ff0cbe" stroke="none" stroke-width="none" transform="translate(-251.16000366210938,22.969180094401036)" style="fill: rgb(255, 12, 190);"></path></g></g>
</g>
</g>
<style id="vortex-alt-in-41836796-0226-4b65-987c-27d3348f3055" data-anikit="">@keyframes vortex-alt-in-41836796-0226-4b65-987c-27d3348f3055 {
  0%, 60% { animation-timing-function: cubic-bezier(0.3, 0, 1, 0.7); }
  0% { opacity: 0; transform: rotate(-1800deg) scale(3); }
  60% { opacity: 1; transform: rotate(0deg) scale(1); }
  100% { opacity: 1; transform: rotate(0deg) scale(1); }
}</style></svg>